<?xml version="1.0" encoding="UTF-8"?>
<svg xmlns="http://www.w3.org/2000/svg"
     xmlns:xlink="http://www.w3.org/1999/xlink"
     xmlns:gadfly="http://www.gadflyjl.org/ns"
     version="1.2"
     width="228.6mm" height="177.8mm" viewBox="0 0 228.6 177.8"
     stroke="none"
     fill="#000000"
     stroke-width="0.3"
     font-size="3.88"
>
<g class="plotroot xscalable yscalable" id="img-36a92165-1">
  <g font-size="3.88" font-family="'PT Sans','Helvetica Neue','Helvetica',sans-serif" fill="#564A55" stroke="#000000" stroke-opacity="0.000" id="img-36a92165-2">
    <text x="120.97" y="160.11" text-anchor="middle" dy="0.6em">CM_X</text>
  </g>
  <g class="guide xlabels" font-size="2.82" font-family="'PT Sans Caption','Helvetica Neue','Helvetica',sans-serif" fill="#6C606B" id="img-36a92165-3">
    <text x="28.73" y="153.44" text-anchor="middle" dy="0.6em">-1.10×10⁷</text>
    <text x="74.85" y="153.44" text-anchor="middle" dy="0.6em">-1.05×10⁷</text>
    <text x="120.97" y="153.44" text-anchor="middle" dy="0.6em">-1.00×10⁷</text>
    <text x="167.09" y="153.44" text-anchor="middle" dy="0.6em">-9.50×10⁶</text>
    <text x="213.21" y="153.44" text-anchor="middle" dy="0.6em">-9.00×10⁶</text>
  </g>
  <g class="guide colorkey" id="img-36a92165-4">
    <g font-size="2.82" font-family="'PT Sans','Helvetica Neue','Helvetica',sans-serif" fill="#4C404B" id="img-36a92165-5">
      <text x="219.52" y="89.72" dy="0.35em">20</text>
      <text x="219.52" y="75.71" dy="0.35em">40</text>
      <text x="219.52" y="96.72" dy="0.35em">10</text>
      <text x="219.52" y="82.72" dy="0.35em">30</text>
      <text x="219.52" y="103.02" dy="0.35em">1</text>
    </g>
    <g shape-rendering="crispEdges" stroke="#000000" stroke-opacity="0.000" id="img-36a92165-6">
      <rect x="217.21" y="102.34" width="1.31" height="0.68" fill="#004D84"/>
      <rect x="217.21" y="101.66" width="1.31" height="0.68" fill="#005B8D"/>
      <rect x="217.21" y="100.98" width="1.31" height="0.68" fill="#006995"/>
      <rect x="217.21" y="100.29" width="1.31" height="0.68" fill="#00769D"/>
      <rect x="217.21" y="99.61" width="1.31" height="0.68" fill="#0083A3"/>
      <rect x="217.21" y="98.93" width="1.31" height="0.68" fill="#278FA9"/>
      <rect x="217.21" y="98.25" width="1.31" height="0.68" fill="#409BAF"/>
      <rect x="217.21" y="97.56" width="1.31" height="0.68" fill="#55A7B5"/>
      <rect x="217.21" y="96.88" width="1.31" height="0.68" fill="#69B2BA"/>
      <rect x="217.21" y="96.2" width="1.31" height="0.68" fill="#7BBCC0"/>
      <rect x="217.21" y="95.51" width="1.31" height="0.68" fill="#8DC6C5"/>
      <rect x="217.21" y="94.83" width="1.31" height="0.68" fill="#9ED0CB"/>
      <rect x="217.21" y="94.15" width="1.31" height="0.68" fill="#A5CFC7"/>
      <rect x="217.21" y="93.47" width="1.31" height="0.68" fill="#ABCEC4"/>
      <rect x="217.21" y="92.78" width="1.31" height="0.68" fill="#B1CCC2"/>
      <rect x="217.21" y="92.1" width="1.31" height="0.68" fill="#B5CCC1"/>
      <rect x="217.21" y="91.42" width="1.31" height="0.68" fill="#B7CBBF"/>
      <rect x="217.21" y="90.73" width="1.31" height="0.68" fill="#B9CBBD"/>
      <rect x="217.21" y="90.05" width="1.31" height="0.68" fill="#BBCBBB"/>
      <rect x="217.21" y="89.37" width="1.31" height="0.68" fill="#BDCABA"/>
      <rect x="217.21" y="88.69" width="1.31" height="0.68" fill="#BFCAB8"/>
      <rect x="217.21" y="88" width="1.31" height="0.68" fill="#C2C9B7"/>
      <rect x="217.21" y="87.32" width="1.31" height="0.68" fill="#C4C9B6"/>
      <rect x="217.21" y="86.64" width="1.31" height="0.68" fill="#C6C8B5"/>
      <rect x="217.21" y="85.96" width="1.31" height="0.68" fill="#C9C7B4"/>
      <rect x="217.21" y="85.27" width="1.31" height="0.68" fill="#CCC7B2"/>
      <rect x="217.21" y="84.59" width="1.31" height="0.68" fill="#CFC6AE"/>
      <rect x="217.21" y="83.91" width="1.31" height="0.68" fill="#D4C5AA"/>
      <rect x="217.21" y="83.22" width="1.31" height="0.68" fill="#D8C3A6"/>
      <rect x="217.21" y="82.54" width="1.31" height="0.68" fill="#D3B79A"/>
      <rect x="217.21" y="81.86" width="1.31" height="0.68" fill="#CDAB8E"/>
      <rect x="217.21" y="81.18" width="1.31" height="0.68" fill="#C89E82"/>
      <rect x="217.21" y="80.49" width="1.31" height="0.68" fill="#C19177"/>
      <rect x="217.21" y="79.81" width="1.31" height="0.68" fill="#BA836C"/>
      <rect x="217.21" y="79.13" width="1.31" height="0.68" fill="#B27563"/>
      <rect x="217.21" y="78.44" width="1.31" height="0.68" fill="#AA665A"/>
      <rect x="217.21" y="77.76" width="1.31" height="0.68" fill="#A05752"/>
      <rect x="217.21" y="77.08" width="1.31" height="0.68" fill="#96484A"/>
      <rect x="217.21" y="76.4" width="1.31" height="0.68" fill="#8B3844"/>
      <rect x="217.21" y="75.71" width="1.31" height="0.68" fill="#7E273E"/>
      <g stroke="#FFFFFF" stroke-width="0.2" id="img-36a92165-7">
        <path fill="none" d="M217.21,89.72 L 218.52 89.72"/>
        <path fill="none" d="M217.21,75.71 L 218.52 75.71"/>
        <path fill="none" d="M217.21,96.72 L 218.52 96.72"/>
        <path fill="none" d="M217.21,82.72 L 218.52 82.72"/>
        <path fill="none" d="M217.21,103.02 L 218.52 103.02"/>
      </g>
    </g>
    <g fill="#362A35" font-size="3.88" font-family="'PT Sans','Helvetica Neue','Helvetica',sans-serif" stroke="#000000" stroke-opacity="0.000" id="img-36a92165-8">
      <text x="217.21" y="71.71">PCT</text>
    </g>
  </g>
<g clip-path="url(#img-36a92165-9)">
  <g id="img-36a92165-10">
    <g pointer-events="visible" opacity="1" fill="#000000" fill-opacity="0.000" stroke="#000000" stroke-opacity="0.000" class="guide background" id="img-36a92165-11">
      <rect x="26.72" y="11.08" width="188.48" height="141.36"/>
    </g>
    <g class="guide ygridlines xfixed" stroke-dasharray="0.5,0.5" stroke-width="0.2" stroke="#D0D0E0" id="img-36a92165-12">
      <path fill="none" d="M26.72,150.44 L 215.21 150.44"/>
      <path fill="none" d="M26.72,104.65 L 215.21 104.65"/>
      <path fill="none" d="M26.72,58.86 L 215.21 58.86"/>
      <path fill="none" d="M26.72,13.08 L 215.21 13.08"/>
    </g>
    <g class="guide xgridlines yfixed" stroke-dasharray="0.5,0.5" stroke-width="0.2" stroke="#D0D0E0" id="img-36a92165-13">
      <path fill="none" d="M28.73,11.08 L 28.73 152.44"/>
      <path fill="none" d="M74.85,11.08 L 74.85 152.44"/>
      <path fill="none" d="M120.97,11.08 L 120.97 152.44"/>
      <path fill="none" d="M167.09,11.08 L 167.09 152.44"/>
      <path fill="none" d="M213.21,11.08 L 213.21 152.44"/>
    </g>
    <g class="plotpanel" id="img-36a92165-14">
      <g class="geometry" stroke-width="0.3" id="img-36a92165-15">
        <path d="M116.15,43.5 L 116.51 43.36 117.21 43.23 117.37 42.72 117.59 42.25 118.31 42.38 118.21 41.81 118.28 41.32 118.23 40.74 117.53 40.43 117.98 40.06 118.33 39.33 118.08 38.74 118.51 38.58 118.77 38.67 119.01 38.15 118.77 37.66 118.85 36.98 119.66 37.09 119.8 36.86 119.93 36.26 120.5 36.03 120.27 35.72 119.68 35.16 120.1 34.42 120.63 34.51 121.32 34.07 122.08 33.73 122.01 33.25 122.08 32.92 122.86 32.66 122.84 32.55 122.81 32.32 122.45 31.99 121.98 31.33 122.39 31.08 122.52 30.29 122.9 30.03 123.42 29.62 123.1 29.02 123.06 29 122.39 28.5 122.54 28.2 123.32 28.33 123.81 27.83 123.22 27.43 123.34 27 123.91 26.99 124.14 26.98 124.26 26.56 123.94 26.03 124.15 25.5 123.97 25.04 125.22 25.03 125.96 25 127.33 24.94 129.87 24.99 131.2 24.99 131.28 24.99 131.39 24.99 134.47 25 134.52 25 134.75 25 138.46 25.03 139.22 25.01 139.25 25.01 139.43 24.36 139.2 23.36 139.05 22.75 139.65 22.77 141.32 22.94 141.28 23.32 142.91 23.28 143.46 23.26 143.46 23.26 146.47 23.22 146.59 23.22 148.86 23.18 149.42 23.18 151.96 23.14 152.47 23.13 154.08 23.08 154.54 23.23 154.65 23.26 155.09 23.08 156.08 23.13 158.2 23.25 159.47 23.32 160.56 23.38 161.6 23.45 162.48 23.47 163.06 23.49 165.56 23.56 166.1 23.52 167.54 23.41 167.59 23.41 167.74 23.41 169.59 23.46 170.84 23.56 171.15 23.59 172.78 23.7 172.78 23.7 172.85 23.7 175.71 23.79 178.16 23.84 178.51 23.84 178.51 23.84 180.97 23.88 180.97 23.88 181.56 23.9 181.93 23.92 184.02 23.97 184.18 23.74 186.27 23.75 188.28 23.77 191.27 23.81 192.85 23.82 195.13 23.81 196.38 23.8 198.36 23.81 198.88 23.81 199.6 23.81 199.88 23.81 202.06 23.82 202.18 23.54 203.16 23.56 205.01 23.59 204.69 23.9 204.46 24.55 204.51 25.42 204.11 26.11 204.2 26.42 204.4 27.06 203.75 27.03 203.09 26.95 202.32 27.52 202.22 27.71 202.06 27.99 201.79 28.46 201.09 29.77 200.56 30 200.55 30 200.08 30.02 199.94 29.62 199.21 29.33 199.12 29.39 198.65 29.73 198.33 29.65 197.82 29.88 197.18 30.28 197.1 30.42 196.61 31.25 196.17 31.56 195.65 31.92 195.11 31.66 195.27 31.01 195.16 30.87 194.93 30.55 193.94 31.11 193.38 31.43 193.3 31.94 193 32.29 192.54 32 192.2 32.17 192.03 32.26 192.14 32.91 191.76 33.51 191.46 33.91 191.34 34.07 190.62 34.01 190.12 34.15 189.45 34.31 189.08 34.79 188.49 34.9 188.48 34.92 188.4 35.07 188.06 35.64 187.55 35.6 186.78 36.22 186.47 36.33 186 36.83 185.08 36.78 184.41 36.76 184.31 36.77 183.19 36.84 182.4 37.37 181.7 37.95 181.33 38.12 181.27 38.14 181.12 38.21 180.62 38.77 180.77 39.22 180.45 39.51 180.6 40.17 180.55 40.21 179.84 40.77 179.01 40.86 178.55 40.5 177.94 41.03 177.9 41.29 177.54 44 175.62 44.01 174.46 44 173.38 44.01 172.88 44.01 172.52 44.01 172 44.01 170.81 44.02 170.78 44.02 170.11 44.02 167.86 44.04 167.73 44.04 166.84 44.06 166.62 44.07 165.71 44.06 164.36 44.05 161.71 44.02 157.11 43.97 157.04 43.97 155.51 43.97 152.26 43.96 152.26 43.96 151.72 43.95 147.88 43.87 147.82 43.87 147.74 43.87 143.82 43.81 143.62 43.81 141.29 43.79 139.93 43.78 139.77 43.78 137.69 43.76 137.72 43.91 137.12 43.91 136.04 43.91 135.87 43.91 134.95 43.91 131.7 43.92 131.32 43.92 129.33 43.92 129.23 43.92 127.47 43.93 125.88 43.93 125.04 43.93 122.89 43.93 122.07 43.93 121.7 43.93 121.34 43.93 116.06 43.91 116.15 43.5 z" fill="#B7CBBF" stroke="#FFFFFF"/>
        <path d="M71.82,25.02 L 74.45 25.02 77.37 25.03 78.58 25.03 79.53 25.03 81.24 25.03 82.43 25.03 84.05 25.03 85.19 25.04 85.42 25.04 87.14 25.04 89.93 25.04 90.09 25.04 90.77 25.04 92.91 25.04 93.27 25.04 95.1 25.04 97.16 25.04 97.46 25.04 98.85 25.03 102.06 25.02 102.37 25.02 104.35 25.05 104.79 25.05 104.81 25.05 107.67 25.04 108.78 25.04 111.18 25.03 111.37 25.03 113.32 25.03 114.16 25.04 116.97 25.07 117.66 25.07 117.78 25.52 117.89 26.09 118.56 26.46 118.58 26.83 118.58 27.51 118.06 27.98 117.63 28.63 117.29 28.82 116.97 29 116.82 29.58 116.21 29.91 115.75 30.74 115.45 31.39 116.27 31.38 118.17 31.36 119.65 31.35 120.25 31.34 121.98 31.33 122.45 31.99 122.81 32.32 122.84 32.55 122.86 32.66 122.08 32.92 122.01 33.25 122.08 33.73 121.32 34.07 120.63 34.51 120.1 34.42 119.68 35.16 120.27 35.72 120.5 36.03 119.93 36.26 119.8 36.86 119.66 37.09 118.85 36.98 118.77 37.66 119.01 38.15 118.77 38.67 118.51 38.58 118.08 38.74 118.33 39.33 117.98 40.06 117.53 40.43 118.23 40.74 118.28 41.32 118.21 41.81 118.31 42.38 117.59 42.25 117.37 42.72 117.21 43.23 116.51 43.36 116.15 43.5 116.06 43.91 116.73 44.63 116.67 45.01 116.04 45.44 116.02 45.45 115.11 45.9 115.05 45.9 114.47 45.91 114.37 46.48 114.05 46.78 113.63 47.56 113.59 48.04 113.35 48.41 113.21 48.63 113.6 49.22 113.39 49.75 113.24 50.57 113.33 51.11 112.65 51.5 112.45 52.09 111.75 51.74 111.38 52 111.51 52.66 110.89 52.78 110.61 53.32 110.05 53.46 110.17 53.96 110.05 54.25 109.6 54.4 109.54 54.75 109.53 54.79 109.52 54.88 109.98 55.06 110.26 55.34 110.07 55.9 109.56 56 109.17 56.23 108.92 56.51 108.47 56.41 108.06 56.7 108.6 56.92 108.7 57.36 108.34 57.73 108.43 58.39 108.71 58.61 108.69 59.13 108.09 58.97 107.82 58.99 107.5 59.33 108.19 59.73 107.93 60.39 107.14 60.51 107.62 61 107.03 61.42 106.86 61.78 106.75 62 107.02 62.44 107.2 62.82 107.45 63.25 107.8 63.66 107.51 64.2 107.68 65.04 108.08 65.12 108.26 65.62 108.1 66.25 107.9 66.85 107.4 66.81 107.11 67.26 107.73 67.79 107.33 68.31 107.26 68.4 106.25 68.39 104.49 68.38 104.24 68.38 103.94 68.38 99.98 68.36 97.99 68.35 97.99 68.35 96.41 68.34 93.55 68.3 91.27 68.28 91.26 68.28 88.73 68.24 88.55 68.24 86.4 68.23 85.98 68.23 84.56 68.23 83.39 68.22 83.08 68.22 81 68.21 80.17 68.22 80.07 68.22 77.72 68.22 77.72 66.5 77.72 65.15 77.72 64.43 77.72 63.14 77.72 61.73 77.71 61.72 77.42 61.47 76.69 61.41 76.28 61.23 75.97 61.49 75.71 61.42 75.04 61.57 74.69 61.54 74.53 61.67 74.18 61.56 73.86 61.41 73.17 60.67 73.22 58.82 73.26 56.95 73.29 55.98 73.34 53.89 73.38 51.8 73.43 49.97 73.47 48.39 73.5 47.22 73.55 45.22 73.57 44.68 73.62 43.08 73.69 40.42 73.73 39.25 73.71 39.04 73.7 38.95 73.55 37.66 73.31 35.88 73.1 34.36 73.08 34.25 72.7 31.49 72.5 30.05 72.39 29.29 72.14 27.55 71.82 25.02 z" fill="#B5CCC2" stroke="#FFFFFF"/>
        <path d="M134.96,81.81 L 134.96 81.34 135.12 79.9 135.35 77.8 135.37 77.53 135.45 76.82 135.78 73.57 135.94 71.95 136.2 69.31 136.28 68.56 136.52 66.21 136.65 64.94 136.95 61.94 137.16 59.92 137.22 59.36 137.64 55.51 137.68 55.16 137.99 52.27 138.18 50.52 138.34 49.05 138.39 48.54 138.77 45.2 138.18 44.82 137.72 43.91 137.69 43.76 139.77 43.78 139.93 43.78 141.29 43.79 143.62 43.81 143.82 43.81 147.74 43.87 147.82 43.87 147.88 43.87 151.72 43.95 152.26 43.96 152.26 43.96 155.51 43.97 157.04 43.97 157.11 43.97 161.71 44.02 164.36 44.05 164.47 44.8 164.59 45.59 164.81 46.96 165.09 48.53 165.17 48.96 165.31 49.76 165.42 50.38 165.7 51.99 165.82 52.7 166.17 54.69 166.25 55.23 166.48 56.67 166.48 56.67 166.61 57.43 166.87 59.08 167.11 60.48 167.35 61.99 167.45 62.57 167.55 63.24 168.15 66.88 168.19 67.14 168.19 67.14 168.67 70.03 168.68 70.14 168.92 70.56 169.3 71.47 169.4 71.72 169.67 72.6 169.8 73.2 169.86 73.51 170.5 74.22 170.57 74.39 170.58 74.43 170.87 75.2 170.77 75.97 170.75 76.16 170.49 76.48 171.03 76.86 171.69 77.37 171.4 77.76 171.29 77.9 170.6 78.31 169.97 78.9 170.09 79.49 170.05 79.79 169.92 80.64 169.88 80.93 169.41 81.82 169.12 82.47 169.25 83.18 169.29 83.38 169.36 83.75 169.29 84.2 169.98 85.09 169.98 85.69 170.15 86 170.05 86.3 169.84 86.91 169.9 87.35 169.63 88.17 169.67 88.66 169.66 88.82 169.66 88.98 169.47 89.42 169.47 90.28 170.21 91.21 170.36 91.6 170.46 91.86 170.55 92.49 170.26 92.49 169.08 92.49 167.15 92.5 165.56 92.52 165.46 92.52 164.63 92.53 162.88 92.55 161.4 92.57 159.95 92.57 158.39 92.57 156.56 92.56 156.32 92.56 154.52 92.55 153.24 92.54 152.24 92.53 151.77 92.53 150.78 92.52 148.37 92.51 148.37 92.51 146.83 92.51 145.67 92.52 144.71 92.52 143.89 92.53 143.89 92.53 143.96 93.07 143.52 94.09 144.47 95.26 144.66 95.6 145.5 96.14 145.93 96.56 145.92 97.19 145.61 97.83 145.47 98.34 145.78 98.93 146.28 99.17 145.61 99.57 145.4 100.27 144.72 101.02 143.3 101.38 141.63 101.64 140.87 101.51 141.76 101.03 141.86 100.5 141.16 99.8 140.65 99.06 140.46 98.58 140.78 97.82 140.65 97.41 140.48 96.62 139.69 96.24 139.14 96.71 139.11 97.38 138.93 97.88 138.71 98.41 138.69 99.59 138.37 100.54 137.76 100.54 137.13 100.57 136.57 99.98 136.03 99.75 135.72 99.97 135.62 97.91 135.54 95.68 135.54 95.63 135.4 92.52 135.34 91.13 135.17 87.47 135.16 87.3 135.05 85.08 135.01 84.16 134.96 83.05 134.96 81.81 z" fill="#CEC6AF" stroke="#FFFFFF"/>
        <path d="M77.72,72.18 L 77.72 70.91 77.72 69.9 77.72 68.22 80.07 68.22 80.17 68.22 81 68.21 83.08 68.22 83.39 68.22 84.56 68.23 85.98 68.23 86.4 68.23 88.55 68.24 88.73 68.24 91.26 68.28 91.27 68.28 93.55 68.3 96.41 68.34 97.99 68.35 97.99 68.35 99.98 68.36 103.94 68.38 104.24 68.38 104.49 68.38 106.25 68.39 107.26 68.4 107.59 68.69 108.23 69.21 108.24 69.8 107.55 70.29 107.31 70.73 107.35 71.17 107.8 71.61 108.38 71.78 107.95 72.27 108.15 73.29 108.4 73.56 108.46 73.62 108.47 73.63 108.85 74.31 108.35 74.36 108.42 75.26 109.32 75.42 109.1 76.3 109.78 76.42 109.5 77.13 109.06 77.96 107.85 78.03 108.56 79.24 108.61 79.32 108.16 79.93 108.14 80.26 107.76 80.69 107.15 80.86 107.11 81.5 106.56 82.02 106.46 82.1 105.99 82.54 105.42 82.43 105.28 82.95 105.68 83.57 105.7 83.6 105.06 83.75 105.06 83.75 104.9 84.81 104.21 85.09 104.27 85.49 104.47 85.98 103.94 86.12 103.66 86.55 103.73 87.26 103.5 87.84 103.46 88.46 103.74 89.02 103.17 89.38 102.59 89.31 102.35 89.7 102.91 90.19 102.9 90.21 102.58 90.87 102.86 91.41 103.21 91.91 102.52 92.43 102.43 92.5 106.67 92.5 107.16 92.5 108.35 92.5 110.76 92.5 111.44 92.5 113.41 92.5 113.61 92.49 115.67 92.49 115.68 92.49 116.57 92.49 120.29 92.47 120.92 92.47 122.03 92.47 122.03 92.47 121.8 93.53 121.37 94.63 120.92 95.73 121.02 96.43 121.07 96.72 121.38 97.82 122.19 98.69 122.32 98.97 122.54 99.44 122.99 100.69 123.26 101.77 124.12 102.2 123.29 102.64 122.76 102.93 122.48 103.43 121.47 103.79 120.83 104.11 120.82 104.13 120.75 104.88 121.33 105.1 121.86 105.29 122.3 105.81 122.86 105.93 123.36 105.72 123.61 104.52 124.43 103.84 124.94 103.61 125.99 103.63 126.39 103.25 127.11 102.74 127.62 102.57 127.6 103.57 127.29 104.4 127.13 105.2 127.08 105.77 126.49 106.64 126.72 107.19 125.41 107.02 125.36 108.07 124.72 108.42 124.36 108.63 124.32 108.66 124.01 108.46 123.32 108.9 123.71 109.68 123.66 110.27 124.04 110.96 124.55 111.29 125.6 111.46 126.3 111.51 126.86 112.11 127.45 112.02 128.12 112.78 128.31 113.48 129.24 113.53 129.36 114.09 128.82 114.98 128.31 115.17 127.98 115.69 128.04 116.14 127.26 115.78 126.84 115.36 126.2 115.92 125.39 116.81 125.36 115.84 125.8 115.2 125.49 114.6 125.06 114.3 124.55 113.53 123.71 113.21 123.27 113.1 122.94 112.65 122.05 112.49 120.85 112.32 120.43 112.45 120.23 112.62 119.68 113.08 118.64 113.9 118.31 114.12 117.98 114.36 116.94 115.05 115.8 115.29 115.03 115.36 114.69 115.39 114.22 115.35 112.54 115.37 111.55 115.57 110.89 115.55 110.32 115.39 110.22 114.82 109.56 114.14 108.97 114.06 108 113.85 107.34 113.49 106.11 113.15 105.53 112.55 106.13 112.19 106.24 111.82 106.23 111.82 105.54 111.47 105.23 111.13 105.4 110.85 104.92 110.23 104.23 110.55 103.98 110.21 103.52 109.83 103.45 109.42 103.4 109.09 102.8 108.66 102.36 108.67 102.56 107.86 102.12 107.31 101.4 107.27 100.67 107.56 100.21 107.82 100.11 108.23 100 108.71 100.71 109.07 101.67 109.38 101.08 110.31 100.53 110.5 99.57 109.98 98.39 109.35 98.26 109.29 98.04 109.19 97.07 109.24 96.11 109.74 95.38 109.83 94.49 109.64 93.84 109.48 92.87 109.29 92.36 109.15 91.67 108.97 89.66 108.08 88.5 107.57 87.53 107.28 86.61 107.02 85.4 106.97 84.21 107.06 82.9 107.11 80.81 107.43 80.22 107.67 79.83 107.96 79.57 107.57 79.28 107.13 78.89 106.64 79.47 106.07 79.68 105.83 79.9 105.57 80.14 104.86 80.82 104.07 81.18 103.71 81.2 103.69 81.22 103 81.2 102.28 81.11 101.67 81.13 101.45 81.17 101.08 80.62 100.44 80.78 99.64 80.85 99.58 81.22 99.25 81.14 98.35 80.94 97.89 81.4 97.33 81.4 96.94 81.96 96.29 82.09 95.6 82.59 94.84 82.7 94.05 82.74 93.95 82.98 93.39 82.79 92.89 82.89 92.39 82.98 91.88 82.88 90.96 82.94 90.29 82.76 90.29 82.26 90.32 82.25 90.32 82.13 89.41 81.5 88.91 81.57 88.02 81.27 87.39 80.74 86.91 80.98 86.48 80.34 86.21 79.86 85.5 79.86 85.5 80.04 85.07 80.18 84.13 79.67 82.87 79.41 82.41 79.09 81.82 78.39 81.42 77.86 80.78 77.73 80.63 77.72 78.88 77.72 78.18 77.72 76.16 77.72 75.81 77.72 73.73 77.72 72.18 z" fill="#C4987C" stroke="#FFFFFF"/>
        <path d="M102.59,89.31 L 103.17 89.38 103.74 89.02 103.46 88.46 103.5 87.84 103.73 87.26 103.66 86.55 103.94 86.12 104.47 85.98 104.27 85.49 104.21 85.09 104.9 84.81 105.06 83.75 105.06 83.75 105.7 83.6 105.68 83.57 105.28 82.95 105.42 82.43 105.99 82.54 106.46 82.1 106.56 82.02 107.11 81.5 107.15 80.86 107.76 80.69 108.14 80.26 108.16 79.93 108.61 79.32 108.56 79.24 107.85 78.03 109.06 77.96 109.5 77.13 109.78 76.42 109.1 76.3 109.32 75.42 108.42 75.26 108.35 74.36 108.85 74.31 108.47 73.63 108.46 73.62 108.4 73.56 108.15 73.29 107.95 72.27 108.38 71.78 107.8 71.61 107.35 71.17 107.31 70.73 107.55 70.29 108.24 69.8 108.23 69.21 107.59 68.69 107.26 68.4 107.33 68.31 107.73 67.79 107.11 67.26 107.4 66.81 107.9 66.85 108.1 66.25 108.26 65.62 108.08 65.12 107.68 65.04 107.51 64.2 107.8 63.66 107.45 63.25 107.2 62.82 107.02 62.44 106.75 62 106.86 61.78 107.03 61.42 107.62 61 107.14 60.51 107.93 60.39 108.19 59.73 107.5 59.33 107.82 58.99 108.09 58.97 108.69 59.13 108.71 58.61 108.43 58.39 108.34 57.73 108.7 57.36 108.6 56.92 108.06 56.7 108.47 56.41 108.92 56.51 109.17 56.23 109.56 56 110.07 55.9 110.26 55.34 109.98 55.06 109.52 54.88 109.53 54.79 109.54 54.75 109.6 54.4 110.05 54.25 110.17 53.96 110.05 53.46 110.61 53.32 110.89 52.78 111.51 52.66 111.38 52 111.75 51.74 112.45 52.09 112.65 51.5 113.33 51.11 113.24 50.57 113.39 49.75 113.6 49.22 113.21 48.63 113.35 48.41 113.59 48.04 113.63 47.56 114.05 46.78 114.37 46.48 114.47 45.91 115.05 45.9 115.11 45.9 116.02 45.45 116.04 45.44 116.67 45.01 116.73 44.63 116.06 43.91 121.34 43.93 121.7 43.93 122.07 43.93 122.89 43.93 125.04 43.93 125.88 43.93 127.47 43.93 129.23 43.92 129.33 43.92 131.32 43.92 131.7 43.92 134.95 43.91 135.87 43.91 136.04 43.91 137.12 43.91 137.72 43.91 138.18 44.82 138.77 45.2 138.39 48.54 138.34 49.05 138.18 50.52 137.99 52.27 137.68 55.16 137.64 55.51 137.22 59.36 137.16 59.92 136.95 61.94 136.65 64.94 136.52 66.21 136.28 68.56 136.2 69.31 135.94 71.95 135.78 73.57 135.45 76.82 135.37 77.53 135.35 77.8 135.12 79.9 134.96 81.34 134.96 81.81 134.96 83.05 135.01 84.16 135.05 85.08 135.16 87.3 135.17 87.47 135.34 91.13 135.4 92.52 135.54 95.63 135.54 95.68 135.62 97.91 135.72 99.97 135.56 100.29 135.19 100.23 134.93 100.55 134.41 100.32 133.8 100.42 133.48 100.15 132.96 100.06 132.58 100.27 132.1 100.23 131.55 100.11 131.37 100.07 130.59 99.69 129.8 99.72 128.65 99.99 127.59 100.42 126.48 100.7 126.35 100.74 125.96 100.87 125.14 101.43 124.91 101.91 124.62 102.07 124.12 102.2 123.26 101.77 122.99 100.69 122.54 99.44 122.32 98.97 122.19 98.69 121.38 97.82 121.07 96.72 121.02 96.43 120.92 95.73 121.37 94.63 121.8 93.53 122.03 92.47 122.03 92.47 120.92 92.47 120.29 92.47 116.57 92.49 115.68 92.49 115.67 92.49 113.61 92.49 113.41 92.5 111.44 92.5 110.76 92.5 108.35 92.5 107.16 92.5 106.67 92.5 102.43 92.5 102.52 92.43 103.21 91.91 102.86 91.41 102.58 90.87 102.9 90.21 102.91 90.19 102.35 89.7 102.59 89.31 z" fill="#9B4F4E" stroke="#FFFFFF"/>
      </g>
    </g>
  </g>
</g>
  <g class="guide ylabels" font-size="2.82" font-family="'PT Sans Caption','Helvetica Neue','Helvetica',sans-serif" fill="#6C606B" id="img-36a92165-16">
    <text x="25.72" y="150.44" text-anchor="end" dy="0.35em">3.0×10⁶</text>
    <text x="25.72" y="104.65" text-anchor="end" dy="0.35em">3.5×10⁶</text>
    <text x="25.72" y="58.86" text-anchor="end" dy="0.35em">4.0×10⁶</text>
    <text x="25.72" y="13.08" text-anchor="end" dy="0.35em">4.5×10⁶</text>
  </g>
  <g font-size="3.88" font-family="'PT Sans','Helvetica Neue','Helvetica',sans-serif" fill="#564A55" stroke="#000000" stroke-opacity="0.000" id="img-36a92165-17">
    <text x="8.81" y="79.76" text-anchor="middle" dy="0.35em" transform="rotate(-90, 8.81, 81.76)">CM_Y</text>
  </g>
</g>
<defs>
  <clipPath id="img-36a92165-9">
  <path d="M26.72,11.08 L 215.21 11.08 215.21 152.44 26.72 152.44" />
</clipPath>
</defs>
</svg>
