<?xml version="1.0" encoding="UTF-8"?>
<svg xmlns="http://www.w3.org/2000/svg"
     xmlns:xlink="http://www.w3.org/1999/xlink"
     xmlns:gadfly="http://www.gadflyjl.org/ns"
     version="1.2"
     width="228.6mm" height="177.8mm" viewBox="0 0 228.6 177.8"
     stroke="none"
     fill="#000000"
     stroke-width="0.3"
     font-size="3.88"
>
<g class="plotroot xscalable yscalable" id="img-d1b7d9ba-1">
  <g class="guide colorkey" id="img-d1b7d9ba-2">
    <g font-size="2.82" font-family="'PT Sans','Helvetica Neue','Helvetica',sans-serif" fill="#4C404B" id="img-d1b7d9ba-3">
      <text x="219.52" y="110.17" dy="0.35em">1</text>
      <text x="219.52" y="82.86" dy="0.35em">40</text>
      <text x="219.52" y="96.86" dy="0.35em">20</text>
      <text x="219.52" y="103.86" dy="0.35em">10</text>
      <text x="219.52" y="89.86" dy="0.35em">30</text>
    </g>
    <g shape-rendering="crispEdges" stroke="#000000" stroke-opacity="0.000" id="img-d1b7d9ba-4">
      <rect x="217.21" y="109.48" width="1.31" height="0.68" fill="#004D84"/>
      <rect x="217.21" y="108.8" width="1.31" height="0.68" fill="#005B8D"/>
      <rect x="217.21" y="108.12" width="1.31" height="0.68" fill="#006995"/>
      <rect x="217.21" y="107.44" width="1.31" height="0.68" fill="#00769D"/>
      <rect x="217.21" y="106.75" width="1.31" height="0.68" fill="#0083A3"/>
      <rect x="217.21" y="106.07" width="1.31" height="0.68" fill="#278FA9"/>
      <rect x="217.21" y="105.39" width="1.31" height="0.68" fill="#409BAF"/>
      <rect x="217.21" y="104.71" width="1.31" height="0.68" fill="#55A7B5"/>
      <rect x="217.21" y="104.02" width="1.31" height="0.68" fill="#69B2BA"/>
      <rect x="217.21" y="103.34" width="1.31" height="0.68" fill="#7BBCC0"/>
      <rect x="217.21" y="102.66" width="1.31" height="0.68" fill="#8DC6C5"/>
      <rect x="217.21" y="101.97" width="1.31" height="0.68" fill="#9ED0CB"/>
      <rect x="217.21" y="101.29" width="1.31" height="0.68" fill="#A5CFC7"/>
      <rect x="217.21" y="100.61" width="1.31" height="0.68" fill="#ABCEC4"/>
      <rect x="217.21" y="99.93" width="1.31" height="0.68" fill="#B1CCC2"/>
      <rect x="217.21" y="99.24" width="1.31" height="0.68" fill="#B5CCC1"/>
      <rect x="217.21" y="98.56" width="1.31" height="0.68" fill="#B7CBBF"/>
      <rect x="217.21" y="97.88" width="1.31" height="0.68" fill="#B9CBBD"/>
      <rect x="217.21" y="97.19" width="1.31" height="0.68" fill="#BBCBBB"/>
      <rect x="217.21" y="96.51" width="1.31" height="0.68" fill="#BDCABA"/>
      <rect x="217.21" y="95.83" width="1.31" height="0.68" fill="#BFCAB8"/>
      <rect x="217.21" y="95.15" width="1.31" height="0.68" fill="#C2C9B7"/>
      <rect x="217.21" y="94.46" width="1.31" height="0.68" fill="#C4C9B6"/>
      <rect x="217.21" y="93.78" width="1.31" height="0.68" fill="#C6C8B5"/>
      <rect x="217.21" y="93.1" width="1.31" height="0.68" fill="#C9C7B4"/>
      <rect x="217.21" y="92.41" width="1.31" height="0.68" fill="#CCC7B2"/>
      <rect x="217.21" y="91.73" width="1.31" height="0.68" fill="#CFC6AE"/>
      <rect x="217.21" y="91.05" width="1.31" height="0.68" fill="#D4C5AA"/>
      <rect x="217.21" y="90.37" width="1.31" height="0.68" fill="#D8C3A6"/>
      <rect x="217.21" y="89.68" width="1.31" height="0.68" fill="#D3B79A"/>
      <rect x="217.21" y="89" width="1.31" height="0.68" fill="#CDAB8E"/>
      <rect x="217.21" y="88.32" width="1.31" height="0.68" fill="#C89E82"/>
      <rect x="217.21" y="87.64" width="1.31" height="0.68" fill="#C19177"/>
      <rect x="217.21" y="86.95" width="1.31" height="0.68" fill="#BA836C"/>
      <rect x="217.21" y="86.27" width="1.31" height="0.68" fill="#B27563"/>
      <rect x="217.21" y="85.59" width="1.31" height="0.68" fill="#AA665A"/>
      <rect x="217.21" y="84.9" width="1.31" height="0.68" fill="#A05752"/>
      <rect x="217.21" y="84.22" width="1.31" height="0.68" fill="#96484A"/>
      <rect x="217.21" y="83.54" width="1.31" height="0.68" fill="#8B3844"/>
      <rect x="217.21" y="82.86" width="1.31" height="0.68" fill="#7E273E"/>
      <g stroke="#FFFFFF" stroke-width="0.2" id="img-d1b7d9ba-5">
        <path fill="none" d="M217.21,110.17 L 218.52 110.17"/>
        <path fill="none" d="M217.21,82.86 L 218.52 82.86"/>
        <path fill="none" d="M217.21,96.86 L 218.52 96.86"/>
        <path fill="none" d="M217.21,103.86 L 218.52 103.86"/>
        <path fill="none" d="M217.21,89.86 L 218.52 89.86"/>
      </g>
    </g>
    <g fill="#362A35" font-size="3.88" font-family="'PT Sans','Helvetica Neue','Helvetica',sans-serif" stroke="#000000" stroke-opacity="0.000" id="img-d1b7d9ba-6">
      <text x="217.21" y="78.86">PCT</text>
    </g>
  </g>
<g clip-path="url(#img-d1b7d9ba-7)">
  <g id="img-d1b7d9ba-8">
    <g pointer-events="visible" opacity="1" fill="#000000" fill-opacity="0.000" stroke="#000000" stroke-opacity="0.000" class="guide background" id="img-d1b7d9ba-9">
      <rect x="5" y="18.83" width="210.21" height="140.14"/>
    </g>
    <g class="guide ygridlines xfixed" stroke-dasharray="0.5,0.5" stroke-width="0.2" stroke="#000000" stroke-opacity="0.000" id="img-d1b7d9ba-10">
      <path fill="none" d="M5,156.97 L 215.21 156.97"/>
      <path fill="none" d="M5,88.9 L 215.21 88.9"/>
      <path fill="none" d="M5,20.83 L 215.21 20.83"/>
    </g>
    <g class="guide xgridlines yfixed" stroke-dasharray="0.5,0.5" stroke-width="0.2" stroke="#000000" stroke-opacity="0.000" id="img-d1b7d9ba-11">
      <path fill="none" d="M7,18.83 L 7 158.97"/>
      <path fill="none" d="M75.74,18.83 L 75.74 158.97"/>
      <path fill="none" d="M144.47,18.83 L 144.47 158.97"/>
      <path fill="none" d="M213.21,18.83 L 213.21 158.97"/>
    </g>
    <g class="plotpanel" id="img-d1b7d9ba-12">
      <g class="geometry" stroke-width="0.3" id="img-d1b7d9ba-13">
        <path d="M77.85,56.4 L 78.28 56.2 79.12 55.99 79.27 55.36 79.5 54.78 80.37 54.89 80.22 54.19 80.26 53.6 80.16 52.89 79.28 52.57 79.81 52.08 80.17 51.16 79.82 50.46 80.33 50.23 80.65 50.33 80.9 49.68 80.56 49.1 80.61 48.28 81.6 48.35 81.75 48.05 81.85 47.32 82.52 46.99 82.22 46.64 81.47 46 81.92 45.07 82.56 45.14 83.35 44.55 84.22 44.09 84.11 43.51 84.17 43.11 85.07 42.73 85.04 42.6 84.98 42.33 84.53 41.95 83.91 41.19 84.39 40.85 84.48 39.9 84.91 39.55 85.5 39.02 85.06 38.32 85.01 38.29 84.18 37.74 84.33 37.38 85.27 37.47 85.81 36.83 85.08 36.4 85.18 35.87 85.86 35.81 86.13 35.78 86.24 35.26 85.81 34.65 86.03 34 85.77 33.46 87.25 33.35 88.12 33.25 89.75 33.07 92.76 32.91 94.34 32.79 94.43 32.79 94.55 32.78 98.21 32.5 98.26 32.5 98.54 32.48 102.94 32.17 103.84 32.07 103.88 32.07 104.01 31.27 103.64 30.09 103.4 29.38 104.12 29.34 106.1 29.38 106.1 29.84 108.02 29.62 108.66 29.55 108.66 29.55 112.22 29.18 112.36 29.17 115.04 28.88 115.69 28.81 118.69 28.48 119.29 28.41 121.19 28.17 121.74 28.29 121.88 28.32 122.38 28.05 123.56 28 126.07 27.88 127.57 27.81 128.87 27.75 130.11 27.7 131.14 27.62 131.83 27.56 134.79 27.33 135.41 27.21 137.1 26.9 137.17 26.89 137.34 26.87 139.53 26.68 141.01 26.63 141.38 26.62 143.32 26.53 143.32 26.53 143.4 26.53 146.79 26.22 149.68 25.93 150.09 25.89 150.09 25.89 152.99 25.57 152.99 25.57 153.68 25.51 154.13 25.47 156.6 25.22 156.74 24.92 159.2 24.62 161.57 24.33 165.1 23.89 166.96 23.66 169.63 23.27 171.1 23.05 173.43 22.73 174.04 22.64 174.88 22.53 175.22 22.48 177.77 22.11 177.86 21.76 179.02 21.61 181.19 21.33 180.88 21.74 180.73 22.56 180.94 23.59 180.6 24.48 180.76 24.82 181.11 25.56 180.34 25.63 179.55 25.65 178.75 26.47 178.66 26.71 178.52 27.08 178.29 27.68 177.69 29.37 177.11 29.74 177.11 29.74 176.54 29.84 176.3 29.38 175.4 29.16 175.3 29.26 174.81 29.73 174.41 29.7 173.85 30.06 173.16 30.65 173.09 30.82 172.66 31.91 172.19 32.35 171.64 32.86 170.95 32.64 171.03 31.84 170.88 31.69 170.55 31.35 169.47 32.18 168.86 32.66 168.85 33.28 168.56 33.75 167.97 33.47 167.59 33.73 167.4 33.87 167.65 34.64 167.29 35.41 167 35.94 166.88 36.16 166.02 36.2 165.45 36.45 164.69 36.75 164.32 37.38 163.64 37.62 163.63 37.64 163.55 37.83 163.25 38.57 162.63 38.61 161.82 39.47 161.46 39.65 160.98 40.33 159.88 40.41 159.07 40.49 158.96 40.52 157.63 40.77 156.78 41.54 156.03 42.34 155.61 42.6 155.54 42.64 155.38 42.74 154.87 43.5 155.11 44.02 154.78 44.42 155.06 45.19 155 45.25 154.25 46.04 153.26 46.26 152.65 45.9 152 46.63 152 46.95 151.97 50.29 149.66 50.58 148.27 50.74 146.96 50.9 146.37 50.97 145.94 51.02 145.31 51.1 143.88 51.27 143.84 51.28 143.04 51.37 140.32 51.71 140.17 51.73 139.1 51.87 138.84 51.91 137.74 52.02 136.12 52.18 132.91 52.49 127.37 53 127.27 53.01 125.43 53.2 121.52 53.57 121.52 53.57 120.86 53.62 116.21 53.96 116.14 53.96 116.05 53.97 111.31 54.33 111.07 54.35 108.26 54.56 106.61 54.7 106.42 54.71 103.9 54.89 103.96 55.07 103.24 55.13 101.93 55.23 101.72 55.25 100.61 55.33 96.68 55.65 96.23 55.68 93.82 55.86 93.7 55.87 91.57 56.03 89.65 56.18 88.63 56.25 86.03 56.42 85.04 56.48 84.6 56.51 84.16 56.54 77.77 56.91 77.85 56.4 z" fill="#B7CBBF" stroke="#FFFFFF"/>
        <path d="M64.1,114.35 L 64.85 114.41 65.55 113.92 65.16 113.23 65.18 112.45 65.43 111.7 65.3 110.8 65.63 110.24 66.29 110.03 66.01 109.41 65.9 108.92 66.77 108.52 66.89 107.17 66.9 107.17 67.69 106.94 67.66 106.9 67.12 106.15 67.26 105.48 67.99 105.58 68.56 105.01 68.67 104.89 69.33 104.2 69.34 103.4 70.11 103.15 70.55 102.57 70.55 102.16 71.08 101.37 71.01 101.26 70.05 99.79 71.55 99.61 72.05 98.54 72.35 97.64 71.5 97.53 71.71 96.41 70.58 96.26 70.42 95.15 71.05 95.05 70.52 94.22 70.52 94.21 70.44 94.14 70.11 93.82 69.79 92.55 70.3 91.91 69.56 91.73 68.97 91.21 68.89 90.66 69.17 90.09 69.99 89.45 69.94 88.7 69.11 88.1 68.68 87.76 68.76 87.65 69.23 86.96 68.42 86.34 68.75 85.76 69.37 85.78 69.59 85.02 69.74 84.22 69.49 83.62 68.98 83.54 68.72 82.51 69.04 81.82 68.59 81.33 68.25 80.81 68.01 80.35 67.65 79.82 67.76 79.54 67.95 79.09 68.66 78.52 68.02 77.94 68.99 77.75 69.28 76.92 68.39 76.46 68.77 76.03 69.1 75.98 69.85 76.14 69.84 75.49 69.47 75.24 69.32 74.43 69.74 73.94 69.59 73.41 68.91 73.17 69.4 72.79 69.95 72.88 70.25 72.51 70.7 72.22 71.33 72.05 71.52 71.35 71.16 71.03 70.58 70.83 70.6 70.72 70.6 70.67 70.66 70.23 71.19 70.01 71.32 69.65 71.14 69.05 71.81 68.84 72.12 68.16 72.86 67.97 72.66 67.16 73.1 66.81 73.98 67.2 74.18 66.45 74.98 65.93 74.84 65.27 74.96 64.26 75.17 63.59 74.65 62.89 74.81 62.61 75.07 62.14 75.09 61.55 75.54 60.57 75.92 60.18 76 59.47 76.69 59.43 76.77 59.42 77.84 58.8 77.86 58.78 78.59 58.21 78.63 57.75 77.77 56.91 84.16 56.54 84.6 56.51 85.04 56.48 86.03 56.42 88.63 56.25 89.65 56.18 91.57 56.03 93.7 55.87 93.82 55.86 96.23 55.68 96.68 55.65 100.61 55.33 101.72 55.25 101.93 55.23 103.24 55.13 103.96 55.07 104.61 56.14 105.35 56.54 105.25 60.67 105.23 61.29 105.19 63.11 105.14 65.28 105.06 68.87 105.05 69.3 104.92 74.09 104.9 74.8 104.86 77.32 104.78 81.07 104.75 82.66 104.7 85.61 104.68 86.56 104.62 89.87 104.58 91.91 104.5 96.02 104.48 96.91 104.47 97.26 104.4 99.92 104.35 101.75 104.39 102.34 104.52 103.9 104.7 105.3 104.84 106.45 105.2 109.24 105.23 109.46 105.81 114.08 106.03 115.83 106.53 119.78 106.54 119.83 106.88 122.67 107.21 125.28 107.04 125.71 106.56 125.66 106.26 126.1 105.57 125.85 104.79 126.05 104.36 125.74 103.68 125.66 103.22 125.98 102.6 125.97 101.89 125.87 101.64 125.84 100.62 125.42 99.6 125.54 98.16 125.98 96.83 126.64 95.44 127.09 95.28 127.16 94.8 127.36 93.79 128.15 93.54 128.78 93.18 129.01 92.55 129.22 91.41 128.74 90.97 127.39 90.28 125.83 89.95 125.25 89.77 124.9 88.65 123.86 88.16 122.48 88.08 122.11 87.89 121.24 88.38 119.8 88.83 118.36 89.03 116.99 89.03 116.99 87.62 117.09 86.82 117.14 82.09 117.45 80.96 117.53 80.95 117.53 78.33 117.68 78.07 117.7 75.57 117.84 74.69 117.89 71.63 118.06 70.11 118.14 69.49 118.17 64.09 118.42 64.2 118.33 65.05 117.62 64.58 117 64.19 116.33 64.55 115.48 64.56 115.45 63.83 114.87 64.1 114.35 z" fill="#9B4F4E" stroke="#FFFFFF"/>
        <path d="M23.86,35.97 L 26.99 35.92 30.46 35.87 31.9 35.84 33.02 35.81 35.06 35.76 36.47 35.73 38.39 35.69 39.75 35.65 40.02 35.65 42.06 35.59 45.38 35.49 45.56 35.48 46.37 35.45 48.91 35.36 49.34 35.35 51.52 35.27 53.96 35.17 54.32 35.16 55.96 35.08 59.78 34.91 60.14 34.89 62.49 34.81 63.02 34.79 63.04 34.79 66.43 34.61 67.76 34.54 70.6 34.38 70.83 34.37 73.14 34.24 74.13 34.18 77.47 34.02 78.29 33.98 78.47 34.51 78.64 35.19 79.46 35.58 79.52 36.02 79.57 36.84 78.98 37.45 78.53 38.27 78.13 38.52 77.77 38.76 77.62 39.46 76.93 39.91 76.44 40.94 76.12 41.74 77.1 41.68 79.37 41.51 81.14 41.39 81.85 41.34 83.91 41.19 84.53 41.95 84.98 42.33 85.04 42.6 85.07 42.73 84.17 43.11 84.11 43.51 84.22 44.09 83.35 44.55 82.56 45.14 81.92 45.07 81.47 46 82.22 46.64 82.52 46.99 81.85 47.32 81.75 48.05 81.6 48.35 80.61 48.28 80.56 49.1 80.9 49.68 80.65 50.33 80.33 50.23 79.82 50.46 80.17 51.16 79.81 52.08 79.28 52.57 80.16 52.89 80.26 53.6 80.22 54.19 80.37 54.89 79.5 54.78 79.27 55.36 79.12 55.99 78.28 56.2 77.85 56.4 77.77 56.91 78.63 57.75 78.59 58.21 77.86 58.78 77.84 58.8 76.77 59.42 76.69 59.43 76 59.47 75.92 60.18 75.54 60.57 75.09 61.55 75.07 62.14 74.81 62.61 74.65 62.89 75.17 63.59 74.96 64.26 74.84 65.27 74.98 65.93 74.18 66.45 73.98 67.2 73.1 66.81 72.66 67.16 72.86 67.97 72.12 68.16 71.81 68.84 71.14 69.05 71.32 69.65 71.19 70.01 70.66 70.23 70.6 70.67 70.6 70.72 70.58 70.83 71.16 71.03 71.52 71.35 71.33 72.05 70.7 72.22 70.25 72.51 69.95 72.88 69.4 72.79 68.91 73.17 69.59 73.41 69.74 73.94 69.32 74.43 69.47 75.24 69.84 75.49 69.85 76.14 69.1 75.98 68.77 76.03 68.39 76.46 69.28 76.92 68.99 77.75 68.02 77.94 68.66 78.52 67.95 79.09 67.76 79.54 67.65 79.82 68.01 80.35 68.25 80.81 68.59 81.33 69.04 81.82 68.72 82.51 68.98 83.54 69.49 83.62 69.74 84.22 69.59 85.02 69.37 85.78 68.75 85.76 68.42 86.34 69.23 86.96 68.76 87.65 68.68 87.76 67.43 87.81 65.24 87.9 64.93 87.91 64.56 87.93 59.64 88.13 57.17 88.22 57.16 88.22 55.2 88.29 51.65 88.38 48.81 88.44 48.8 88.44 45.65 88.5 45.43 88.51 42.77 88.58 42.24 88.59 40.47 88.64 39.03 88.67 38.64 88.68 36.06 88.74 35.01 88.76 34.89 88.76 31.98 88.83 31.94 86.69 31.9 85 31.88 84.1 31.85 82.5 31.8 80.74 31.8 80.74 31.43 80.43 30.53 80.37 30.02 80.16 29.64 80.49 29.32 80.4 28.5 80.61 28.06 80.57 27.86 80.74 27.43 80.61 27.04 80.44 26.17 79.53 26.19 77.23 26.21 74.92 26.22 73.72 26.24 71.13 26.25 68.55 26.27 66.29 26.28 64.35 26.3 62.92 26.33 60.46 26.33 59.8 26.36 57.84 26.4 54.59 26.42 53.16 26.39 52.9 26.37 52.8 26.17 51.23 25.84 49.07 25.57 47.23 25.55 47.1 25.03 43.76 24.76 42.02 24.62 41.11 24.29 39.01 23.86 35.97 z" fill="#B5CCC2" stroke="#FFFFFF"/>
        <path d="M104.39,102.34 L 104.35 101.75 104.4 99.92 104.47 97.26 104.48 96.91 104.5 96.02 104.58 91.91 104.62 89.87 104.68 86.56 104.7 85.61 104.75 82.66 104.78 81.07 104.86 77.32 104.9 74.8 104.92 74.09 105.05 69.3 105.06 68.87 105.14 65.28 105.19 63.11 105.23 61.29 105.25 60.67 105.35 56.54 104.61 56.14 103.96 55.07 103.9 54.89 106.42 54.71 106.61 54.7 108.26 54.56 111.07 54.35 111.31 54.33 116.05 53.97 116.14 53.96 116.21 53.96 120.86 53.62 121.52 53.57 121.52 53.57 125.43 53.2 127.27 53.01 127.37 53 132.91 52.49 136.12 52.18 136.34 53.08 136.6 54.03 137.05 55.67 137.6 57.55 137.75 58.07 138.04 59.03 138.25 59.76 138.81 61.71 139.06 62.56 139.76 64.95 139.94 65.61 140.41 67.34 140.41 67.34 140.67 68.27 141.23 70.25 141.71 71.96 142.23 73.79 142.42 74.48 142.65 75.3 143.9 79.72 143.99 80.04 143.99 80.04 144.99 83.57 145.02 83.7 145.38 84.18 145.98 85.26 146.15 85.57 146.6 86.63 146.85 87.36 146.97 87.73 147.87 88.53 147.97 88.73 148 88.77 148.47 89.7 148.46 90.67 148.46 90.92 148.19 91.35 148.92 91.74 149.81 92.29 149.51 92.82 149.4 93.01 148.59 93.62 147.9 94.45 148.13 95.17 148.12 95.55 148.09 96.63 148.08 97.01 147.61 98.19 147.35 99.05 147.62 99.92 147.7 100.17 147.83 100.62 147.81 101.19 148.81 102.22 148.9 102.96 149.16 103.33 149.07 103.73 148.91 104.53 149.04 105.08 148.82 106.15 148.95 106.76 148.96 106.96 148.98 107.16 148.8 107.74 148.94 108.82 150.01 109.89 150.25 110.36 150.42 110.68 150.63 111.46 150.25 111.5 148.76 111.67 146.33 111.97 144.31 112.21 144.19 112.23 143.13 112.36 140.92 112.62 139.05 112.85 137.2 113.04 135.22 113.24 132.91 113.47 132.6 113.5 130.32 113.72 128.69 113.86 127.42 113.97 126.82 114.02 125.57 114.14 122.51 114.4 122.5 114.4 120.56 114.59 119.08 114.73 117.86 114.85 116.82 114.94 116.82 114.94 116.97 115.62 116.53 116.96 117.87 118.34 118.16 118.76 119.28 119.35 119.88 119.84 119.94 120.63 119.62 121.49 119.51 122.14 119.97 122.87 120.63 123.12 119.82 123.7 119.63 124.61 118.85 125.65 117.07 126.27 114.97 126.78 113.97 126.7 115.06 125.99 115.13 125.31 114.16 124.49 113.43 123.6 113.12 123 113.46 122.01 113.24 121.5 112.94 120.51 111.88 120.11 111.23 120.77 111.27 121.63 111.1 122.28 110.87 122.99 110.97 124.48 110.67 125.74 109.89 125.79 109.07 125.89 108.3 125.2 107.59 124.97 107.21 125.28 106.88 122.67 106.54 119.83 106.53 119.78 106.03 115.83 105.81 114.08 105.23 109.46 105.2 109.24 104.84 106.45 104.7 105.3 104.52 103.9 104.39 102.34 z" fill="#CEC6AF" stroke="#FFFFFF"/>
        <path d="M32.08,93.78 L 32.05 92.2 32.02 90.93 31.98 88.83 34.89 88.76 35.01 88.76 36.06 88.74 38.64 88.68 39.03 88.67 40.47 88.64 42.24 88.59 42.77 88.58 45.43 88.51 45.65 88.5 48.8 88.44 48.81 88.44 51.65 88.38 55.2 88.29 57.16 88.22 57.17 88.22 59.64 88.13 64.56 87.93 64.93 87.91 65.24 87.9 67.43 87.81 68.68 87.76 69.11 88.1 69.94 88.7 69.99 89.45 69.17 90.09 68.89 90.66 68.97 91.21 69.56 91.73 70.3 91.91 69.79 92.55 70.11 93.82 70.44 94.14 70.52 94.21 70.52 94.22 71.05 95.05 70.42 95.15 70.58 96.26 71.71 96.41 71.5 97.53 72.35 97.64 72.05 98.54 71.55 99.61 70.05 99.79 71.01 101.26 71.08 101.37 70.55 102.16 70.55 102.57 70.11 103.15 69.34 103.4 69.33 104.2 68.67 104.89 68.56 105.01 67.99 105.58 67.26 105.48 67.12 106.15 67.66 106.9 67.69 106.94 66.9 107.17 66.89 107.17 66.77 108.52 65.9 108.92 66.01 109.41 66.29 110.03 65.63 110.24 65.3 110.8 65.43 111.7 65.18 112.45 65.16 113.23 65.55 113.92 64.85 114.41 64.1 114.35 63.83 114.87 64.56 115.45 64.55 115.48 64.19 116.33 64.58 117 65.05 117.62 64.2 118.33 64.09 118.42 69.49 118.17 70.11 118.14 71.63 118.06 74.69 117.89 75.57 117.84 78.07 117.7 78.33 117.68 80.95 117.53 80.96 117.53 82.09 117.45 86.82 117.14 87.62 117.09 89.03 116.99 89.03 116.99 88.83 118.36 88.38 119.8 87.89 121.24 88.08 122.11 88.16 122.48 88.65 123.86 89.77 124.9 89.95 125.25 90.28 125.83 90.97 127.39 91.41 128.74 92.55 129.22 91.52 129.86 90.86 130.27 90.55 130.94 89.28 131.48 88.48 131.94 88.48 131.97 88.44 132.94 89.21 133.17 89.91 133.38 90.52 133.99 91.25 134.1 91.88 133.79 92.09 132.23 93.09 131.3 93.72 130.95 95.08 130.88 95.56 130.36 96.44 129.64 97.08 129.38 97.14 130.67 96.82 131.76 96.69 132.8 96.68 133.53 96 134.7 96.35 135.38 94.63 135.28 94.66 136.63 93.88 137.13 93.43 137.44 93.38 137.47 92.96 137.25 92.11 137.88 92.67 138.85 92.66 139.6 93.22 140.46 93.91 140.85 95.29 140.97 96.2 140.96 96.97 141.68 97.73 141.52 98.68 142.43 98.98 143.31 100.2 143.29 100.41 144.01 99.79 145.2 99.15 145.5 98.76 146.2 98.88 146.77 97.84 146.37 97.25 145.87 96.47 146.66 95.49 147.88 95.37 146.63 95.88 145.77 95.43 145.01 94.84 144.67 94.1 143.72 92.98 143.38 92.41 143.28 91.93 142.73 90.77 142.6 89.2 142.48 88.67 142.69 88.42 142.92 87.74 143.56 86.45 144.69 86.05 145.01 85.63 145.34 84.34 146.31 82.87 146.72 81.87 146.86 81.43 146.92 80.82 146.92 78.63 147.06 77.36 147.39 76.5 147.41 75.74 147.24 75.57 146.51 74.67 145.69 73.88 145.63 72.61 145.42 71.73 145 70.1 144.64 69.31 143.9 70.07 143.4 70.19 142.92 70.18 142.92 69.25 142.51 68.83 142.09 69.03 141.72 68.37 140.95 67.5 141.41 67.16 140.98 66.53 140.52 66.42 140.01 66.34 139.58 65.54 139.06 64.96 139.1 65.17 138.05 64.57 137.37 63.63 137.36 62.71 137.77 62.13 138.13 62.02 138.67 61.91 139.28 62.85 139.71 64.1 140.06 63.4 141.29 62.7 141.56 61.42 140.95 59.86 140.19 59.68 140.13 59.39 140.02 58.14 140.13 56.93 140.81 55.98 140.97 54.82 140.77 53.96 140.6 52.7 140.4 52.03 140.25 51.13 140.04 48.49 138.99 46.97 138.38 45.69 138.04 44.5 137.75 42.93 137.73 41.4 137.88 39.7 137.99 37.01 138.46 36.26 138.8 35.75 139.18 35.4 138.69 35.02 138.13 34.5 137.51 35.24 136.76 35.5 136.45 35.78 136.1 36.06 135.19 36.92 134.16 37.37 133.68 37.4 133.65 37.4 132.77 37.36 131.84 37.21 131.07 37.24 130.79 37.28 130.31 36.55 129.5 36.73 128.48 36.82 128.4 37.28 127.97 37.15 126.82 36.89 126.24 37.46 125.51 37.44 125.02 38.14 124.17 38.28 123.28 38.89 122.29 39 121.28 39.05 121.16 39.34 120.44 39.08 119.8 39.2 119.17 39.29 118.51 39.14 117.35 39.19 116.49 38.96 116.5 38.33 116.55 38.31 116.56 38.13 115.4 37.31 114.78 37.38 113.66 36.97 112.86 36.28 112.27 36.58 111.72 35.77 111.39 35.13 110.51 35.13 110.51 35.35 109.96 35.5 108.77 34.82 107.2 34.48 106.61 34.06 105.88 33.17 105.4 32.48 104.6 32.32 104.41 32.26 102.21 32.24 101.33 32.19 98.78 32.18 98.35 32.12 95.74 32.08 93.78 z" fill="#C4987C" stroke="#FFFFFF"/>
      </g>
    </g>
    <g class="geometry" id="img-d1b7d9ba-14">
      <g stroke-dasharray="0.5,0.5" stroke-width="0.1" stroke="#808080" id="img-d1b7d9ba-15">
        <path fill="none" d="M-48.54,193.8 L -20.78 194.67 7 194.96 34.78 194.67 62.54 193.8 90.28 192.35 117.98 190.33 145.63 187.73 173.22 184.55 200.74 180.8 228.17 176.48 255.5 171.58"/>
        <path fill="none" d="M-47.9,178.85 L -20.46 179.7 7 179.99 34.46 179.7 61.9 178.85 89.32 177.42 116.71 175.41 144.04 172.84 171.32 169.7 198.52 165.99 225.64 161.72 252.66 156.88"/>
        <path fill="none" d="M-47.26,163.85 L -20.14 164.69 7 164.98 34.14 164.69 61.26 163.85 88.37 162.43 115.43 160.45 142.45 157.91 169.41 154.81 196.3 151.14 223.1 146.92 249.8 142.14"/>
        <path fill="none" d="M-46.62,148.81 L -19.82 149.64 7 149.92 33.82 149.64 60.62 148.81 87.41 147.41 114.15 145.46 140.85 142.94 167.49 139.88 194.06 136.25 220.55 132.08 246.94 127.35"/>
        <path fill="none" d="M-45.98,133.73 L -19.5 134.56 7 134.83 33.5 134.56 59.98 133.73 86.45 132.35 112.87 130.42 139.25 127.94 165.58 124.91 191.83 121.33 218 117.2 244.07 112.53"/>
        <path fill="none" d="M-45.34,118.62 L -19.18 119.44 7 119.71 33.18 119.44 59.34 118.62 85.48 117.26 111.59 115.35 137.65 112.9 163.65 109.9 189.59 106.37 215.44 102.29 241.2 97.68"/>
        <path fill="none" d="M-44.7,103.48 L -18.85 104.29 7 104.56 32.85 104.29 58.7 103.48 84.52 102.13 110.3 100.25 136.04 97.83 161.73 94.87 187.34 91.38 212.87 87.35 238.32 82.8"/>
        <path fill="none" d="M-44.05,88.31 L -18.53 89.11 7 89.38 32.53 89.11 58.05 88.31 83.55 86.98 109.01 85.12 134.43 82.73 159.79 79.81 185.09 76.36 210.31 72.39 235.43 67.89"/>
        <path fill="none" d="M-43.41,73.12 L -18.21 73.91 7 74.17 32.21 73.91 57.41 73.12 82.58 71.81 107.72 69.97 132.82 67.61 157.86 64.73 182.84 61.32 207.73 57.4 232.54 52.96"/>
        <path fill="none" d="M-42.76,57.91 L -17.89 58.69 7 58.95 31.89 58.69 56.76 57.91 81.61 56.61 106.43 54.8 131.21 52.47 155.93 49.62 180.58 46.26 205.16 42.39 229.65 38"/>
        <path fill="none" d="M-42.11,42.69 L -17.56 43.45 7 43.71 31.56 43.45 56.11 42.69 80.64 41.41 105.14 39.62 129.59 37.32 153.99 34.51 178.32 31.19 202.58 27.37 226.75 23.04"/>
        <path fill="none" d="M-41.46,27.45 L -17.24 28.21 7 28.46 31.24 28.21 55.46 27.45 79.67 26.19 103.84 24.42 127.97 22.15 152.05 19.38 176.06 16.1 200 12.33 223.85 8.06"/>
        <path fill="none" d="M-40.82,12.21 L -16.91 12.95 7 13.2 30.91 12.95 54.82 12.21 78.7 10.96 102.55 9.22 126.35 6.98 150.11 4.24 173.8 1.01 197.42 -2.71 220.95 -6.92"/>
        <path fill="none" d="M-40.17,-3.04 L -16.59 -2.3 7 -2.06 30.59 -2.3 54.17 -3.04 77.72 -4.27 101.25 -5.99 124.74 -8.2 148.17 -10.89 171.54 -14.08 194.83 -17.75 218.05 -21.91"/>
        <path fill="none" d="M-39.52,-18.28 L -16.26 -17.56 7 -17.31 30.26 -17.56 53.52 -18.28 76.75 -19.49 99.96 -21.19 123.12 -23.37 146.23 -26.03 169.28 -29.17 192.25 -32.79 215.15 -36.89"/>
        <path fill="none" d="M215.15,-36.89 L 218.05 -21.91 220.95 -6.92 223.85 8.06 226.75 23.04 229.65 38 232.54 52.96 235.43 67.89 238.32 82.8 241.2 97.68 244.07 112.53 246.94 127.35 249.8 142.14 252.66 156.88 255.5 171.58"/>
        <path fill="none" d="M192.25,-32.79 L 194.83 -17.75 197.42 -2.71 200 12.33 202.58 27.37 205.16 42.39 207.73 57.4 210.31 72.39 212.87 87.35 215.44 102.29 218 117.2 220.55 132.08 223.1 146.92 225.64 161.72 228.17 176.48"/>
        <path fill="none" d="M169.28,-29.17 L 171.54 -14.08 173.8 1.01 176.06 16.1 178.32 31.19 180.58 46.26 182.84 61.32 185.09 76.36 187.34 91.38 189.59 106.37 191.83 121.33 194.06 136.25 196.3 151.14 198.52 165.99 200.74 180.8"/>
        <path fill="none" d="M146.23,-26.03 L 148.17 -10.89 150.11 4.24 152.05 19.38 153.99 34.51 155.93 49.62 157.86 64.73 159.79 79.81 161.73 94.87 163.65 109.9 165.58 124.91 167.49 139.88 169.41 154.81 171.32 169.7 173.22 184.55"/>
        <path fill="none" d="M123.12,-23.37 L 124.74 -8.2 126.35 6.98 127.97 22.15 129.59 37.32 131.21 52.47 132.82 67.61 134.43 82.73 136.04 97.83 137.65 112.9 139.25 127.94 140.85 142.94 142.45 157.91 144.04 172.84 145.63 187.73"/>
        <path fill="none" d="M99.96,-21.19 L 101.25 -5.99 102.55 9.22 103.84 24.42 105.14 39.62 106.43 54.8 107.72 69.97 109.01 85.12 110.3 100.25 111.59 115.35 112.87 130.42 114.15 145.46 115.43 160.45 116.71 175.41 117.98 190.33"/>
        <path fill="none" d="M76.75,-19.49 L 77.72 -4.27 78.7 10.96 79.67 26.19 80.64 41.41 81.61 56.61 82.58 71.81 83.55 86.98 84.52 102.13 85.48 117.26 86.45 132.35 87.41 147.41 88.37 162.43 89.32 177.42 90.28 192.35"/>
        <path fill="none" d="M53.52,-18.28 L 54.17 -3.04 54.82 12.21 55.46 27.45 56.11 42.69 56.76 57.91 57.41 73.12 58.05 88.31 58.7 103.48 59.34 118.62 59.98 133.73 60.62 148.81 61.26 163.85 61.9 178.85 62.54 193.8"/>
        <path fill="none" d="M30.26,-17.56 L 30.59 -2.3 30.91 12.95 31.24 28.21 31.56 43.45 31.89 58.69 32.21 73.91 32.53 89.11 32.85 104.29 33.18 119.44 33.5 134.56 33.82 149.64 34.14 164.69 34.46 179.7 34.78 194.67"/>
        <path fill="none" d="M7,-17.31 L 7 -2.06 7 13.2 7 28.46 7 43.71 7 58.95 7 74.17 7 89.38 7 104.56 7 119.71 7 134.83 7 149.92 7 164.98 7 179.99 7 194.96"/>
        <path fill="none" d="M-16.26,-17.56 L -16.59 -2.3 -16.91 12.95 -17.24 28.21 -17.56 43.45 -17.89 58.69 -18.21 73.91 -18.53 89.11 -18.85 104.29 -19.18 119.44 -19.5 134.56 -19.82 149.64 -20.14 164.69 -20.46 179.7 -20.78 194.67"/>
        <path fill="none" d="M-39.52,-18.28 L -40.17 -3.04 -40.82 12.21 -41.46 27.45 -42.11 42.69 -42.76 57.91 -43.41 73.12 -44.05 88.31 -44.7 103.48 -45.34 118.62 -45.98 133.73 -46.62 148.81 -47.26 163.85 -47.9 178.85 -48.54 193.8"/>
        <g font-size="3.18" fill="#808080" id="img-d1b7d9ba-16">
          <text x="7" y="194.96" dy="0.35em">26</text>
          <text x="7" y="179.99" dy="0.35em">27</text>
          <text x="7" y="164.98" dy="0.35em">28</text>
          <text x="7" y="149.92" dy="0.35em">29</text>
          <text x="7" y="134.83" dy="0.35em">30</text>
          <text x="7" y="119.71" dy="0.35em">31</text>
          <text x="7" y="104.56" dy="0.35em">32</text>
          <text x="7" y="89.38" dy="0.35em">33</text>
          <text x="7" y="74.17" dy="0.35em">34</text>
          <text x="7" y="58.95" dy="0.35em">35</text>
          <text x="7" y="43.71" dy="0.35em">36</text>
          <text x="7" y="28.46" dy="0.35em">37</text>
          <text x="7" y="13.2" dy="0.35em">38</text>
          <text x="7" y="-2.06" dy="0.35em">39</text>
          <text x="7" y="-17.31" dy="0.35em">40</text>
          <text x="246.94" y="127.35" text-anchor="middle" dy="0.6em">-78</text>
          <text x="220.55" y="132.08" text-anchor="middle" dy="0.6em">-80</text>
          <text x="194.06" y="136.25" text-anchor="middle" dy="0.6em">-82</text>
          <text x="167.49" y="139.88" text-anchor="middle" dy="0.6em">-84</text>
          <text x="140.85" y="142.94" text-anchor="middle" dy="0.6em">-86</text>
          <text x="114.15" y="145.46" text-anchor="middle" dy="0.6em">-88</text>
          <text x="87.41" y="147.41" text-anchor="middle" dy="0.6em">-90</text>
          <text x="60.62" y="148.81" text-anchor="middle" dy="0.6em">-92</text>
          <text x="33.82" y="149.64" text-anchor="middle" dy="0.6em">-94</text>
          <text x="7" y="149.92" text-anchor="middle" dy="0.6em">-96</text>
          <text x="-19.82" y="149.64" text-anchor="middle" dy="0.6em">-98</text>
          <text x="-46.62" y="148.81" text-anchor="middle" dy="0.6em">-100</text>
        </g>
      </g>
    </g>
  </g>
</g>
</g>
<defs>
  <clipPath id="img-d1b7d9ba-7">
  <path d="M5,18.83 L 215.21 18.83 215.21 158.97 5 158.97" />
</clipPath>
</defs>
</svg>
