<?xml version="1.0" encoding="UTF-8"?>
<svg xmlns="http://www.w3.org/2000/svg"
     xmlns:xlink="http://www.w3.org/1999/xlink"
     xmlns:gadfly="http://www.gadflyjl.org/ns"
     version="1.2"
     width="177.8mm" height="177.8mm" viewBox="0 0 177.8 177.8"
     stroke="none"
     fill="#000000"
     stroke-width="0.3"
     font-size="3.88"
>
<g class="plotroot xscalable yscalable" id="img-7f06ef01-1">
  <g class="guide colorkey" id="img-7f06ef01-2">
    <g font-size="2.82" font-family="'PT Sans','Helvetica Neue','Helvetica',sans-serif" fill="#4C404B" id="img-7f06ef01-3">
      <text x="148.06" y="102.38" dy="0.35em">2×10¹⁰</text>
      <text x="148.06" y="96.51" dy="0.35em">3×10¹⁰</text>
      <text x="148.06" y="114.11" dy="0.35em">1×10⁰</text>
      <text x="148.06" y="78.92" dy="0.35em">6×10¹⁰</text>
      <text x="148.06" y="84.78" dy="0.35em">5×10¹⁰</text>
      <text x="148.06" y="108.24" dy="0.35em">1×10¹⁰</text>
      <text x="148.06" y="90.65" dy="0.35em">4×10¹⁰</text>
    </g>
    <g shape-rendering="crispEdges" stroke="#000000" stroke-opacity="0.000" id="img-7f06ef01-4">
      <rect x="145.75" y="113.23" width="1.31" height="0.88" fill="#004D84"/>
      <rect x="145.75" y="112.35" width="1.31" height="0.88" fill="#005B8D"/>
      <rect x="145.75" y="111.47" width="1.31" height="0.88" fill="#006995"/>
      <rect x="145.75" y="110.59" width="1.31" height="0.88" fill="#00769D"/>
      <rect x="145.75" y="109.71" width="1.31" height="0.88" fill="#0083A3"/>
      <rect x="145.75" y="108.83" width="1.31" height="0.88" fill="#278FA9"/>
      <rect x="145.75" y="107.95" width="1.31" height="0.88" fill="#409BAF"/>
      <rect x="145.75" y="107.07" width="1.31" height="0.88" fill="#55A7B5"/>
      <rect x="145.75" y="106.19" width="1.31" height="0.88" fill="#69B2BA"/>
      <rect x="145.75" y="105.31" width="1.31" height="0.88" fill="#7BBCC0"/>
      <rect x="145.75" y="104.43" width="1.31" height="0.88" fill="#8DC6C5"/>
      <rect x="145.75" y="103.55" width="1.31" height="0.88" fill="#9ED0CB"/>
      <rect x="145.75" y="102.67" width="1.31" height="0.88" fill="#A5CFC7"/>
      <rect x="145.75" y="101.79" width="1.31" height="0.88" fill="#ABCEC4"/>
      <rect x="145.75" y="100.91" width="1.31" height="0.88" fill="#B1CCC2"/>
      <rect x="145.75" y="100.03" width="1.31" height="0.88" fill="#B5CCC1"/>
      <rect x="145.75" y="99.15" width="1.31" height="0.88" fill="#B7CBBF"/>
      <rect x="145.75" y="98.27" width="1.31" height="0.88" fill="#B9CBBD"/>
      <rect x="145.75" y="97.39" width="1.31" height="0.88" fill="#BBCBBB"/>
      <rect x="145.75" y="96.51" width="1.31" height="0.88" fill="#BDCABA"/>
      <rect x="145.75" y="95.63" width="1.31" height="0.88" fill="#BFCAB8"/>
      <rect x="145.75" y="94.75" width="1.31" height="0.88" fill="#C2C9B7"/>
      <rect x="145.75" y="93.87" width="1.31" height="0.88" fill="#C4C9B6"/>
      <rect x="145.75" y="92.99" width="1.31" height="0.88" fill="#C6C8B5"/>
      <rect x="145.75" y="92.11" width="1.31" height="0.88" fill="#C9C7B4"/>
      <rect x="145.75" y="91.23" width="1.31" height="0.88" fill="#CCC7B2"/>
      <rect x="145.75" y="90.35" width="1.31" height="0.88" fill="#CFC6AE"/>
      <rect x="145.75" y="89.47" width="1.31" height="0.88" fill="#D4C5AA"/>
      <rect x="145.75" y="88.59" width="1.31" height="0.88" fill="#D8C3A6"/>
      <rect x="145.75" y="87.71" width="1.31" height="0.88" fill="#D3B79A"/>
      <rect x="145.75" y="86.83" width="1.31" height="0.88" fill="#CDAB8E"/>
      <rect x="145.75" y="85.95" width="1.31" height="0.88" fill="#C89E82"/>
      <rect x="145.75" y="85.07" width="1.31" height="0.88" fill="#C19177"/>
      <rect x="145.75" y="84.19" width="1.31" height="0.88" fill="#BA836C"/>
      <rect x="145.75" y="83.31" width="1.31" height="0.88" fill="#B27563"/>
      <rect x="145.75" y="82.43" width="1.31" height="0.88" fill="#AA665A"/>
      <rect x="145.75" y="81.56" width="1.31" height="0.88" fill="#A05752"/>
      <rect x="145.75" y="80.68" width="1.31" height="0.88" fill="#96484A"/>
      <rect x="145.75" y="79.8" width="1.31" height="0.88" fill="#8B3844"/>
      <rect x="145.75" y="78.92" width="1.31" height="0.88" fill="#7E273E"/>
      <g stroke="#FFFFFF" stroke-width="0.2" id="img-7f06ef01-5">
        <path fill="none" d="M145.75,102.38 L 147.06 102.38"/>
        <path fill="none" d="M145.75,96.51 L 147.06 96.51"/>
        <path fill="none" d="M145.75,114.11 L 147.06 114.11"/>
        <path fill="none" d="M145.75,78.92 L 147.06 78.92"/>
        <path fill="none" d="M145.75,84.78 L 147.06 84.78"/>
        <path fill="none" d="M145.75,108.24 L 147.06 108.24"/>
        <path fill="none" d="M145.75,90.65 L 147.06 90.65"/>
      </g>
    </g>
    <g fill="#362A35" font-size="3.88" font-family="'PT Sans','Helvetica Neue','Helvetica',sans-serif" stroke="#000000" stroke-opacity="0.000" id="img-7f06ef01-6">
      <text x="145.75" y="74.92">ALAND</text>
    </g>
  </g>
<g clip-path="url(#img-7f06ef01-7)">
  <g id="img-7f06ef01-8">
    <g pointer-events="visible" opacity="1" fill="#000000" fill-opacity="0.000" stroke="#000000" stroke-opacity="0.000" class="guide background" id="img-7f06ef01-9">
      <rect x="17.9" y="5" width="125.85" height="167.8"/>
    </g>
    <g class="guide ygridlines xfixed" stroke-dasharray="0.5,0.5" stroke-width="0.2" stroke="#000000" stroke-opacity="0.000" id="img-7f06ef01-10">
      <path fill="none" d="M17.9,170.8 L 143.75 170.8"/>
      <path fill="none" d="M17.9,129.85 L 143.75 129.85"/>
      <path fill="none" d="M17.9,88.9 L 143.75 88.9"/>
      <path fill="none" d="M17.9,47.95 L 143.75 47.95"/>
      <path fill="none" d="M17.9,7 L 143.75 7"/>
    </g>
    <g class="guide xgridlines yfixed" stroke-dasharray="0.5,0.5" stroke-width="0.2" stroke="#000000" stroke-opacity="0.000" id="img-7f06ef01-11">
      <path fill="none" d="M19.9,5 L 19.9 172.8"/>
      <path fill="none" d="M60.51,5 L 60.51 172.8"/>
      <path fill="none" d="M101.13,5 L 101.13 172.8"/>
      <path fill="none" d="M141.75,5 L 141.75 172.8"/>
    </g>
    <g class="plotpanel" id="img-7f06ef01-12">
      <g class="geometry" stroke-width="0.3" id="img-7f06ef01-13">
        <path d="M75.83,135.39 L 76.45 135.08 77.2 135.53 77.18 135.94 76.86 136.08 76.13 135.88 75.83 135.39 z" fill="#00779D" stroke="#FFFFFF"/>
        <path d="M60.57,67.54 L 61.83 66.27 62.78 66.14 65.19 65.42 66.11 64.54 66.82 64.6 67.45 65.49 72 65.51 71.98 67.02 71.69 67.03 69.11 67.02 67.01 67.03 65.95 67.1 65.44 67.36 63.1 69.54 62.36 70.68 61.73 70.3 60.45 70.34 60.57 67.54 z" fill="#006392" stroke="#FFFFFF"/>
        <path d="M67.37,82.93 L 67.19 82.52 67.84 82.26 68.02 81.72 69.58 79.25 70.43 78.06 71.84 77.36 73.06 78.26 74.69 77.57 75.29 78.6 75.17 79.07 75.6 79.67 75.34 80.09 75.85 80.57 76.82 80.91 77.94 81.43 78.31 82.12 78.28 83.01 79.25 83.71 79.25 84.66 78.63 85.41 78.27 84.96 77.21 83.94 76.78 84.06 76.22 83.5 75.22 84.17 75.03 84.69 73.75 85.22 72.86 85.19 71.3 84.37 70.87 84.92 68.9 85.57 69.25 86.26 68.48 86.05 68.52 86.62 66.12 84.34 67.37 82.93 z" fill="#007FA2" stroke="#FFFFFF"/>
        <path d="M62.73,76.49 L 64.67 75.87 66.35 76.55 67.41 76.46 69.29 76.02 70.1 75.08 70.76 74.98 71.13 74.15 71.37 74.22 71.37 76.48 70.16 76.58 69.03 77 68.2 76.9 66.46 77.88 66.31 78.45 64.7 79.13 63.95 79.83 63.02 79.78 62.73 78.91 62.73 76.49 z" fill="#005B8D" stroke="#FFFFFF"/>
        <path d="M59.84,107.53 L 65.23 107.58 70.09 107.6 70.27 107.6 70.27 109.56 71.25 109.56 71.24 110.55 72.8 111.53 73.11 111.53 73.11 112.51 73.75 112.51 73.75 113.49 75.04 113.5 75.03 114.48 76.06 114.42 75.99 115.45 76.79 115.57 76.79 117.53 76.22 117.57 74.98 116.72 74.32 116.72 72.67 115.76 72.2 115.79 71.28 115.15 70.51 115.59 70.32 116.09 69 116.36 69.29 117.48 68.08 116.58 67.54 116.5 66.14 116.7 66.29 116.06 66.33 115.56 66.27 115.05 65.92 114.72 65.56 114.47 65.19 114.64 64.37 114.15 63.91 113.67 64.07 113.15 64.23 112.4 64.02 111.63 63.38 111.36 62.95 111.29 61.95 110.04 61.47 109.33 60.52 108.98 60.13 108.45 59.97 107.67 59.84 107.53 z" fill="#3696AD" stroke="#FFFFFF"/>
        <path d="M52.22,88.95 L 52.63 88.64 53.2 88.41 53.4 88.57 54.61 88.69 55.24 88.34 58.71 88.37 59.31 90.33 58.83 90.65 59.37 92.17 60.43 91.79 60.93 92.35 60.76 94.08 61.03 94.33 59.2 94.34 58.89 94.01 58.44 94.21 58.41 94.3 58.35 94.37 58.33 94.51 58.24 94.61 58.15 94.68 58.09 94.75 58.1 94.79 58.02 94.83 57.72 95.04 56.3 94 55.66 93.1 55.33 92.78 54.02 92.24 52.56 90.62 52.2 90.24 52.22 88.95 z" fill="#006B96" stroke="#FFFFFF"/>
        <path d="M66.14,116.7 L 67.54 116.5 68.08 116.58 69.29 117.48 69 116.36 70.32 116.09 70.51 115.59 71.28 115.15 72.2 115.79 72.67 115.76 74.32 116.72 74.98 116.72 76.22 117.57 76.79 117.53 77.07 117.53 77.07 121.3 77.07 122.37 77.03 123.04 76.74 123.32 76.21 123.13 75.49 122.85 74.87 122.99 74.65 123.13 73.96 122.91 73.51 122.91 73.16 122.98 72.28 122.59 71.56 122.4 70.75 122.27 69.35 122.3 67.94 122.56 67.4 121.72 67.05 121.5 66.77 121.35 66.39 121.38 66.18 121.08 66.58 119.85 66.46 119.42 66.36 119.34 66.5 118.01 65.96 117.49 66.14 116.7 z" fill="#1A8AA7" stroke="#FFFFFF"/>
        <path d="M62.45,64.42 L 62.89 63.21 64.15 61.58 64.86 62.38 65.87 62.77 66.11 62.41 70.69 62.4 71.88 62.39 72.02 62.23 72.01 64.4 72 65.51 67.45 65.49 66.82 64.6 66.11 64.54 65.19 65.42 62.78 66.14 62.45 64.42 z" fill="#006392" stroke="#FFFFFF"/>
        <path d="M61.7,74.12 L 62.46 72.53 62.61 71.74 62.64 71.73 63.52 71.19 64.26 71.31 64.68 70.74 65.27 70.62 66.21 71.4 66.92 71.76 67.76 71.15 68.09 70.41 70.36 70.38 70.72 69.96 72 69.95 72.01 70.75 72.89 71.53 73.13 72.27 72.34 73.37 71.37 74.22 71.13 74.15 70.76 74.98 70.1 75.08 69.29 76.02 67.41 76.46 66.35 76.55 64.67 75.87 62.73 76.49 61.91 74.06 61.7 74.12 z" fill="#00749C" stroke="#FFFFFF"/>
        <path d="M81.6,126.67 L 82.36 126.1 82.97 125.64 83.57 125.64 83.83 125.64 84.07 125.3 84.07 124.88 84.38 124.52 84.21 123.93 83.43 121.99 82.14 118.76 82.02 118.45 87.16 118.43 92.15 118.39 93.12 118.4 93.23 123.11 93.31 124.31 93.02 125.67 92.88 126.15 92.78 126.45 92.72 126.62 92.42 127.27 92.21 127.28 91.89 127.76 92.07 128.08 90.83 128.07 90.41 128.08 90.32 128.56 89.85 128.96 89.58 129.18 89.54 129.42 89.27 129.84 89.06 130.3 88.91 130.2 88.45 130.39 88.01 130.62 87.77 130.74 87.24 130.64 87.09 130.55 86.9 130.43 86.52 130.39 86.23 129.97 86.54 129.64 86.38 128.77 85.94 127.83 85.41 127.19 84.65 127.06 83.96 127.13 83.37 127.14 82.83 127.48 82.38 127.11 81.57 126.98 81.6 126.67 z" fill="#52A5B4" stroke="#FFFFFF"/>
        <path d="M44.27,54.97 L 44.91 53.94 45.76 53.61 46.29 52.89 47.65 52.09 47.13 50.69 47.88 49.67 47.91 49.04 48.51 48.15 48.44 47.45 49.16 46.77 49.29 45.87 49.8 45.77 49.91 45.03 49.43 44.73 58.94 44.72 59.98 44.71 60.09 48.08 60.02 53.61 59.71 53.59 58.48 53.61 57.14 53.74 55.69 53.62 54.47 53.97 53.84 53.84 51.13 54.5 49.91 54.47 49.2 54.22 48.05 55.01 47.16 54.57 46.04 54.77 45.63 55.27 45.11 55.17 44.3 55.51 44.27 54.97 z" fill="#48A0B1" stroke="#FFFFFF"/>
        <path d="M50.28,71.62 L 50.86 71.63 55.42 71.63 55.61 72.19 56.44 72.49 56.89 73.76 57.53 73.84 57.25 74.42 57.97 75.39 58.06 75.45 58.21 75.37 58.35 75.41 58.4 75.58 58.27 75.82 58.36 76.05 58.18 76.27 58.23 76.37 57.99 76.43 57.93 76.57 58.41 76.94 58.26 78.22 57.61 78.76 56.71 78.76 56.54 76.15 54.48 76.2 53.83 76.72 53 76.43 52.41 74.78 51.91 74.26 51.33 72.62 50.36 72.34 50.12 71.87 50.28 71.62 z" fill="#006593" stroke="#FFFFFF"/>
        <path d="M67.71,92.79 L 69.97 92.02 71.06 91.98 71.55 91.79 74.18 89.11 75.18 89.1 75.18 88.6 75.78 88.22 75.79 87.47 78.27 84.96 78.63 85.41 79.94 85.47 80.86 87.17 78.47 89.6 78.03 90.33 78.08 91.53 77.79 91.98 77.15 92.04 76.81 92.62 76.48 92.17 75.94 92.56 75.97 93.16 75.6 93.08 75.45 93.58 75.21 93.39 75.1 93.44 75.11 93.73 74.82 93.75 74.69 93.89 74.62 93.98 73.7 95.6 72.63 95.67 71.77 96 71.5 95.91 69.95 96.51 68.67 96.34 67.9 95.45 67.95 94.9 67.12 93.38 67.71 92.79 z" fill="#007EA1" stroke="#FFFFFF"/>
        <path d="M83.1,88.58 L 91.61 88.56 93 89.84 96.94 93.54 97.65 94.22 99.14 95.62 103.78 100.04 104.8 101.02 107.35 103.47 109.16 105.23 109.59 105.64 111.38 107.37 110.58 107.55 105.69 107.55 96.88 107.54 93.43 107.51 90.79 107.5 90.04 107.6 90.06 106.78 90.28 106.72 90.08 105.41 89.8 105.13 88.96 102.07 89.2 101.32 88.17 100.31 87.95 99.31 87.48 98.91 87.62 98.47 86.8 97.4 86.85 96.8 86.58 95.77 86.85 95.17 86.16 93.2 84.75 92.31 84.19 92.27 83.63 90.13 82.99 89.96 83.1 88.58 z" fill="#B9CBBD" stroke="#FFFFFF"/>
        <path d="M70.27,107.6 L 76.2 107.6 80.58 107.58 82.84 107.59 89.5 107.58 90.04 107.6 90.79 107.5 93.43 107.51 93.26 108.49 93.58 108.82 93.45 110.13 93.44 118.4 93.12 118.4 92.15 118.39 87.16 118.43 82.02 118.45 82.14 118.76 81.28 118.52 78.86 118.49 78.56 117.77 77.07 117.53 76.79 117.53 76.79 115.57 75.99 115.45 76.06 114.42 75.03 114.48 75.04 113.5 73.75 113.49 73.75 112.51 73.11 112.51 73.11 111.53 72.8 111.53 71.24 110.55 71.25 109.56 70.27 109.56 70.27 107.6 z" fill="#AFCDC3" stroke="#FFFFFF"/>
        <path d="M93.06,128.91 L 93.22 128.32 93.63 128.31 94.1 127.28 95.76 127.12 95.79 127.28 97.11 127.29 98.05 127.45 98.2 127.45 99.79 127.44 99.79 127.12 105.48 127.13 114.38 127.12 114.38 126.63 122.39 126.62 122.34 127.02 122.17 127.37 121.67 127.96 121.44 128.28 121.68 128.58 121.71 128.98 121.57 129.38 121.71 130.12 121.79 130.57 121.71 130.86 121.53 131.21 121.49 131.81 121.54 132.4 120.88 133.08 120.59 133.7 118.77 133.74 113.01 133.77 107.42 133.78 106.41 133.75 100.76 133.77 98.87 133.77 98.35 133.74 97.87 133.71 96.97 133.72 96.97 133.53 96.89 133.5 96.81 133.47 95.86 132.92 94.54 132.92 94.54 132.6 95.01 131.86 95.42 131.23 94.32 130.67 93.05 128.93 93.06 128.91 z" fill="#A6CFC7" stroke="#FFFFFF"/>
        <path d="M84.74,133.33 L 85.72 133.11 86.76 133.96 87.52 134.6 87.17 135.17 86.72 134.94 85.9 134.87 85.74 134.39 85.01 133.69 84.74 133.33 z" fill="#52A5B4" stroke="#FFFFFF"/>
        <path d="M50.09,82.91 L 50.61 82.65 50.6 82.3 50.84 82.29 51.03 82.28 51.56 81.8 51.5 81.7 52.64 82.03 53.07 81.84 53.48 81.7 55.04 81.82 55.18 81.63 55.73 82.14 56.31 82.09 56.89 81.31 57.73 81.3 57.74 83.87 58.15 84.14 57.94 84.51 57.73 84.56 55.08 85.41 54.29 85.64 54.19 85.53 54.03 85.47 53.83 85.31 53.96 85.13 53.89 85.05 53.53 84.73 52.67 84.65 51.49 83.48 50.96 83.62 50.91 83.45 50.51 83.49 50.09 82.91 z" fill="#005E8F" stroke="#FFFFFF"/>
        <path d="M44.79,82.36 L 45.25 81.09 45.31 80.36 45.01 79.64 45.02 79.23 44.87 78.97 45.7 78.67 47.25 80 48.83 80.28 49.36 81.06 49.52 81.13 49.49 81.14 49.42 82.02 49.84 82.44 49.52 82.78 49.54 83.3 49.88 83.63 50.15 84.1 49.56 84.4 49.08 84.36 48.5 83.84 47.8 83.47 47.58 83.62 47.11 83.14 46.73 82.67 46.19 82.2 45.44 82.03 45.13 82.48 44.79 82.36 z" fill="#00598C" stroke="#FFFFFF"/>
        <path d="M93.76,134.21 L 93.92 133.48 94.55 133.31 94.54 132.92 95.86 132.92 96.81 133.47 96.89 133.5 96.97 133.53 96.97 133.72 97.87 133.71 98.35 133.74 98.87 133.77 100.76 133.77 106.41 133.75 107.42 133.78 107.46 137.61 107.24 141.45 107.23 142.56 103.31 142.94 102.52 143.02 100.44 143.22 98.02 143.48 97.96 142.92 97.92 142.56 97.62 141.98 97.37 141.8 96.93 142.01 96.84 141.68 96.85 140.74 96.61 140.35 96.6 140.17 96.67 140.04 96.77 140.06 96.83 139.95 96.83 139.95 96.85 139.51 96.69 138.69 96.61 138.29 96.3 137.41 95.87 136.59 95.12 135.5 94.2 134.44 93.76 134.21 93.76 134.21 z" fill="#57A8B5" stroke="#FFFFFF"/>
        <path d="M40,73.47 L 41.56 73.36 43.66 72.98 44.16 72.47 46.51 72.5 46.74 72.63 48.26 74.64 48.09 75.44 48.49 75.92 49.02 76.36 50.78 80.15 50.26 80.59 50.34 80.75 49.52 81.13 49.36 81.06 48.83 80.28 47.25 80 45.7 78.67 44.87 78.97 44.86 78.95 44.41 78.92 44.28 78.51 44.12 77.86 43.39 76.88 42.64 76.46 41.89 75.83 41.73 75.46 40.9 74.26 40.24 73.77 40 73.47 z" fill="#00719A" stroke="#FFFFFF"/>
        <path d="M48.26,74.64 L 49.74 74.2 50.34 73.04 50.36 72.34 51.33 72.62 51.91 74.26 52.41 74.78 53 76.43 52.79 77.42 53.38 78.6 52.07 78.73 52.16 80.51 52.01 80.6 50.26 80.59 50.78 80.15 49.02 76.36 48.49 75.92 48.09 75.44 48.26 74.64 z" fill="#005F8F" stroke="#FFFFFF"/>
        <path d="M76.81,126.9 L 77.06 126.9 77.77 126.93 77.78 127.49 77.52 127.55 76.66 127.53 76.81 126.9 z" fill="#00779D" stroke="#FFFFFF"/>
        <path d="M38.92,38.27 L 38.53 36.86 39.08 36.12 39.78 35.95 40.2 34.78 40.96 34.75 41.75 34.78 42.81 34.7 43.57 34.65 44.48 34.73 46.7 34.72 49.41 34.66 51.32 34.67 51.32 34.67 53.02 34.7 55.32 34.73 56.87 34.76 58.93 34.8 58.85 35.38 58.92 37.5 58.94 44.72 49.43 44.73 49.21 44.36 49.38 42.79 48.64 42.59 48.03 43.44 46.6 44.49 45.93 44.46 45.13 45.58 45.82 46.6 45.64 47.01 44.56 46.89 44.4 46.37 43.62 45.98 42.73 46.02 42.42 45.45 41.2 44.76 40.48 42.37 38.91 42.31 39.36 41.34 39.03 40.45 38.39 39.71 38.92 38.27 z" fill="#96CCC8" stroke="#FFFFFF"/>
        <path d="M75.29,78.6 L 76.16 76.8 75.47 75.38 75.77 74.1 78.09 76.19 78.54 76.59 79.64 77.59 81.52 79.28 85.58 82.98 86.24 83.59 89.91 86.98 91.61 88.56 83.1 88.58 82.42 88.44 81.82 87.58 80.86 87.17 79.94 85.47 78.63 85.41 79.25 84.66 79.25 83.71 78.28 83.01 78.31 82.12 77.94 81.43 76.82 80.91 75.85 80.57 75.34 80.09 75.6 79.67 75.17 79.07 75.29 78.6 z" fill="#2B91AA" stroke="#FFFFFF"/>
        <path d="M50.92,84.59 L 51.19 84.36 50.96 83.62 51.49 83.48 52.67 84.65 53.53 84.73 53.89 85.05 53.96 85.13 53.83 85.31 54.03 85.47 54.19 85.53 54.29 85.64 55.08 85.41 57.73 84.56 57.94 84.51 57.94 85.36 57.95 87.67 58.71 88.37 58.71 88.37 55.24 88.34 54.61 88.69 53.4 88.57 53.2 88.41 52.88 88.08 52.77 87.92 52.92 87.83 52.63 87.22 52.55 86.54 52.46 86.24 52.46 86.23 52 85.87 51.68 85.55 51.65 85.22 51.11 84.97 50.92 84.59 z" fill="#005E8F" stroke="#FFFFFF"/>
        <path d="M63.02,79.78 L 63.95 79.83 64.7 79.13 66.31 78.45 66.46 77.88 68.2 76.9 69.03 77 70.16 76.58 71.37 76.48 71.37 77.21 71.84 77.36 70.43 78.06 69.58 79.25 68.02 81.72 67.84 82.26 67.19 82.52 67.37 82.93 66.12 84.34 63.64 81.5 63.5 81.28 63.02 79.78 z" fill="#006593" stroke="#FFFFFF"/>
        <path d="M68.69,126.65 L 69.83 126.86 70.79 127.2 71.52 127.08 72.16 127.67 72.26 128.12 71.57 128.43 70.92 128.64 70.4 128.28 70.21 127.96 68.72 127.58 67.92 127.18 68.69 126.65 z" fill="#1A8AA7" stroke="#FFFFFF"/>
        <path d="M68.48,86.05 L 69.25 86.26 68.9 85.57 70.87 84.92 71.3 84.37 72.86 85.19 73.75 85.22 75.03 84.69 75.22 84.17 76.22 83.5 76.78 84.06 77.21 83.94 78.27 84.96 75.79 87.47 75.78 88.22 75.18 88.6 75.18 89.1 74.18 89.11 71.55 91.79 70.42 90.9 68.52 86.63 68.52 86.62 68.48 86.05 z" fill="#006E98" stroke="#FFFFFF"/>
        <path d="M59.98,44.71 L 67.49 44.71 72.02 44.71 72.03 48.56 72.04 50.3 72.06 55.1 72.05 57.42 72.04 59.45 72.02 62.23 71.88 62.39 70.69 62.4 71.02 61.71 71.04 59.65 70.2 58.77 70.13 57.91 68.94 57.56 67.66 56.48 67.4 55.96 66.13 55.26 65.11 55.16 63.63 56.64 62.42 55.87 62.42 53.6 60.02 53.61 60.09 48.08 59.98 44.71 z" fill="#62AEB8" stroke="#FFFFFF"/>
        <path d="M89.27,129.84 L 89.54 129.42 89.58 129.18 89.85 128.96 90.32 128.56 90.41 128.08 90.83 128.07 92.07 128.08 93.06 128.91 93.05 128.93 94.32 130.67 95.42 131.23 95.01 131.86 94.54 132.6 94.54 132.92 94.55 133.31 93.92 133.48 93.76 134.21 93.31 133.62 92.68 133.4 92.58 133.15 92.53 133.11 91.79 132.4 91.55 132.17 90.77 131.82 90.1 131.28 89.3 130.46 89.06 130.3 89.27 129.84 z" fill="#006090" stroke="#FFFFFF"/>
        <path d="M57.34,67.27 L 59.29 66.75 59.96 65.74 60.22 64.63 61.62 64.55 62.29 63.71 62.89 63.21 62.45 64.42 62.78 66.14 61.83 66.27 60.57 67.54 60.45 70.34 59.98 70.25 59.67 70.37 59.23 70.79 58.07 71.07 57.78 71.7 57.46 70.07 57.68 69.69 57.34 67.27 z" fill="#005C8E" stroke="#FFFFFF"/>
        <path d="M53.53,60.31 L 55.71 60.3 56.62 59.12 57.14 59.14 57.68 57.73 59.03 57.12 59.66 57.9 59.19 58.74 59.09 60.11 59.81 61 61.07 62.19 61.74 63.34 62.29 63.71 61.62 64.55 60.22 64.63 59.96 65.74 59.29 66.75 57.34 67.27 57.21 67.15 54.77 67.17 54.85 66.54 54.93 66.23 55.23 64.42 53.99 64.46 53.99 62.83 54.39 62.1 54.23 62.23 53.7 61.3 53.52 61.33 53.53 60.31 z" fill="#00739B" stroke="#FFFFFF"/>
        <path d="M58.85,35.38 L 58.93 34.8 59 34.8 60.71 34.8 62.66 34.85 64.07 34.85 65.76 34.84 67.49 34.84 70.38 34.83 72.03 34.83 72.03 36.3 72.04 39.43 72.02 44.71 67.49 44.71 59.98 44.71 58.94 44.72 58.92 37.5 58.85 35.38 z" fill="#4DA2B3" stroke="#FFFFFF"/>
        <path d="M84.74,138.03 L 85.22 138.63 86.07 139.56 86.91 140.36 86.26 140.59 85.7 140.11 84.85 139.17 84.31 138.24 84.74 138.03 z" fill="#52A5B4" stroke="#FFFFFF"/>
        <path d="M72.78,126.85 L 73.31 126.71 74.38 126.95 75.94 126.9 76.81 126.9 76.66 127.53 76.05 127.52 75.07 127.65 74.54 127.94 73.87 127.9 73.17 127.71 73.14 127.23 72.78 126.85 z" fill="#1A8AA7" stroke="#FFFFFF"/>
        <path d="M60.93,92.35 L 63.3 89.93 63.12 89.32 68.52 86.63 70.42 90.9 71.55 91.79 71.06 91.98 69.97 92.02 67.71 92.79 67.12 93.38 66.68 94.43 66.09 94.43 63.71 96.85 61.7 95.75 60.86 94.72 61.03 94.33 60.76 94.08 60.93 92.35 z" fill="#00799E" stroke="#FFFFFF"/>
        <path d="M32.35,52.9 L 33.13 51.04 34.25 48.83 34.78 47.07 34.72 46.35 34.45 45.89 34.37 45.26 34.74 44.64 35.02 43.46 35.28 41.61 35.24 41.31 37.93 41.31 37.93 42.33 38.91 42.31 40.48 42.37 41.2 44.76 40.7 46.02 41.22 46.77 40.54 47.97 39.83 47.54 39.25 47.79 39.83 49 39.97 50.08 39.97 58.91 35.62 58.91 35.53 58.77 35.23 58.68 35.06 58 34.59 57.54 34.15 57.37 33.51 56.73 32.75 56.02 32.56 55.82 32.66 54.98 32.55 54.46 32.15 53.7 32.35 52.9 z" fill="#409BAF" stroke="#FFFFFF"/>
        <path d="M44.19,68.7 L 44.94 67.97 44.21 65.95 44.32 64.82 45.89 64.52 45.93 63.91 47.28 63.9 47.25 66.24 46.84 66.24 47.21 66.42 46.93 67.08 47.78 67.94 49.63 68.72 49.49 70.12 50.2 70.51 50.24 71.18 50.86 71.63 50.28 71.62 50.12 71.87 50.36 72.34 50.34 73.04 49.74 74.2 48.26 74.64 46.74 72.63 46.51 72.5 45.36 71.91 45.01 70.78 44.39 70.5 44.39 70.17 44.19 68.7 z" fill="#006A96" stroke="#FFFFFF"/>
        <path d="M58.71,88.37 L 61.15 85.91 61.98 85.37 63.02 85.17 63.7 85.42 63.64 81.5 66.12 84.34 68.52 86.62 68.52 86.63 63.12 89.32 63.3 89.93 60.93 92.35 60.43 91.79 59.37 92.17 58.83 90.65 59.31 90.33 58.71 88.37 58.71 88.37 z" fill="#006F99" stroke="#FFFFFF"/>
        <path d="M46.84,66.24 L 47.25 66.24 52.2 66.21 52.71 65.87 53.86 65.88 54.93 66.23 54.85 66.54 54.77 67.17 54.43 68.62 54.94 69.9 55.79 70.79 55.42 71.63 50.86 71.63 50.24 71.18 50.2 70.51 49.49 70.12 49.63 68.72 47.78 67.94 46.93 67.08 47.21 66.42 46.84 66.24 z" fill="#006895" stroke="#FFFFFF"/>
        <path d="M76.13,99.47 L 76.85 98.72 78.31 98.74 78.31 97.75 79.48 97.77 80.27 97.79 81.2 97.79 81.22 96.83 86.85 96.8 86.8 97.4 87.62 98.47 87.48 98.91 87.95 99.31 88.17 100.31 89.2 101.32 88.96 102.07 89.8 105.13 90.08 105.41 90.28 106.72 90.06 106.78 90.04 107.6 89.5 107.58 82.84 107.59 80.58 107.58 76.2 107.6 76.22 104.66 76.28 102.18 76.77 102.19 76.77 100.7 76.28 100.69 76.29 99.72 75.88 99.7 76.13 99.47 z" fill="#6BB3BB" stroke="#FFFFFF"/>
        <path d="M66.09,94.43 L 66.68 94.43 67.12 93.38 67.95 94.9 67.9 95.45 68.67 96.34 69.95 96.51 71.5 95.91 71.77 96 72.63 95.67 73.7 95.6 74.62 93.98 74.69 93.89 74.82 93.75 75.11 93.73 75.1 93.44 75.21 93.39 75.45 93.58 75.6 93.08 75.97 93.16 75.94 92.56 76.48 92.17 76.81 92.62 77.15 92.04 77.79 91.98 78.08 91.53 78.03 90.33 78.47 89.6 80.86 87.17 81.82 87.58 82.42 88.44 83.1 88.58 82.99 89.96 83.63 90.13 84.19 92.27 84.75 92.31 86.16 93.2 86.85 95.17 86.58 95.77 86.85 96.8 81.22 96.83 81.2 97.79 80.27 97.79 79.48 97.77 78.31 97.75 78.31 98.74 76.85 98.72 76.13 99.47 75.88 99.7 75.04 100.5 74.25 100.69 72.39 100.7 72.39 103.18 69.17 106.27 68.11 105.58 65.99 103.67 66.35 102.94 65.89 102.21 66.63 101.52 66.62 99.71 63.71 96.85 66.09 94.43 z" fill="#8DC7C5" stroke="#FFFFFF"/>
        <path d="M58.74,71.61 L 59.23 71.61 59.23 70.79 59.67 70.37 59.98 70.25 60.45 70.34 61.73 70.3 62.36 70.68 63.1 69.54 65.44 67.36 65.95 67.1 67.01 67.03 69.11 67.02 71.69 67.03 71.98 67.02 71.98 67.32 71.99 68.8 72 69.42 72 69.95 70.72 69.96 70.36 70.38 68.09 70.41 67.76 71.15 66.92 71.76 66.21 71.4 65.27 70.62 64.68 70.74 64.26 71.31 63.52 71.19 62.64 71.73 62.61 71.74 62.46 72.53 61.7 74.12 60.19 73.99 59.53 73.93 58.6 73.85 58.74 71.61 z" fill="#006D98" stroke="#FFFFFF"/>
        <path d="M45.46,61.33 L 53.52 61.33 53.7 61.3 54.23 62.23 54.39 62.1 53.99 62.83 53.99 64.46 55.23 64.42 54.93 66.23 53.86 65.88 52.71 65.87 52.2 66.21 47.25 66.24 47.28 63.9 45.93 63.91 45.86 62.39 45.46 61.33 z" fill="#006B97" stroke="#FFFFFF"/>
        <path d="M35.62,58.91 L 39.97 58.91 39.97 59.2 45.49 59.19 45.71 59.69 45.35 60.03 45.46 61.33 45.86 62.39 45.93 63.91 45.89 64.52 44.32 64.82 44.21 65.95 44.94 67.97 44.19 68.7 44.39 70.17 44.39 70.5 45.01 70.78 45.36 71.91 46.51 72.5 44.16 72.47 43.66 72.98 41.56 73.36 40 73.47 39.72 73.11 39.12 72.57 38.93 72.24 38.47 71.76 38.27 71.27 38.65 70.5 38.37 69.27 37.97 68.47 37.67 67.56 37.43 66.5 37.53 65.49 37.96 64.23 37.82 63.42 37.73 62.68 37.39 62.22 37.19 60.93 36.69 60.56 36.26 59.85 35.62 58.91 z" fill="#3E9AAF" stroke="#FFFFFF"/>
        <path d="M69.17,106.27 L 72.39 103.18 72.39 100.7 74.25 100.69 75.04 100.5 75.88 99.7 76.29 99.72 76.28 100.69 76.77 100.7 76.77 102.19 76.28 102.18 76.22 104.66 76.2 107.6 70.27 107.6 70.09 107.6 69.53 106.29 69.17 106.27 z" fill="#006D98" stroke="#FFFFFF"/>
        <path d="M44.3,55.51 L 45.11 55.17 45.63 55.27 46.04 54.77 47.16 54.57 48.05 55.01 49.2 54.22 49.91 54.47 51.13 54.5 53.84 53.84 54.47 53.97 55.69 53.62 57.14 53.74 58.48 53.61 58.73 54.75 59.88 55.23 59.65 56.4 59.03 57.12 57.68 57.73 57.14 59.14 56.62 59.12 55.71 60.3 53.53 60.31 53.52 61.33 45.46 61.33 45.35 60.03 45.71 59.69 45.49 59.19 44.99 57.2 45.1 56.05 44.3 55.51 z" fill="#268FA9" stroke="#FFFFFF"/>
        <path d="M58.48,53.61 L 59.71 53.59 60.02 53.61 62.42 53.6 62.42 55.87 63.63 56.64 65.11 55.16 66.13 55.26 67.4 55.96 67.66 56.48 68.94 57.56 70.13 57.91 70.2 58.77 71.04 59.65 71.02 61.71 70.69 62.4 66.11 62.41 65.87 62.77 64.86 62.38 64.15 61.58 62.89 63.21 62.29 63.71 61.74 63.34 61.07 62.19 59.81 61 59.09 60.11 59.19 58.74 59.66 57.9 59.03 57.12 59.65 56.4 59.88 55.23 58.73 54.75 58.48 53.61 z" fill="#0A87A5" stroke="#FFFFFF"/>
        <path d="M33.87,36.65 L 34.01 35.49 33.94 34.78 35.84 34.81 37.47 34.82 38.95 34.83 40.2 34.78 39.78 35.95 39.08 36.12 38.53 36.86 38.92 38.27 38.39 39.71 39.03 40.45 39.36 41.34 38.91 42.31 37.93 42.33 37.93 41.31 35.24 41.31 35.11 40.29 34.8 39.31 34.55 38.32 34.46 38.09 34.12 38 33.64 37.31 33.87 36.65 z" fill="#006493" stroke="#FFFFFF"/>
        <path d="M57.73,81.3 L 58.71 79.39 58.93 79.44 59.38 79.76 60.43 79.5 60.96 79.56 62.73 78.91 63.02 79.78 63.5 81.28 63.64 81.5 63.7 85.42 63.02 85.17 61.98 85.37 61.15 85.91 58.71 88.37 57.95 87.67 57.94 85.36 57.94 84.51 58.15 84.14 57.74 83.87 57.73 81.3 z" fill="#006D98" stroke="#FFFFFF"/>
        <path d="M55.2,81.58 L 55.35 81.51 55.49 81.63 55.78 81.69 56.26 81.39 56.54 81.41 56.78 80.55 57.41 80.13 57.61 78.76 58.26 78.22 58.41 76.94 57.93 76.57 57.99 76.43 58.23 76.37 58.18 76.27 58.36 76.05 58.27 75.82 58.4 75.58 58.35 75.41 58.21 75.37 58.06 75.45 57.97 75.39 57.25 74.42 57.53 73.84 57.92 73.83 58.6 73.85 59.53 73.93 60.19 73.99 61.7 74.12 61.91 74.06 62.73 76.49 62.73 78.91 60.96 79.56 60.43 79.5 59.38 79.76 58.93 79.44 58.71 79.39 57.73 81.3 56.89 81.31 56.31 82.09 55.73 82.14 55.18 81.63 55.2 81.58 z" fill="#006492" stroke="#FFFFFF"/>
        <path d="M54.77,67.17 L 57.21 67.15 57.34 67.27 57.68 69.69 57.46 70.07 57.78 71.7 58.07 71.07 59.23 70.79 59.23 71.61 58.74 71.61 58.6 73.85 57.92 73.83 57.53 73.84 56.89 73.76 56.44 72.49 55.61 72.19 55.42 71.63 55.79 70.79 54.94 69.9 54.43 68.62 54.77 67.17 z" fill="#005B8D" stroke="#FFFFFF"/>
        <path d="M71.37,76.48 L 71.37 74.22 72.34 73.37 73.13 72.27 72.89 71.53 75.75 74.08 75.77 74.1 75.47 75.38 76.16 76.8 75.29 78.6 74.69 77.57 73.06 78.26 71.84 77.36 71.37 77.21 71.37 76.48 z" fill="#005E8F" stroke="#FFFFFF"/>
        <path d="M39.83,47.54 L 40.54 47.97 41.22 46.77 40.7 46.02 41.2 44.76 42.42 45.45 42.73 46.02 43.62 45.98 44.4 46.37 44.56 46.89 45.64 47.01 45.82 46.6 45.13 45.58 45.93 44.46 46.6 44.49 48.03 43.44 48.64 42.59 49.38 42.79 49.21 44.36 49.43 44.73 49.91 45.03 49.8 45.77 49.29 45.87 49.16 46.77 48.44 47.45 48.51 48.15 47.91 49.04 47.88 49.67 47.13 50.69 47.65 52.09 46.29 52.89 45.76 53.61 44.91 53.94 44.27 54.97 44.3 55.51 45.1 56.05 44.99 57.2 45.49 59.19 39.97 59.2 39.97 58.91 39.97 50.08 39.83 49 39.25 47.79 39.83 47.54 z" fill="#3194AB" stroke="#FFFFFF"/>
        <path d="M91.89,127.76 L 92.21 127.28 92.42 127.27 92.72 126.62 92.78 126.45 92.88 126.15 93.02 125.67 93.31 124.31 93.23 123.11 93.12 118.4 93.44 118.4 93.45 110.13 93.58 108.82 93.26 108.49 93.43 107.51 96.88 107.54 105.69 107.55 110.58 107.55 111.38 107.37 111.38 107.37 113.58 109.53 114.49 110.42 115.79 111.7 116.84 112.73 119.01 114.87 120.55 116.41 120.58 117.06 120.54 117.84 121.07 118.48 121.84 119.49 122.07 119.86 122.46 121.08 122.86 121.79 122.85 122.53 123.25 122.53 123.89 123.07 124.72 123.69 125.01 124.12 125.01 124.15 125.02 124.63 124.67 124.85 124.2 125.43 123.63 125.66 123.13 126.01 122.61 126.26 122.41 126.47 122.39 126.62 114.38 126.63 114.38 127.12 105.48 127.13 99.79 127.12 99.79 127.44 98.2 127.45 98.05 127.45 97.11 127.29 95.79 127.28 95.76 127.12 94.1 127.28 93.63 128.31 93.22 128.32 93.06 128.91 92.07 128.08 91.89 127.76 z" fill="#B47865" stroke="#FFFFFF"/>
        <path d="M54.2,98.64 L 54.63 98.05 55.2 98.32 55.61 97.5 55.77 96.42 55.82 95.99 55.63 95.6 56.65 94.8 57.16 95.1 57.57 95.74 58.9 97.02 58.75 97.47 59.81 97.89 60.1 98.33 60.16 99.55 60.77 99.5 61.23 100.19 62.61 101.57 62.73 102.3 63.7 101.72 64.2 101.93 65.14 102.93 65.53 103.01 65.53 102.29 65.17 101.74 65.89 102.21 66.35 102.94 65.99 103.67 68.11 105.58 69.17 106.27 69.53 106.29 70.09 107.6 65.23 107.58 59.84 107.53 59.3 106.98 58.8 106.52 58.58 105.56 58.17 105.07 57.78 104.95 57.36 104.1 56.83 103.36 55.93 102.66 55.51 102.5 54.95 101.81 54.81 100.78 54.46 99.74 54.2 98.64 z" fill="#3596AC" stroke="#FFFFFF"/>
        <path d="M57.16,95.1 L 57.72 95.04 58.02 94.83 58.1 94.79 58.09 94.75 58.15 94.68 58.24 94.61 58.33 94.51 58.35 94.37 58.41 94.3 58.44 94.21 58.89 94.01 59.2 94.34 61.03 94.33 60.86 94.72 61.7 95.75 63.71 96.85 66.62 99.71 66.63 101.52 65.89 102.21 65.17 101.74 65.53 102.29 65.53 103.01 65.14 102.93 64.2 101.93 63.7 101.72 62.73 102.3 62.61 101.57 61.23 100.19 60.77 99.5 60.16 99.55 60.1 98.33 59.81 97.89 58.75 97.47 58.9 97.02 57.57 95.74 57.16 95.1 z" fill="#006D98" stroke="#FFFFFF"/>
        <path d="M107.24,141.45 L 107.46 137.61 107.42 133.78 113.01 133.77 118.77 133.74 120.59 133.7 120.54 133.82 120.19 133.87 119.72 134.01 119.88 134.32 119.88 134.9 119.74 135.29 120.18 135.64 120.15 135.92 120.14 136.69 119.89 137.28 120.21 138.01 120.6 138.09 121.08 138.03 121.6 138.16 121.66 138.17 121.93 138.73 121.97 139.25 122.09 139.49 122.04 140.11 121.47 140.79 121.12 141.17 120.7 141.24 120.24 141.31 119.9 141.23 119.77 141.48 117.23 141.68 113.03 142.04 107.77 142.51 107.23 142.56 107.24 141.45 z" fill="#56A7B5" stroke="#FFFFFF"/>
        <path d="M76.74,123.32 L 77.03 123.04 77.07 122.37 77.07 121.3 77.07 117.53 78.56 117.77 78.86 118.49 81.28 118.52 82.14 118.76 83.43 121.99 84.21 123.93 84.38 124.52 84.07 124.88 84.07 125.3 83.83 125.64 83.57 125.64 82.97 125.64 82.36 126.1 81.6 126.67 81.57 126.98 81.47 126.96 80.43 126.5 80.07 126.45 79.01 125.71 78.74 125.14 78.62 124.71 78.56 124.67 78.23 124.45 77.67 123.95 76.9 123.37 76.74 123.32 z" fill="#00779D" stroke="#FFFFFF"/>
        <path d="M50.26,80.59 L 52.01 80.6 52.16 80.51 52.07 78.73 53.38 78.6 52.79 77.42 53 76.43 53.83 76.72 54.48 76.2 56.54 76.15 56.71 78.76 57.61 78.76 57.41 80.13 56.78 80.55 56.54 81.41 56.26 81.39 55.78 81.69 55.49 81.63 55.35 81.51 55.2 81.58 55.18 81.63 55.04 81.82 53.48 81.7 53.07 81.84 52.64 82.03 51.5 81.7 51.21 81.18 50.38 80.73 50.34 80.75 50.26 80.59 z" fill="#006090" stroke="#FFFFFF"/>
        <path d="M49.31,85.04 L 49.73 84.7 50.34 84.64 50.45 84.81 50.53 85.41 50.71 85.52 50.67 85.69 50.41 85.76 49.41 85.77 49.36 85.45 49.31 85.04 z" fill="#004E85" stroke="#FFFFFF"/>
        <path d="M51.06,91.75 L 52.56 91.42 52.56 90.62 54.02 92.24 55.33 92.78 55.66 93.1 56.3 94 57.72 95.04 57.16 95.1 56.65 94.8 55.63 95.6 55.18 94.67 54.78 94.24 54.37 94.21 53.69 94.44 53.33 94.42 52.98 94.39 52.07 93.73 51.58 93.06 51.36 92.72 51.28 92.69 51.06 91.75 z" fill="#00588B" stroke="#FFFFFF"/>
        <path d="M49.25,87.28 L 49.44 86.87 49.44 86.02 49.41 85.77 50.41 85.76 50.38 85.77 50.68 87.1 51.73 87.49 52.41 88.11 52.77 87.92 52.88 88.08 53.2 88.41 52.63 88.64 52.22 88.95 52.2 90.24 52.56 90.62 52.56 91.42 51.06 91.75 51.28 92.69 51.02 92.57 50.83 92.24 50.35 91.75 50.15 91.05 50.27 90.28 50.31 90.03 50.24 89.6 49.92 88.9 49.9 88.6 49.47 88.25 49.26 87.92 49.25 87.28 z" fill="#00588B" stroke="#FFFFFF"/>
      </g>
    </g>
    <g class="geometry" id="img-7f06ef01-14">
      <g stroke-dasharray="0.5,0.5" stroke-width="0.1" stroke="#808080" id="img-7f06ef01-15">
        <path fill="none" d="M8.72,170.51 L 17.77 170.51 26.81 170.51 35.85 170.51 44.89 170.51 53.94 170.51 62.98 170.51 72.02 170.51 81.07 170.51 90.11 170.51 99.15 170.51 108.19 170.51 117.24 170.51 126.28 170.51 135.32 170.51 144.37 170.51 153.41 170.51"/>
        <path fill="none" d="M8.72,159.93 L 17.77 159.93 26.81 159.93 35.85 159.93 44.89 159.93 53.94 159.93 62.98 159.93 72.02 159.93 81.07 159.93 90.11 159.93 99.15 159.93 108.19 159.93 117.24 159.93 126.28 159.93 135.32 159.93 144.37 159.93 153.41 159.93"/>
        <path fill="none" d="M8.72,149.23 L 17.77 149.23 26.81 149.23 35.85 149.23 44.89 149.23 53.94 149.23 62.98 149.23 72.02 149.23 81.07 149.23 90.11 149.23 99.15 149.23 108.19 149.23 117.24 149.23 126.28 149.23 135.32 149.23 144.37 149.23 153.41 149.23"/>
        <path fill="none" d="M8.72,138.42 L 17.77 138.42 26.81 138.42 35.85 138.42 44.89 138.42 53.94 138.42 62.98 138.42 72.02 138.42 81.07 138.42 90.11 138.42 99.15 138.42 108.19 138.42 117.24 138.42 126.28 138.42 135.32 138.42 144.37 138.42 153.41 138.42"/>
        <path fill="none" d="M8.72,127.49 L 17.77 127.49 26.81 127.49 35.85 127.49 44.89 127.49 53.94 127.49 62.98 127.49 72.02 127.49 81.07 127.49 90.11 127.49 99.15 127.49 108.19 127.49 117.24 127.49 126.28 127.49 135.32 127.49 144.37 127.49 153.41 127.49"/>
        <path fill="none" d="M8.72,116.43 L 17.77 116.43 26.81 116.43 35.85 116.43 44.89 116.43 53.94 116.43 62.98 116.43 72.02 116.43 81.07 116.43 90.11 116.43 99.15 116.43 108.19 116.43 117.24 116.43 126.28 116.43 135.32 116.43 144.37 116.43 153.41 116.43"/>
        <path fill="none" d="M8.72,105.23 L 17.77 105.23 26.81 105.23 35.85 105.23 44.89 105.23 53.94 105.23 62.98 105.23 72.02 105.23 81.07 105.23 90.11 105.23 99.15 105.23 108.19 105.23 117.24 105.23 126.28 105.23 135.32 105.23 144.37 105.23 153.41 105.23"/>
        <path fill="none" d="M8.72,93.89 L 17.77 93.89 26.81 93.89 35.85 93.89 44.89 93.89 53.94 93.89 62.98 93.89 72.02 93.89 81.07 93.89 90.11 93.89 99.15 93.89 108.19 93.89 117.24 93.89 126.28 93.89 135.32 93.89 144.37 93.89 153.41 93.89"/>
        <path fill="none" d="M8.72,82.4 L 17.77 82.4 26.81 82.4 35.85 82.4 44.89 82.4 53.94 82.4 62.98 82.4 72.02 82.4 81.07 82.4 90.11 82.4 99.15 82.4 108.19 82.4 117.24 82.4 126.28 82.4 135.32 82.4 144.37 82.4 153.41 82.4"/>
        <path fill="none" d="M8.72,70.75 L 17.77 70.75 26.81 70.75 35.85 70.75 44.89 70.75 53.94 70.75 62.98 70.75 72.02 70.75 81.07 70.75 90.11 70.75 99.15 70.75 108.19 70.75 117.24 70.75 126.28 70.75 135.32 70.75 144.37 70.75 153.41 70.75"/>
        <path fill="none" d="M8.72,58.93 L 17.77 58.93 26.81 58.93 35.85 58.93 44.89 58.93 53.94 58.93 62.98 58.93 72.02 58.93 81.07 58.93 90.11 58.93 99.15 58.93 108.19 58.93 117.24 58.93 126.28 58.93 135.32 58.93 144.37 58.93 153.41 58.93"/>
        <path fill="none" d="M8.72,46.94 L 17.77 46.94 26.81 46.94 35.85 46.94 44.89 46.94 53.94 46.94 62.98 46.94 72.02 46.94 81.07 46.94 90.11 46.94 99.15 46.94 108.19 46.94 117.24 46.94 126.28 46.94 135.32 46.94 144.37 46.94 153.41 46.94"/>
        <path fill="none" d="M8.72,34.77 L 17.77 34.77 26.81 34.77 35.85 34.77 44.89 34.77 53.94 34.77 62.98 34.77 72.02 34.77 81.07 34.77 90.11 34.77 99.15 34.77 108.19 34.77 117.24 34.77 126.28 34.77 135.32 34.77 144.37 34.77 153.41 34.77"/>
        <path fill="none" d="M8.72,22.4 L 17.77 22.4 26.81 22.4 35.85 22.4 44.89 22.4 53.94 22.4 62.98 22.4 72.02 22.4 81.07 22.4 90.11 22.4 99.15 22.4 108.19 22.4 117.24 22.4 126.28 22.4 135.32 22.4 144.37 22.4 153.41 22.4"/>
        <path fill="none" d="M8.72,9.83 L 17.77 9.83 26.81 9.83 35.85 9.83 44.89 9.83 53.94 9.83 62.98 9.83 72.02 9.83 81.07 9.83 90.11 9.83 99.15 9.83 108.19 9.83 117.24 9.83 126.28 9.83 135.32 9.83 144.37 9.83 153.41 9.83"/>
        <path fill="none" d="M8.72,-2.95 L 17.77 -2.95 26.81 -2.95 35.85 -2.95 44.89 -2.95 53.94 -2.95 62.98 -2.95 72.02 -2.95 81.07 -2.95 90.11 -2.95 99.15 -2.95 108.19 -2.95 117.24 -2.95 126.28 -2.95 135.32 -2.95 144.37 -2.95 153.41 -2.95"/>
        <path fill="none" d="M153.41,-2.95 L 153.41 9.83 153.41 22.4 153.41 34.77 153.41 46.94 153.41 58.93 153.41 70.75 153.41 82.4 153.41 93.89 153.41 105.23 153.41 116.43 153.41 127.49 153.41 138.42 153.41 149.23 153.41 159.93 153.41 170.51"/>
        <path fill="none" d="M144.37,-2.95 L 144.37 9.83 144.37 22.4 144.37 34.77 144.37 46.94 144.37 58.93 144.37 70.75 144.37 82.4 144.37 93.89 144.37 105.23 144.37 116.43 144.37 127.49 144.37 138.42 144.37 149.23 144.37 159.93 144.37 170.51"/>
        <path fill="none" d="M135.32,-2.95 L 135.32 9.83 135.32 22.4 135.32 34.77 135.32 46.94 135.32 58.93 135.32 70.75 135.32 82.4 135.32 93.89 135.32 105.23 135.32 116.43 135.32 127.49 135.32 138.42 135.32 149.23 135.32 159.93 135.32 170.51"/>
        <path fill="none" d="M126.28,-2.95 L 126.28 9.83 126.28 22.4 126.28 34.77 126.28 46.94 126.28 58.93 126.28 70.75 126.28 82.4 126.28 93.89 126.28 105.23 126.28 116.43 126.28 127.49 126.28 138.42 126.28 149.23 126.28 159.93 126.28 170.51"/>
        <path fill="none" d="M117.24,-2.95 L 117.24 9.83 117.24 22.4 117.24 34.77 117.24 46.94 117.24 58.93 117.24 70.75 117.24 82.4 117.24 93.89 117.24 105.23 117.24 116.43 117.24 127.49 117.24 138.42 117.24 149.23 117.24 159.93 117.24 170.51"/>
        <path fill="none" d="M108.19,-2.95 L 108.19 9.83 108.19 22.4 108.19 34.77 108.19 46.94 108.19 58.93 108.19 70.75 108.19 82.4 108.19 93.89 108.19 105.23 108.19 116.43 108.19 127.49 108.19 138.42 108.19 149.23 108.19 159.93 108.19 170.51"/>
        <path fill="none" d="M99.15,-2.95 L 99.15 9.83 99.15 22.4 99.15 34.77 99.15 46.94 99.15 58.93 99.15 70.75 99.15 82.4 99.15 93.89 99.15 105.23 99.15 116.43 99.15 127.49 99.15 138.42 99.15 149.23 99.15 159.93 99.15 170.51"/>
        <path fill="none" d="M90.11,-2.95 L 90.11 9.83 90.11 22.4 90.11 34.77 90.11 46.94 90.11 58.93 90.11 70.75 90.11 82.4 90.11 93.89 90.11 105.23 90.11 116.43 90.11 127.49 90.11 138.42 90.11 149.23 90.11 159.93 90.11 170.51"/>
        <path fill="none" d="M81.07,-2.95 L 81.07 9.83 81.07 22.4 81.07 34.77 81.07 46.94 81.07 58.93 81.07 70.75 81.07 82.4 81.07 93.89 81.07 105.23 81.07 116.43 81.07 127.49 81.07 138.42 81.07 149.23 81.07 159.93 81.07 170.51"/>
        <path fill="none" d="M72.02,-2.95 L 72.02 9.83 72.02 22.4 72.02 34.77 72.02 46.94 72.02 58.93 72.02 70.75 72.02 82.4 72.02 93.89 72.02 105.23 72.02 116.43 72.02 127.49 72.02 138.42 72.02 149.23 72.02 159.93 72.02 170.51"/>
        <path fill="none" d="M62.98,-2.95 L 62.98 9.83 62.98 22.4 62.98 34.77 62.98 46.94 62.98 58.93 62.98 70.75 62.98 82.4 62.98 93.89 62.98 105.23 62.98 116.43 62.98 127.49 62.98 138.42 62.98 149.23 62.98 159.93 62.98 170.51"/>
        <path fill="none" d="M53.94,-2.95 L 53.94 9.83 53.94 22.4 53.94 34.77 53.94 46.94 53.94 58.93 53.94 70.75 53.94 82.4 53.94 93.89 53.94 105.23 53.94 116.43 53.94 127.49 53.94 138.42 53.94 149.23 53.94 159.93 53.94 170.51"/>
        <path fill="none" d="M44.89,-2.95 L 44.89 9.83 44.89 22.4 44.89 34.77 44.89 46.94 44.89 58.93 44.89 70.75 44.89 82.4 44.89 93.89 44.89 105.23 44.89 116.43 44.89 127.49 44.89 138.42 44.89 149.23 44.89 159.93 44.89 170.51"/>
        <path fill="none" d="M35.85,-2.95 L 35.85 9.83 35.85 22.4 35.85 34.77 35.85 46.94 35.85 58.93 35.85 70.75 35.85 82.4 35.85 93.89 35.85 105.23 35.85 116.43 35.85 127.49 35.85 138.42 35.85 149.23 35.85 159.93 35.85 170.51"/>
        <path fill="none" d="M26.81,-2.95 L 26.81 9.83 26.81 22.4 26.81 34.77 26.81 46.94 26.81 58.93 26.81 70.75 26.81 82.4 26.81 93.89 26.81 105.23 26.81 116.43 26.81 127.49 26.81 138.42 26.81 149.23 26.81 159.93 26.81 170.51"/>
        <path fill="none" d="M17.77,-2.95 L 17.77 9.83 17.77 22.4 17.77 34.77 17.77 46.94 17.77 58.93 17.77 70.75 17.77 82.4 17.77 93.89 17.77 105.23 17.77 116.43 17.77 127.49 17.77 138.42 17.77 149.23 17.77 159.93 17.77 170.51"/>
        <path fill="none" d="M8.72,-2.95 L 8.72 9.83 8.72 22.4 8.72 34.77 8.72 46.94 8.72 58.93 8.72 70.75 8.72 82.4 8.72 93.89 8.72 105.23 8.72 116.43 8.72 127.49 8.72 138.42 8.72 149.23 8.72 159.93 8.72 170.51"/>
        <g font-size="3.18" fill="#808080" id="img-7f06ef01-16">
          <text x="35.85" y="170.51" dy="0.35em">30</text>
          <text x="35.85" y="159.93" dy="0.35em">31</text>
          <text x="35.85" y="149.23" dy="0.35em">32</text>
          <text x="35.85" y="138.42" dy="0.35em">33</text>
          <text x="35.85" y="127.49" dy="0.35em">34</text>
          <text x="35.85" y="116.43" dy="0.35em">35</text>
          <text x="35.85" y="105.23" dy="0.35em">36</text>
          <text x="35.85" y="93.89" dy="0.35em">37</text>
          <text x="35.85" y="82.4" dy="0.35em">38</text>
          <text x="35.85" y="70.75" dy="0.35em">39</text>
          <text x="35.85" y="58.93" dy="0.35em">40</text>
          <text x="35.85" y="46.94" dy="0.35em">41</text>
          <text x="35.85" y="34.77" dy="0.35em">42</text>
          <text x="35.85" y="22.4" dy="0.35em">43</text>
          <text x="35.85" y="9.83" dy="0.35em">44</text>
          <text x="35.85" y="-2.95" dy="0.35em">45</text>
          <text x="153.41" y="138.42" text-anchor="middle" dy="0.6em">-111</text>
          <text x="144.37" y="138.42" text-anchor="middle" dy="0.6em">-112</text>
          <text x="135.32" y="138.42" text-anchor="middle" dy="0.6em">-113</text>
          <text x="126.28" y="138.42" text-anchor="middle" dy="0.6em">-114</text>
          <text x="117.24" y="138.42" text-anchor="middle" dy="0.6em">-115</text>
          <text x="108.19" y="138.42" text-anchor="middle" dy="0.6em">-116</text>
          <text x="99.15" y="138.42" text-anchor="middle" dy="0.6em">-117</text>
          <text x="90.11" y="138.42" text-anchor="middle" dy="0.6em">-118</text>
          <text x="81.07" y="138.42" text-anchor="middle" dy="0.6em">-119</text>
          <text x="72.02" y="138.42" text-anchor="middle" dy="0.6em">-120</text>
          <text x="62.98" y="138.42" text-anchor="middle" dy="0.6em">-121</text>
          <text x="53.94" y="138.42" text-anchor="middle" dy="0.6em">-122</text>
          <text x="44.89" y="138.42" text-anchor="middle" dy="0.6em">-123</text>
          <text x="35.85" y="138.42" text-anchor="middle" dy="0.6em">-124</text>
          <text x="26.81" y="138.42" text-anchor="middle" dy="0.6em">-125</text>
          <text x="17.77" y="138.42" text-anchor="middle" dy="0.6em">-126</text>
          <text x="8.72" y="138.42" text-anchor="middle" dy="0.6em">-127</text>
        </g>
      </g>
    </g>
  </g>
</g>
</g>
<defs>
  <clipPath id="img-7f06ef01-7">
  <path d="M17.9,5 L 143.75 5 143.75 172.8 17.9 172.8" />
</clipPath>
</defs>
</svg>
