<?xml version="1.0" encoding="UTF-8"?>
<svg xmlns="http://www.w3.org/2000/svg"
     xmlns:xlink="http://www.w3.org/1999/xlink"
     xmlns:gadfly="http://www.gadflyjl.org/ns"
     version="1.2"
     width="228.6mm" height="177.8mm" viewBox="0 0 228.6 177.8"
     stroke="none"
     fill="#000000"
     stroke-width="0.3"
     font-size="3.88"
>
<g class="plotroot xscalable yscalable" id="img-b2b5f069-1">
  <g class="guide colorkey" id="img-b2b5f069-2">
    <g font-size="2.82" font-family="'PT Sans','Helvetica Neue','Helvetica',sans-serif" fill="#4C404B" id="img-b2b5f069-3">
      <text x="219.52" y="110.17" dy="0.35em">1</text>
      <text x="219.52" y="82.86" dy="0.35em">40</text>
      <text x="219.52" y="96.86" dy="0.35em">20</text>
      <text x="219.52" y="103.86" dy="0.35em">10</text>
      <text x="219.52" y="89.86" dy="0.35em">30</text>
    </g>
    <g shape-rendering="crispEdges" stroke="#000000" stroke-opacity="0.000" id="img-b2b5f069-4">
      <rect x="217.21" y="109.48" width="1.31" height="0.68" fill="#004D84"/>
      <rect x="217.21" y="108.8" width="1.31" height="0.68" fill="#005B8D"/>
      <rect x="217.21" y="108.12" width="1.31" height="0.68" fill="#006995"/>
      <rect x="217.21" y="107.44" width="1.31" height="0.68" fill="#00769D"/>
      <rect x="217.21" y="106.75" width="1.31" height="0.68" fill="#0083A3"/>
      <rect x="217.21" y="106.07" width="1.31" height="0.68" fill="#278FA9"/>
      <rect x="217.21" y="105.39" width="1.31" height="0.68" fill="#409BAF"/>
      <rect x="217.21" y="104.71" width="1.31" height="0.68" fill="#55A7B5"/>
      <rect x="217.21" y="104.02" width="1.31" height="0.68" fill="#69B2BA"/>
      <rect x="217.21" y="103.34" width="1.31" height="0.68" fill="#7BBCC0"/>
      <rect x="217.21" y="102.66" width="1.31" height="0.68" fill="#8DC6C5"/>
      <rect x="217.21" y="101.97" width="1.31" height="0.68" fill="#9ED0CB"/>
      <rect x="217.21" y="101.29" width="1.31" height="0.68" fill="#A5CFC7"/>
      <rect x="217.21" y="100.61" width="1.31" height="0.68" fill="#ABCEC4"/>
      <rect x="217.21" y="99.93" width="1.31" height="0.68" fill="#B1CCC2"/>
      <rect x="217.21" y="99.24" width="1.31" height="0.68" fill="#B5CCC1"/>
      <rect x="217.21" y="98.56" width="1.31" height="0.68" fill="#B7CBBF"/>
      <rect x="217.21" y="97.88" width="1.31" height="0.68" fill="#B9CBBD"/>
      <rect x="217.21" y="97.19" width="1.31" height="0.68" fill="#BBCBBB"/>
      <rect x="217.21" y="96.51" width="1.31" height="0.68" fill="#BDCABA"/>
      <rect x="217.21" y="95.83" width="1.31" height="0.68" fill="#BFCAB8"/>
      <rect x="217.21" y="95.15" width="1.31" height="0.68" fill="#C2C9B7"/>
      <rect x="217.21" y="94.46" width="1.31" height="0.68" fill="#C4C9B6"/>
      <rect x="217.21" y="93.78" width="1.31" height="0.68" fill="#C6C8B5"/>
      <rect x="217.21" y="93.1" width="1.31" height="0.68" fill="#C9C7B4"/>
      <rect x="217.21" y="92.41" width="1.31" height="0.68" fill="#CCC7B2"/>
      <rect x="217.21" y="91.73" width="1.31" height="0.68" fill="#CFC6AE"/>
      <rect x="217.21" y="91.05" width="1.31" height="0.68" fill="#D4C5AA"/>
      <rect x="217.21" y="90.37" width="1.31" height="0.68" fill="#D8C3A6"/>
      <rect x="217.21" y="89.68" width="1.31" height="0.68" fill="#D3B79A"/>
      <rect x="217.21" y="89" width="1.31" height="0.68" fill="#CDAB8E"/>
      <rect x="217.21" y="88.32" width="1.31" height="0.68" fill="#C89E82"/>
      <rect x="217.21" y="87.64" width="1.31" height="0.68" fill="#C19177"/>
      <rect x="217.21" y="86.95" width="1.31" height="0.68" fill="#BA836C"/>
      <rect x="217.21" y="86.27" width="1.31" height="0.68" fill="#B27563"/>
      <rect x="217.21" y="85.59" width="1.31" height="0.68" fill="#AA665A"/>
      <rect x="217.21" y="84.9" width="1.31" height="0.68" fill="#A05752"/>
      <rect x="217.21" y="84.22" width="1.31" height="0.68" fill="#96484A"/>
      <rect x="217.21" y="83.54" width="1.31" height="0.68" fill="#8B3844"/>
      <rect x="217.21" y="82.86" width="1.31" height="0.68" fill="#7E273E"/>
      <g stroke="#FFFFFF" stroke-width="0.2" id="img-b2b5f069-5">
        <path fill="none" d="M217.21,110.17 L 218.52 110.17"/>
        <path fill="none" d="M217.21,82.86 L 218.52 82.86"/>
        <path fill="none" d="M217.21,96.86 L 218.52 96.86"/>
        <path fill="none" d="M217.21,103.86 L 218.52 103.86"/>
        <path fill="none" d="M217.21,89.86 L 218.52 89.86"/>
      </g>
    </g>
    <g fill="#362A35" font-size="3.88" font-family="'PT Sans','Helvetica Neue','Helvetica',sans-serif" stroke="#000000" stroke-opacity="0.000" id="img-b2b5f069-6">
      <text x="217.21" y="78.86">PCT</text>
    </g>
  </g>
<g clip-path="url(#img-b2b5f069-7)">
  <g id="img-b2b5f069-8">
    <g pointer-events="visible" opacity="1" fill="#000000" fill-opacity="0.000" stroke="#000000" stroke-opacity="0.000" class="guide background" id="img-b2b5f069-9">
      <rect x="5" y="10.07" width="210.21" height="157.66"/>
    </g>
    <g class="guide ygridlines xfixed" stroke-dasharray="0.5,0.5" stroke-width="0.2" stroke="#000000" stroke-opacity="0.000" id="img-b2b5f069-10">
      <path fill="none" d="M5,165.73 L 215.21 165.73"/>
      <path fill="none" d="M5,114.51 L 215.21 114.51"/>
      <path fill="none" d="M5,63.29 L 215.21 63.29"/>
      <path fill="none" d="M5,12.07 L 215.21 12.07"/>
    </g>
    <g class="guide xgridlines yfixed" stroke-dasharray="0.5,0.5" stroke-width="0.2" stroke="#000000" stroke-opacity="0.000" id="img-b2b5f069-11">
      <path fill="none" d="M7,10.07 L 7 167.73"/>
      <path fill="none" d="M58.55,10.07 L 58.55 167.73"/>
      <path fill="none" d="M110.1,10.07 L 110.1 167.73"/>
      <path fill="none" d="M161.65,10.07 L 161.65 167.73"/>
      <path fill="none" d="M213.21,10.07 L 213.21 167.73"/>
    </g>
    <g class="plotpanel" id="img-b2b5f069-12">
      <g class="geometry" stroke-width="0.3" id="img-b2b5f069-13">
        <path d="M104.72,46.1 L 105.12 45.94 105.91 45.8 106.09 45.23 106.33 44.71 107.13 44.86 107.02 44.21 107.1 43.67 107.05 43.02 106.26 42.67 106.77 42.26 107.16 41.44 106.88 40.78 107.36 40.6 107.65 40.71 107.92 40.12 107.64 39.57 107.74 38.82 108.65 38.94 108.8 38.68 108.94 38.01 109.59 37.75 109.33 37.41 108.67 36.78 109.14 35.95 109.73 36.05 110.5 35.56 111.34 35.18 111.27 34.64 111.35 34.27 112.22 33.98 112.2 33.85 112.16 33.6 111.76 33.23 111.23 32.49 111.7 32.21 111.84 31.33 112.27 31.03 112.85 30.58 112.49 29.91 112.44 29.88 111.7 29.32 111.86 28.99 112.73 29.13 113.29 28.57 112.63 28.13 112.75 27.65 113.39 27.63 113.65 27.63 113.79 27.15 113.42 26.56 113.67 25.97 113.46 25.46 114.86 25.44 115.69 25.41 117.22 25.35 120.05 25.4 121.55 25.4 121.63 25.4 121.75 25.4 125.2 25.41 125.25 25.41 125.51 25.41 129.66 25.45 130.51 25.43 130.55 25.43 130.74 24.69 130.48 23.57 130.32 22.9 130.99 22.91 132.85 23.1 132.81 23.53 134.63 23.48 135.24 23.47 135.24 23.47 138.61 23.42 138.75 23.42 141.28 23.38 141.9 23.37 144.75 23.33 145.32 23.31 147.12 23.27 147.63 23.43 147.75 23.47 148.25 23.26 149.36 23.32 151.72 23.45 153.14 23.53 154.36 23.6 155.53 23.67 156.51 23.7 157.16 23.72 159.95 23.79 160.55 23.75 162.16 23.64 162.22 23.63 162.39 23.64 164.45 23.69 165.85 23.8 166.2 23.83 168.02 23.96 168.02 23.96 168.1 23.96 171.3 24.05 174.03 24.11 174.42 24.12 174.43 24.12 177.17 24.15 177.18 24.15 177.83 24.18 178.25 24.2 180.58 24.25 180.76 24 183.09 24.01 185.34 24.03 188.69 24.07 190.46 24.1 193 24.08 194.4 24.07 196.61 24.08 197.2 24.08 197.99 24.08 198.31 24.08 200.74 24.09 200.88 23.78 201.98 23.8 204.04 23.84 203.69 24.18 203.43 24.9 203.49 25.88 203.04 26.65 203.14 26.99 203.36 27.71 202.64 27.68 201.9 27.59 201.04 28.23 200.92 28.44 200.74 28.76 200.45 29.28 199.66 30.74 199.07 31.01 199.06 31.01 198.53 31.02 198.37 30.57 197.56 30.25 197.46 30.33 196.94 30.7 196.57 30.61 196.01 30.87 195.29 31.32 195.2 31.47 194.66 32.4 194.16 32.75 193.59 33.15 192.98 32.86 193.15 32.13 193.04 31.97 192.78 31.62 191.67 32.24 191.04 32.6 190.95 33.17 190.62 33.57 190.11 33.24 189.73 33.43 189.54 33.53 189.66 34.26 189.23 34.93 188.9 35.37 188.76 35.56 187.95 35.48 187.4 35.65 186.66 35.83 186.24 36.36 185.58 36.49 185.57 36.51 185.47 36.67 185.1 37.31 184.53 37.27 183.67 37.96 183.32 38.08 182.79 38.64 181.76 38.58 181.02 38.56 180.9 38.57 179.65 38.65 178.77 39.25 177.99 39.89 177.57 40.08 177.51 40.11 177.34 40.19 176.78 40.82 176.95 41.32 176.6 41.64 176.76 42.38 176.7 42.43 175.92 43.05 174.99 43.15 174.47 42.75 173.78 43.34 173.74 43.64 173.34 46.66 171.19 46.67 169.9 46.67 168.69 46.67 168.13 46.67 167.73 46.67 167.15 46.67 165.82 46.68 165.79 46.68 165.04 46.69 162.51 46.71 162.37 46.71 161.38 46.73 161.14 46.74 160.11 46.73 158.61 46.72 155.64 46.68 150.51 46.63 150.42 46.63 148.71 46.63 145.09 46.62 145.09 46.62 144.48 46.6 140.18 46.52 140.11 46.52 140.03 46.51 135.65 46.45 135.43 46.45 132.82 46.42 131.3 46.42 131.12 46.42 128.8 46.39 128.83 46.56 128.16 46.57 126.95 46.56 126.76 46.56 125.73 46.56 122.1 46.57 121.68 46.57 119.45 46.57 119.34 46.57 117.37 46.58 115.6 46.59 114.65 46.59 112.25 46.59 111.33 46.58 110.93 46.58 110.52 46.58 104.62 46.56 104.72 46.1 z" fill="#B7CBBF" stroke="#FFFFFF"/>
        <path d="M89.56,97.34 L 90.22 97.43 90.85 97.02 90.54 96.4 90.58 95.71 90.83 95.06 90.76 94.26 91.07 93.78 91.67 93.62 91.44 93.07 91.37 92.63 92.15 92.31 92.32 91.13 92.33 91.13 93.04 90.96 93.01 90.92 92.57 90.23 92.72 89.65 93.36 89.77 93.89 89.29 94 89.19 94.61 88.61 94.66 87.9 95.34 87.71 95.76 87.22 95.78 86.86 96.29 86.18 96.24 86.08 95.45 84.73 96.79 84.65 97.29 83.72 97.6 82.93 96.85 82.8 97.08 81.81 96.09 81.63 96 80.63 96.56 80.57 96.13 79.81 96.13 79.8 96.06 79.73 95.78 79.43 95.56 78.29 96.04 77.74 95.39 77.55 94.88 77.06 94.84 76.56 95.11 76.07 95.88 75.53 95.87 74.86 95.15 74.28 94.79 73.96 94.86 73.86 95.31 73.27 94.62 72.68 94.94 72.18 95.5 72.22 95.72 71.55 95.9 70.84 95.7 70.29 95.25 70.2 95.06 69.26 95.39 68.66 95 68.19 94.72 67.71 94.52 67.29 94.22 66.8 94.33 66.56 94.52 66.15 95.19 65.68 94.65 65.13 95.53 65 95.83 64.26 95.05 63.81 95.41 63.44 95.71 63.41 96.38 63.59 96.4 63.01 96.09 62.76 95.99 62.02 96.39 61.61 96.28 61.11 95.67 60.87 96.14 60.55 96.64 60.66 96.92 60.34 97.35 60.09 97.93 59.97 98.13 59.35 97.83 59.04 97.31 58.84 97.33 58.73 97.33 58.69 97.4 58.29 97.9 58.12 98.04 57.8 97.9 57.25 98.53 57.09 98.84 56.49 99.53 56.35 99.39 55.62 99.8 55.32 100.59 55.71 100.81 55.05 101.57 54.62 101.47 54.01 101.64 53.1 101.87 52.5 101.43 51.84 101.59 51.59 101.86 51.18 101.9 50.64 102.37 49.78 102.73 49.44 102.85 48.8 103.49 48.79 103.56 48.79 104.57 48.29 104.6 48.27 105.3 47.79 105.36 47.37 104.62 46.56 110.52 46.58 110.93 46.58 111.33 46.58 112.25 46.59 114.65 46.59 115.6 46.59 117.37 46.58 119.34 46.57 119.45 46.57 121.68 46.57 122.1 46.57 125.73 46.56 126.76 46.56 126.95 46.56 128.16 46.57 128.83 46.56 129.35 47.58 130 48 129.58 51.74 129.52 52.31 129.35 53.95 129.14 55.92 128.79 59.15 128.75 59.54 128.27 63.84 128.2 64.48 127.97 66.73 127.63 70.09 127.48 71.51 127.22 74.13 127.14 74.98 126.84 77.93 126.66 79.74 126.29 83.38 126.21 84.17 126.18 84.47 125.92 86.82 125.75 88.43 125.75 88.96 125.75 90.35 125.8 91.59 125.85 92.61 125.97 95.1 125.98 95.29 126.17 99.39 126.23 100.93 126.39 104.42 126.39 104.47 126.49 106.97 126.59 109.27 126.42 109.63 126 109.56 125.71 109.92 125.13 109.66 124.45 109.78 124.09 109.48 123.51 109.37 123.08 109.61 122.55 109.56 121.94 109.43 121.73 109.39 120.86 108.96 119.98 108.99 118.69 109.29 117.5 109.78 116.27 110.09 116.12 110.14 115.69 110.28 114.77 110.91 114.51 111.44 114.19 111.62 113.63 111.76 112.67 111.28 112.37 110.08 111.86 108.68 111.61 108.15 111.47 107.84 110.56 106.86 110.21 105.64 110.16 105.31 110.05 104.53 110.56 103.3 111.04 102.07 111.29 100.88 111.29 100.88 110.05 100.88 109.35 100.89 105.19 100.9 104.2 100.91 104.18 100.91 101.88 100.91 101.66 100.91 99.46 100.92 98.69 100.92 96 100.92 94.67 100.92 94.12 100.92 89.38 100.92 89.48 100.84 90.26 100.25 89.87 99.69 89.56 99.09 89.91 98.35 89.92 98.33 89.3 97.79 89.56 97.34 z" fill="#9B4F4E" stroke="#FFFFFF"/>
        <path d="M55.17,25.43 L 58.11 25.43 61.38 25.44 62.73 25.44 63.79 25.44 65.7 25.44 67.03 25.44 68.84 25.45 70.12 25.45 70.37 25.45 72.29 25.46 75.41 25.45 75.59 25.45 76.35 25.45 78.74 25.45 79.14 25.45 81.19 25.46 83.49 25.45 83.83 25.45 85.38 25.45 88.98 25.44 89.32 25.44 91.53 25.46 92.02 25.47 92.04 25.47 95.24 25.46 96.49 25.45 99.17 25.45 99.38 25.45 101.56 25.45 102.49 25.45 105.64 25.48 106.4 25.49 106.55 26 106.67 26.63 107.41 27.04 107.44 27.45 107.44 28.22 106.85 28.75 106.38 29.47 106 29.69 105.64 29.89 105.47 30.53 104.79 30.9 104.27 31.83 103.94 32.56 104.85 32.55 106.98 32.52 108.64 32.51 109.3 32.51 111.23 32.49 111.76 33.23 112.16 33.6 112.2 33.85 112.22 33.98 111.35 34.27 111.27 34.64 111.34 35.18 110.5 35.56 109.73 36.05 109.14 35.95 108.67 36.78 109.33 37.41 109.59 37.75 108.94 38.01 108.8 38.68 108.65 38.94 107.74 38.82 107.64 39.57 107.92 40.12 107.65 40.71 107.36 40.6 106.88 40.78 107.16 41.44 106.77 42.26 106.26 42.67 107.05 43.02 107.1 43.67 107.02 44.21 107.13 44.86 106.33 44.71 106.09 45.23 105.91 45.8 105.12 45.94 104.72 46.1 104.62 46.56 105.36 47.37 105.3 47.79 104.6 48.27 104.57 48.29 103.56 48.79 103.49 48.79 102.85 48.8 102.73 49.44 102.37 49.78 101.9 50.64 101.86 51.18 101.59 51.59 101.43 51.84 101.87 52.5 101.64 53.1 101.47 54.01 101.57 54.62 100.81 55.05 100.59 55.71 99.8 55.32 99.39 55.62 99.53 56.35 98.84 56.49 98.53 57.09 97.9 57.25 98.04 57.8 97.9 58.12 97.4 58.29 97.33 58.69 97.33 58.73 97.31 58.84 97.83 59.04 98.13 59.35 97.93 59.97 97.35 60.09 96.92 60.34 96.64 60.66 96.14 60.55 95.67 60.87 96.28 61.11 96.39 61.61 95.99 62.02 96.09 62.76 96.4 63.01 96.38 63.59 95.71 63.41 95.41 63.44 95.05 63.81 95.83 64.26 95.53 65 94.65 65.13 95.19 65.68 94.52 66.15 94.33 66.56 94.22 66.8 94.52 67.29 94.72 67.71 95 68.19 95.39 68.66 95.06 69.26 95.25 70.2 95.7 70.29 95.9 70.84 95.72 71.55 95.5 72.22 94.94 72.18 94.62 72.68 95.31 73.27 94.86 73.86 94.79 73.96 93.66 73.95 91.69 73.94 91.41 73.93 91.08 73.93 86.65 73.91 84.42 73.9 84.42 73.9 82.66 73.89 79.46 73.85 76.91 73.82 76.9 73.82 74.07 73.78 73.87 73.78 71.47 73.77 71 73.77 69.41 73.77 68.11 73.76 67.76 73.76 65.44 73.75 64.5 73.75 64.39 73.75 61.77 73.75 61.77 71.83 61.77 70.32 61.77 69.51 61.77 68.08 61.76 66.49 61.76 66.49 61.43 66.21 60.62 66.13 60.16 65.94 59.81 66.23 59.52 66.15 58.77 66.32 58.38 66.28 58.2 66.43 57.81 66.3 57.45 66.14 56.68 65.31 56.73 63.24 56.78 61.15 56.81 60.07 56.86 57.73 56.92 55.38 56.97 53.34 57.01 51.57 57.04 50.27 57.11 48.03 57.12 47.42 57.18 45.63 57.26 42.66 57.31 41.35 57.28 41.11 57.27 41.02 57.1 39.57 56.83 37.58 56.6 35.89 56.58 35.76 56.15 32.67 55.93 31.05 55.81 30.21 55.53 28.26 55.17 25.43 z" fill="#B5CCC2" stroke="#FFFFFF"/>
        <path d="M125.75,88.96 L 125.75 88.43 125.92 86.82 126.18 84.47 126.21 84.17 126.29 83.38 126.66 79.74 126.84 77.93 127.14 74.98 127.22 74.13 127.48 71.51 127.63 70.09 127.97 66.73 128.2 64.48 128.27 63.84 128.75 59.54 128.79 59.15 129.14 55.92 129.35 53.95 129.52 52.31 129.58 51.74 130 48 129.35 47.58 128.83 46.56 128.8 46.39 131.12 46.42 131.3 46.42 132.82 46.42 135.43 46.45 135.65 46.45 140.03 46.51 140.11 46.52 140.18 46.52 144.48 46.6 145.09 46.62 145.09 46.62 148.71 46.63 150.42 46.63 150.51 46.63 155.64 46.68 158.61 46.72 158.73 47.56 158.87 48.44 159.11 49.98 159.42 51.73 159.51 52.21 159.67 53.11 159.79 53.8 160.1 55.6 160.24 56.4 160.63 58.62 160.72 59.23 160.98 60.83 160.98 60.83 161.12 61.69 161.42 63.53 161.68 65.1 161.95 66.79 162.06 67.43 162.18 68.18 162.84 72.25 162.89 72.55 162.89 72.55 163.42 75.78 163.44 75.9 163.71 76.37 164.13 77.39 164.25 77.68 164.54 78.66 164.68 79.33 164.76 79.67 165.48 80.47 165.54 80.66 165.56 80.7 165.88 81.57 165.77 82.43 165.75 82.64 165.46 83 166.07 83.42 166.8 83.99 166.48 84.43 166.36 84.59 165.58 85.04 164.88 85.71 165.02 86.36 164.97 86.7 164.83 87.65 164.78 87.98 164.25 88.97 163.93 89.7 164.07 90.49 164.12 90.72 164.19 91.13 164.12 91.63 164.89 92.63 164.89 93.29 165.08 93.64 164.96 93.98 164.73 94.66 164.8 95.16 164.5 96.07 164.55 96.62 164.54 96.8 164.53 96.98 164.32 97.47 164.32 98.43 165.15 99.47 165.31 99.91 165.43 100.2 165.53 100.9 165.2 100.9 163.88 100.9 161.73 100.92 159.95 100.94 159.84 100.94 158.91 100.95 156.95 100.97 155.3 101 153.68 100.99 151.93 100.99 149.89 100.98 149.62 100.98 147.61 100.97 146.18 100.96 145.06 100.95 144.53 100.95 143.43 100.94 140.74 100.92 140.73 100.92 139.02 100.93 137.71 100.94 136.64 100.94 135.73 100.95 135.73 100.95 135.81 101.56 135.31 102.69 136.38 104 136.59 104.39 137.53 104.99 138.01 105.46 138 106.16 137.65 106.88 137.5 107.45 137.84 108.11 138.39 108.38 137.65 108.83 137.41 109.61 136.65 110.45 135.06 110.85 133.2 111.14 132.35 110.99 133.35 110.46 133.46 109.87 132.67 109.09 132.11 108.26 131.89 107.71 132.25 106.87 132.1 106.41 131.92 105.52 131.03 105.1 130.41 105.63 130.38 106.38 130.19 106.93 129.93 107.53 129.91 108.84 129.56 109.92 128.88 109.91 128.17 109.94 127.55 109.28 126.95 109.03 126.59 109.27 126.49 106.97 126.39 104.47 126.39 104.42 126.23 100.93 126.17 99.39 125.98 95.29 125.97 95.1 125.85 92.61 125.8 91.59 125.75 90.35 125.75 88.96 z" fill="#CEC6AF" stroke="#FFFFFF"/>
        <path d="M61.77,78.18 L 61.77 76.77 61.77 75.63 61.77 73.75 64.39 73.75 64.5 73.75 65.44 73.75 67.76 73.76 68.11 73.76 69.41 73.77 71 73.77 71.47 73.77 73.87 73.78 74.07 73.78 76.9 73.82 76.91 73.82 79.46 73.85 82.66 73.89 84.42 73.9 84.42 73.9 86.65 73.91 91.08 73.93 91.41 73.93 91.69 73.94 93.66 73.95 94.79 73.96 95.15 74.28 95.87 74.86 95.88 75.53 95.11 76.07 94.84 76.56 94.88 77.06 95.39 77.55 96.04 77.74 95.56 78.29 95.78 79.43 96.06 79.73 96.13 79.8 96.13 79.81 96.56 80.57 96 80.63 96.09 81.63 97.08 81.81 96.85 82.8 97.6 82.93 97.29 83.72 96.79 84.65 95.45 84.73 96.24 86.08 96.29 86.18 95.78 86.86 95.76 87.22 95.34 87.71 94.66 87.9 94.61 88.61 94 89.19 93.89 89.29 93.36 89.77 92.72 89.65 92.57 90.23 93.01 90.92 93.04 90.96 92.33 91.13 92.32 91.13 92.15 92.31 91.37 92.63 91.44 93.07 91.67 93.62 91.07 93.78 90.76 94.26 90.83 95.06 90.58 95.71 90.54 96.4 90.85 97.02 90.22 97.43 89.56 97.34 89.3 97.79 89.92 98.33 89.91 98.35 89.56 99.09 89.87 99.69 90.26 100.25 89.48 100.84 89.38 100.92 94.12 100.92 94.67 100.92 96 100.92 98.69 100.92 99.46 100.92 101.66 100.91 101.88 100.91 104.18 100.91 104.2 100.91 105.19 100.9 109.35 100.89 110.05 100.88 111.29 100.88 111.29 100.88 111.04 102.07 110.56 103.3 110.05 104.53 110.16 105.31 110.21 105.64 110.56 106.86 111.47 107.84 111.61 108.15 111.86 108.68 112.37 110.08 112.67 111.28 113.63 111.76 112.7 112.26 112.11 112.59 111.8 113.14 110.67 113.55 109.95 113.9 109.95 113.93 109.86 114.77 110.51 115.01 111.1 115.23 111.59 115.8 112.22 115.94 112.78 115.71 113.05 114.36 113.98 113.61 114.54 113.34 115.72 113.37 116.17 112.94 116.97 112.37 117.54 112.18 117.51 113.3 117.17 114.23 116.99 115.13 116.94 115.76 116.28 116.74 116.54 117.35 115.07 117.16 115.01 118.33 114.3 118.72 113.9 118.96 113.85 118.99 113.5 118.76 112.74 119.27 113.17 120.14 113.11 120.79 113.54 121.57 114.11 121.94 115.29 122.13 116.07 122.18 116.69 122.85 117.35 122.75 118.11 123.6 118.31 124.38 119.35 124.44 119.48 125.07 118.88 126.06 118.31 126.28 117.94 126.86 118.01 127.36 117.14 126.95 116.67 126.49 115.95 127.11 115.05 128.11 115.02 127.03 115.5 126.31 115.17 125.64 114.68 125.3 114.11 124.44 113.17 124.08 112.68 123.96 112.31 123.45 111.31 123.28 109.98 123.08 109.51 123.24 109.29 123.42 108.67 123.94 107.5 124.85 107.14 125.1 106.76 125.37 105.6 126.14 104.33 126.42 103.47 126.49 103.09 126.52 102.57 126.48 100.69 126.49 99.58 126.73 98.84 126.7 98.21 126.52 98.1 125.88 97.36 125.13 96.69 125.04 95.61 124.8 94.88 124.4 93.49 124.01 92.85 123.35 93.52 122.94 93.65 122.53 93.64 122.53 92.86 122.13 92.51 121.75 92.7 121.44 92.17 120.75 91.4 121.11 91.12 120.72 90.6 120.3 90.52 119.85 90.47 119.48 89.8 118.99 89.3 119 89.53 118.1 89.04 117.49 88.23 117.44 87.42 117.76 86.9 118.05 86.79 118.52 86.67 119.04 87.47 119.45 88.53 119.8 87.87 120.84 87.26 121.05 86.19 120.47 84.87 119.76 84.72 119.7 84.47 119.59 83.39 119.64 82.32 120.2 81.5 120.3 80.51 120.09 79.78 119.91 78.7 119.7 78.13 119.55 77.36 119.34 75.11 118.35 73.82 117.78 72.73 117.44 71.71 117.16 70.35 117.1 69.02 117.21 67.56 117.26 65.22 117.61 64.56 117.89 64.12 118.21 63.83 117.77 63.51 117.28 63.07 116.74 63.72 116.1 63.96 115.83 64.21 115.54 64.47 114.74 65.23 113.86 65.63 113.46 65.66 113.43 65.68 112.66 65.66 111.85 65.55 111.18 65.58 110.93 65.62 110.51 65.01 109.79 65.18 108.91 65.26 108.84 65.67 108.47 65.59 107.46 65.37 106.95 65.88 106.32 65.87 105.89 66.51 105.16 66.65 104.39 67.2 103.53 67.33 102.65 67.37 102.54 67.64 101.91 67.43 101.35 67.55 100.8 67.64 100.22 67.54 99.2 67.6 98.44 67.4 98.45 66.84 98.48 66.82 98.48 66.69 97.46 65.99 96.9 66.07 95.91 65.73 95.2 65.14 94.66 65.41 94.19 64.7 93.88 64.15 93.09 64.15 93.09 64.36 92.6 64.52 91.55 63.94 90.15 63.66 89.63 63.3 88.97 62.52 88.53 61.92 87.81 61.78 87.64 61.77 85.68 61.77 84.9 61.77 82.64 61.77 82.25 61.77 79.93 61.77 78.18 z" fill="#C4987C" stroke="#FFFFFF"/>
      </g>
    </g>
    <g class="geometry" id="img-b2b5f069-14">
      <g stroke-dasharray="0.5,0.5" stroke-width="0.1" stroke="#808080" id="img-b2b5f069-15">
        <path fill="none" d="M16.35,165.82 L 39.31 165.82 62.26 165.82 85.21 165.82 108.17 165.82 131.12 165.82 154.08 165.82 177.03 165.82 199.99 165.82 222.94 165.82 245.9 165.82"/>
        <path fill="none" d="M16.35,153.08 L 39.31 153.08 62.26 153.08 85.21 153.08 108.17 153.08 131.12 153.08 154.08 153.08 177.03 153.08 199.99 153.08 222.94 153.08 245.9 153.08"/>
        <path fill="none" d="M16.35,140.22 L 39.31 140.22 62.26 140.22 85.21 140.22 108.17 140.22 131.12 140.22 154.08 140.22 177.03 140.22 199.99 140.22 222.94 140.22 245.9 140.22"/>
        <path fill="none" d="M16.35,127.25 L 39.31 127.25 62.26 127.25 85.21 127.25 108.17 127.25 131.12 127.25 154.08 127.25 177.03 127.25 199.99 127.25 222.94 127.25 245.9 127.25"/>
        <path fill="none" d="M16.35,114.15 L 39.31 114.15 62.26 114.15 85.21 114.15 108.17 114.15 131.12 114.15 154.08 114.15 177.03 114.15 199.99 114.15 222.94 114.15 245.9 114.15"/>
        <path fill="none" d="M16.35,100.91 L 39.31 100.91 62.26 100.91 85.21 100.91 108.17 100.91 131.12 100.91 154.08 100.91 177.03 100.91 199.99 100.91 222.94 100.91 245.9 100.91"/>
        <path fill="none" d="M16.35,87.54 L 39.31 87.54 62.26 87.54 85.21 87.54 108.17 87.54 131.12 87.54 154.08 87.54 177.03 87.54 199.99 87.54 222.94 87.54 245.9 87.54"/>
        <path fill="none" d="M16.35,74.02 L 39.31 74.02 62.26 74.02 85.21 74.02 108.17 74.02 131.12 74.02 154.08 74.02 177.03 74.02 199.99 74.02 222.94 74.02 245.9 74.02"/>
        <path fill="none" d="M16.35,60.34 L 39.31 60.34 62.26 60.34 85.21 60.34 108.17 60.34 131.12 60.34 154.08 60.34 177.03 60.34 199.99 60.34 222.94 60.34 245.9 60.34"/>
        <path fill="none" d="M16.35,46.5 L 39.31 46.5 62.26 46.5 85.21 46.5 108.17 46.5 131.12 46.5 154.08 46.5 177.03 46.5 199.99 46.5 222.94 46.5 245.9 46.5"/>
        <path fill="none" d="M16.35,32.5 L 39.31 32.5 62.26 32.5 85.21 32.5 108.17 32.5 131.12 32.5 154.08 32.5 177.03 32.5 199.99 32.5 222.94 32.5 245.9 32.5"/>
        <path fill="none" d="M16.35,18.31 L 39.31 18.31 62.26 18.31 85.21 18.31 108.17 18.31 131.12 18.31 154.08 18.31 177.03 18.31 199.99 18.31 222.94 18.31 245.9 18.31"/>
        <path fill="none" d="M16.35,3.94 L 39.31 3.94 62.26 3.94 85.21 3.94 108.17 3.94 131.12 3.94 154.08 3.94 177.03 3.94 199.99 3.94 222.94 3.94 245.9 3.94"/>
        <path fill="none" d="M16.35,-10.63 L 39.31 -10.63 62.26 -10.63 85.21 -10.63 108.17 -10.63 131.12 -10.63 154.08 -10.63 177.03 -10.63 199.99 -10.63 222.94 -10.63 245.9 -10.63"/>
        <path fill="none" d="M245.9,-10.63 L 245.9 3.94 245.9 18.31 245.9 32.5 245.9 46.5 245.9 60.34 245.9 74.02 245.9 87.54 245.9 100.91 245.9 114.15 245.9 127.25 245.9 140.22 245.9 153.08 245.9 165.82"/>
        <path fill="none" d="M222.94,-10.63 L 222.94 3.94 222.94 18.31 222.94 32.5 222.94 46.5 222.94 60.34 222.94 74.02 222.94 87.54 222.94 100.91 222.94 114.15 222.94 127.25 222.94 140.22 222.94 153.08 222.94 165.82"/>
        <path fill="none" d="M199.99,-10.63 L 199.99 3.94 199.99 18.31 199.99 32.5 199.99 46.5 199.99 60.34 199.99 74.02 199.99 87.54 199.99 100.91 199.99 114.15 199.99 127.25 199.99 140.22 199.99 153.08 199.99 165.82"/>
        <path fill="none" d="M177.03,-10.63 L 177.03 3.94 177.03 18.31 177.03 32.5 177.03 46.5 177.03 60.34 177.03 74.02 177.03 87.54 177.03 100.91 177.03 114.15 177.03 127.25 177.03 140.22 177.03 153.08 177.03 165.82"/>
        <path fill="none" d="M154.08,-10.63 L 154.08 3.94 154.08 18.31 154.08 32.5 154.08 46.5 154.08 60.34 154.08 74.02 154.08 87.54 154.08 100.91 154.08 114.15 154.08 127.25 154.08 140.22 154.08 153.08 154.08 165.82"/>
        <path fill="none" d="M131.12,-10.63 L 131.12 3.94 131.12 18.31 131.12 32.5 131.12 46.5 131.12 60.34 131.12 74.02 131.12 87.54 131.12 100.91 131.12 114.15 131.12 127.25 131.12 140.22 131.12 153.08 131.12 165.82"/>
        <path fill="none" d="M108.17,-10.63 L 108.17 3.94 108.17 18.31 108.17 32.5 108.17 46.5 108.17 60.34 108.17 74.02 108.17 87.54 108.17 100.91 108.17 114.15 108.17 127.25 108.17 140.22 108.17 153.08 108.17 165.82"/>
        <path fill="none" d="M85.21,-10.63 L 85.21 3.94 85.21 18.31 85.21 32.5 85.21 46.5 85.21 60.34 85.21 74.02 85.21 87.54 85.21 100.91 85.21 114.15 85.21 127.25 85.21 140.22 85.21 153.08 85.21 165.82"/>
        <path fill="none" d="M62.26,-10.63 L 62.26 3.94 62.26 18.31 62.26 32.5 62.26 46.5 62.26 60.34 62.26 74.02 62.26 87.54 62.26 100.91 62.26 114.15 62.26 127.25 62.26 140.22 62.26 153.08 62.26 165.82"/>
        <path fill="none" d="M39.31,-10.63 L 39.31 3.94 39.31 18.31 39.31 32.5 39.31 46.5 39.31 60.34 39.31 74.02 39.31 87.54 39.31 100.91 39.31 114.15 39.31 127.25 39.31 140.22 39.31 153.08 39.31 165.82"/>
        <path fill="none" d="M16.35,-10.63 L 16.35 3.94 16.35 18.31 16.35 32.5 16.35 46.5 16.35 60.34 16.35 74.02 16.35 87.54 16.35 100.91 16.35 114.15 16.35 127.25 16.35 140.22 16.35 153.08 16.35 165.82"/>
        <g font-size="3.18" fill="#808080" id="img-b2b5f069-16">
          <text x="39.31" y="165.82" dy="0.35em">26</text>
          <text x="39.31" y="153.08" dy="0.35em">27</text>
          <text x="39.31" y="140.22" dy="0.35em">28</text>
          <text x="39.31" y="127.25" dy="0.35em">29</text>
          <text x="39.31" y="114.15" dy="0.35em">30</text>
          <text x="39.31" y="100.91" dy="0.35em">31</text>
          <text x="39.31" y="87.54" dy="0.35em">32</text>
          <text x="39.31" y="74.02" dy="0.35em">33</text>
          <text x="39.31" y="60.34" dy="0.35em">34</text>
          <text x="39.31" y="46.5" dy="0.35em">35</text>
          <text x="39.31" y="32.5" dy="0.35em">36</text>
          <text x="39.31" y="18.31" dy="0.35em">37</text>
          <text x="39.31" y="3.94" dy="0.35em">38</text>
          <text x="39.31" y="-10.63" dy="0.35em">39</text>
          <text x="245.9" y="127.25" text-anchor="middle" dy="0.6em">-78</text>
          <text x="222.94" y="127.25" text-anchor="middle" dy="0.6em">-80</text>
          <text x="199.99" y="127.25" text-anchor="middle" dy="0.6em">-82</text>
          <text x="177.03" y="127.25" text-anchor="middle" dy="0.6em">-84</text>
          <text x="154.08" y="127.25" text-anchor="middle" dy="0.6em">-86</text>
          <text x="131.12" y="127.25" text-anchor="middle" dy="0.6em">-88</text>
          <text x="108.17" y="127.25" text-anchor="middle" dy="0.6em">-90</text>
          <text x="85.21" y="127.25" text-anchor="middle" dy="0.6em">-92</text>
          <text x="62.26" y="127.25" text-anchor="middle" dy="0.6em">-94</text>
          <text x="39.31" y="127.25" text-anchor="middle" dy="0.6em">-96</text>
          <text x="16.35" y="127.25" text-anchor="middle" dy="0.6em">-98</text>
        </g>
      </g>
    </g>
  </g>
</g>
</g>
<defs>
  <clipPath id="img-b2b5f069-7">
  <path d="M5,10.07 L 215.21 10.07 215.21 167.73 5 167.73" />
</clipPath>
</defs>
</svg>
