<?xml version="1.0" encoding="UTF-8"?>
<svg xmlns="http://www.w3.org/2000/svg"
     xmlns:xlink="http://www.w3.org/1999/xlink"
     xmlns:gadfly="http://www.gadflyjl.org/ns"
     version="1.2"
     width="228.6mm" height="177.8mm" viewBox="0 0 228.6 177.8"
     stroke="none"
     fill="#000000"
     stroke-width="0.3"
     font-size="3.88"
>
<g class="plotroot xscalable yscalable" id="img-4aefe5d5-1">
  <g font-size="3.88" font-family="'PT Sans','Helvetica Neue','Helvetica',sans-serif" fill="#564A55" stroke="#000000" stroke-opacity="0.000" id="img-4aefe5d5-2">
    <text x="117.09" y="166.19" text-anchor="middle" dy="0.6em">CM_X</text>
  </g>
  <g class="guide xlabels" font-size="2.82" font-family="'PT Sans Caption','Helvetica Neue','Helvetica',sans-serif" fill="#6C606B" id="img-4aefe5d5-3">
    <text x="61.52" y="159.51" text-anchor="middle" dy="0.6em">-1.40×10⁷</text>
    <text x="98.56" y="159.51" text-anchor="middle" dy="0.6em">-1.35×10⁷</text>
    <text x="135.61" y="159.51" text-anchor="middle" dy="0.6em">-1.30×10⁷</text>
    <text x="172.65" y="159.51" text-anchor="middle" dy="0.6em">-1.25×10⁷</text>
  </g>
  <g class="guide colorkey" id="img-4aefe5d5-4">
    <g font-size="2.82" font-family="'PT Sans','Helvetica Neue','Helvetica',sans-serif" fill="#4C404B" id="img-4aefe5d5-5">
      <text x="178.97" y="95.23" dy="0.35em">2×10¹⁰</text>
      <text x="178.97" y="77.64" dy="0.35em">5×10¹⁰</text>
      <text x="178.97" y="101.1" dy="0.35em">1×10¹⁰</text>
      <text x="178.97" y="71.77" dy="0.35em">6×10¹⁰</text>
      <text x="178.97" y="89.37" dy="0.35em">3×10¹⁰</text>
      <text x="178.97" y="106.96" dy="0.35em">1×10⁰</text>
      <text x="178.97" y="83.5" dy="0.35em">4×10¹⁰</text>
    </g>
    <g shape-rendering="crispEdges" stroke="#000000" stroke-opacity="0.000" id="img-4aefe5d5-6">
      <rect x="176.65" y="106.09" width="1.31" height="0.88" fill="#004D84"/>
      <rect x="176.65" y="105.21" width="1.31" height="0.88" fill="#005B8D"/>
      <rect x="176.65" y="104.33" width="1.31" height="0.88" fill="#006995"/>
      <rect x="176.65" y="103.45" width="1.31" height="0.88" fill="#00769D"/>
      <rect x="176.65" y="102.57" width="1.31" height="0.88" fill="#0083A3"/>
      <rect x="176.65" y="101.69" width="1.31" height="0.88" fill="#278FA9"/>
      <rect x="176.65" y="100.81" width="1.31" height="0.88" fill="#409BAF"/>
      <rect x="176.65" y="99.93" width="1.31" height="0.88" fill="#55A7B5"/>
      <rect x="176.65" y="99.05" width="1.31" height="0.88" fill="#69B2BA"/>
      <rect x="176.65" y="98.17" width="1.31" height="0.88" fill="#7BBCC0"/>
      <rect x="176.65" y="97.29" width="1.31" height="0.88" fill="#8DC6C5"/>
      <rect x="176.65" y="96.41" width="1.31" height="0.88" fill="#9ED0CB"/>
      <rect x="176.65" y="95.53" width="1.31" height="0.88" fill="#A5CFC7"/>
      <rect x="176.65" y="94.65" width="1.31" height="0.88" fill="#ABCEC4"/>
      <rect x="176.65" y="93.77" width="1.31" height="0.88" fill="#B1CCC2"/>
      <rect x="176.65" y="92.89" width="1.31" height="0.88" fill="#B5CCC1"/>
      <rect x="176.65" y="92.01" width="1.31" height="0.88" fill="#B7CBBF"/>
      <rect x="176.65" y="91.13" width="1.31" height="0.88" fill="#B9CBBD"/>
      <rect x="176.65" y="90.25" width="1.31" height="0.88" fill="#BBCBBB"/>
      <rect x="176.65" y="89.37" width="1.31" height="0.88" fill="#BDCABA"/>
      <rect x="176.65" y="88.49" width="1.31" height="0.88" fill="#BFCAB8"/>
      <rect x="176.65" y="87.61" width="1.31" height="0.88" fill="#C2C9B7"/>
      <rect x="176.65" y="86.73" width="1.31" height="0.88" fill="#C4C9B6"/>
      <rect x="176.65" y="85.85" width="1.31" height="0.88" fill="#C6C8B5"/>
      <rect x="176.65" y="84.97" width="1.31" height="0.88" fill="#C9C7B4"/>
      <rect x="176.65" y="84.09" width="1.31" height="0.88" fill="#CCC7B2"/>
      <rect x="176.65" y="83.21" width="1.31" height="0.88" fill="#CFC6AE"/>
      <rect x="176.65" y="82.33" width="1.31" height="0.88" fill="#D4C5AA"/>
      <rect x="176.65" y="81.45" width="1.31" height="0.88" fill="#D8C3A6"/>
      <rect x="176.65" y="80.57" width="1.31" height="0.88" fill="#D3B79A"/>
      <rect x="176.65" y="79.69" width="1.31" height="0.88" fill="#CDAB8E"/>
      <rect x="176.65" y="78.81" width="1.31" height="0.88" fill="#C89E82"/>
      <rect x="176.65" y="77.93" width="1.31" height="0.88" fill="#C19177"/>
      <rect x="176.65" y="77.05" width="1.31" height="0.88" fill="#BA836C"/>
      <rect x="176.65" y="76.17" width="1.31" height="0.88" fill="#B27563"/>
      <rect x="176.65" y="75.29" width="1.31" height="0.88" fill="#AA665A"/>
      <rect x="176.65" y="74.41" width="1.31" height="0.88" fill="#A05752"/>
      <rect x="176.65" y="73.53" width="1.31" height="0.88" fill="#96484A"/>
      <rect x="176.65" y="72.65" width="1.31" height="0.88" fill="#8B3844"/>
      <rect x="176.65" y="71.77" width="1.31" height="0.88" fill="#7E273E"/>
      <g stroke="#FFFFFF" stroke-width="0.2" id="img-4aefe5d5-7">
        <path fill="none" d="M176.65,95.23 L 177.97 95.23"/>
        <path fill="none" d="M176.65,77.64 L 177.97 77.64"/>
        <path fill="none" d="M176.65,101.1 L 177.97 101.1"/>
        <path fill="none" d="M176.65,71.77 L 177.97 71.77"/>
        <path fill="none" d="M176.65,89.37 L 177.97 89.37"/>
        <path fill="none" d="M176.65,106.96 L 177.97 106.96"/>
        <path fill="none" d="M176.65,83.5 L 177.97 83.5"/>
      </g>
    </g>
    <g fill="#362A35" font-size="3.88" font-family="'PT Sans','Helvetica Neue','Helvetica',sans-serif" stroke="#000000" stroke-opacity="0.000" id="img-4aefe5d5-8">
      <text x="176.65" y="67.77">ALAND</text>
    </g>
  </g>
<g clip-path="url(#img-4aefe5d5-9)">
  <g id="img-4aefe5d5-10">
    <g pointer-events="visible" opacity="1" fill="#000000" fill-opacity="0.000" stroke="#000000" stroke-opacity="0.000" class="guide background" id="img-4aefe5d5-11">
      <rect x="59.52" y="5" width="115.14" height="153.51"/>
    </g>
    <g class="guide ygridlines xfixed" stroke-dasharray="0.5,0.5" stroke-width="0.2" stroke="#D0D0E0" id="img-4aefe5d5-12">
      <path fill="none" d="M59.52,156.51 L 174.65 156.51"/>
      <path fill="none" d="M59.52,119.14 L 174.65 119.14"/>
      <path fill="none" d="M59.52,81.76 L 174.65 81.76"/>
      <path fill="none" d="M59.52,44.38 L 174.65 44.38"/>
      <path fill="none" d="M59.52,7 L 174.65 7"/>
    </g>
    <g class="guide xgridlines yfixed" stroke-dasharray="0.5,0.5" stroke-width="0.2" stroke="#D0D0E0" id="img-4aefe5d5-13">
      <path fill="none" d="M61.52,5 L 61.52 158.51"/>
      <path fill="none" d="M98.56,5 L 98.56 158.51"/>
      <path fill="none" d="M135.61,5 L 135.61 158.51"/>
      <path fill="none" d="M172.65,5 L 172.65 158.51"/>
    </g>
    <g class="plotpanel" id="img-4aefe5d5-14">
      <g class="geometry" stroke-width="0.3" id="img-4aefe5d5-15">
        <path d="M124.79,119.13 L 125.03 118.75 125.07 118.53 125.32 118.32 125.75 117.96 125.83 117.52 126.22 117.51 127.34 117.52 128.25 118.28 128.23 118.3 129.4 119.89 130.4 120.4 130.03 120.97 129.59 121.65 129.6 121.94 129.61 122.29 129.03 122.45 128.88 123.11 128.48 122.58 127.9 122.38 127.81 122.15 127.76 122.11 127.09 121.47 126.87 121.25 126.16 120.93 125.55 120.45 124.82 119.69 124.6 119.55 124.79 119.13 z" fill="#006090" stroke="#FFFFFF"/>
        <path d="M100.85,73.44 L 101.69 73.48 102.38 72.84 103.85 72.22 103.99 71.7 105.57 70.8 106.33 70.89 107.36 70.51 108.46 70.42 108.46 71.08 108.89 71.23 107.61 71.86 106.83 72.95 105.41 75.2 105.24 75.69 104.65 75.93 104.81 76.31 103.68 77.6 101.42 75 101.29 74.8 100.85 73.44 z" fill="#006593" stroke="#FFFFFF"/>
        <path d="M105.13,85.3 L 107.18 84.61 108.18 84.57 108.63 84.4 111.02 81.95 111.94 81.94 111.94 81.49 112.49 81.14 112.49 80.45 114.76 78.16 115.09 78.57 116.28 78.63 117.12 80.18 114.94 82.39 114.54 83.06 114.58 84.16 114.31 84.57 113.73 84.62 113.42 85.16 113.13 84.74 112.63 85.1 112.66 85.64 112.32 85.57 112.18 86.03 111.97 85.85 111.87 85.9 111.87 86.17 111.61 86.18 111.49 86.31 111.42 86.4 110.59 87.87 109.62 87.94 108.83 88.24 108.58 88.15 107.17 88.71 106.01 88.55 105.3 87.74 105.34 87.23 104.59 85.85 105.13 85.3 z" fill="#007EA1" stroke="#FFFFFF"/>
        <path d="M96.03,74.82 L 96.92 73.07 97.11 73.12 97.53 73.41 98.48 73.18 98.97 73.23 100.59 72.64 100.85 73.44 101.29 74.8 101.42 75 101.47 78.58 100.85 78.35 99.9 78.54 99.14 79.02 96.92 81.27 96.22 80.63 96.22 78.53 96.22 77.75 96.41 77.41 96.03 77.17 96.03 74.82 z" fill="#006D98" stroke="#FFFFFF"/>
        <path d="M74.26,34.06 L 74.39 33.01 74.32 32.36 76.06 32.39 77.54 32.39 78.9 32.4 80.03 32.35 79.65 33.43 79.01 33.58 78.51 34.26 78.87 35.54 78.38 36.86 78.97 37.53 79.27 38.34 78.86 39.23 77.96 39.25 77.96 38.32 75.51 38.31 75.39 37.39 75.11 36.49 74.88 35.59 74.8 35.37 74.49 35.29 74.05 34.67 74.26 34.06 z" fill="#006493" stroke="#FFFFFF"/>
        <path d="M99.65,68.26 L 100.33 66.81 100.48 66.09 100.5 66.09 101.3 65.59 101.97 65.7 102.36 65.18 102.9 65.08 103.76 65.78 104.41 66.11 105.17 65.56 105.47 64.88 107.54 64.85 107.87 64.47 109.04 64.46 109.05 65.19 109.85 65.9 110.07 66.57 109.35 67.58 108.46 68.36 108.25 68.3 107.9 69.05 107.3 69.14 106.57 70 104.85 70.4 103.88 70.49 102.35 69.86 100.58 70.43 99.83 68.21 99.65 68.26 z" fill="#00749C" stroke="#FFFFFF"/>
        <path d="M88.29,80.28 L 88.47 79.91 88.47 79.12 88.43 78.9 89.35 78.89 89.32 78.9 89.59 80.11 90.55 80.47 91.17 81.04 91.5 80.86 91.6 81.01 91.89 81.31 91.37 81.52 90.99 81.8 90.98 82.98 91.31 83.32 91.3 84.06 89.94 84.36 90.14 85.21 89.9 85.11 89.73 84.81 89.29 84.36 89.11 83.72 89.22 83.02 89.25 82.79 89.19 82.39 88.9 81.75 88.89 81.49 88.49 81.16 88.3 80.86 88.29 80.28 z" fill="#00588B" stroke="#FFFFFF"/>
        <path d="M106.02,116.22 L 107.06 116.41 107.94 116.72 108.6 116.6 109.19 117.14 109.28 117.56 108.65 117.84 108.05 118.03 107.58 117.71 107.41 117.42 106.05 117.07 105.31 116.7 106.02 116.22 z" fill="#1A8AA7" stroke="#FFFFFF"/>
        <path d="M86.09,61.07 L 86.47 61.07 90.98 61.05 91.44 60.73 92.49 60.74 93.47 61.06 93.4 61.35 93.32 61.92 93.01 63.25 93.48 64.41 94.25 65.23 93.92 65.99 89.76 66 89.19 65.58 89.15 64.97 88.51 64.61 88.64 63.34 86.95 62.63 86.17 61.84 86.43 61.23 86.09 61.07 z" fill="#006895" stroke="#FFFFFF"/>
        <path d="M84.22,75.78 L 84.64 74.63 84.7 73.96 84.42 73.31 84.43 72.93 84.29 72.69 85.05 72.42 86.46 73.63 87.9 73.89 88.39 74.6 88.53 74.67 88.51 74.68 88.44 75.48 88.83 75.86 88.53 76.17 88.55 76.64 88.87 76.94 89.11 77.37 88.58 77.65 88.13 77.61 87.6 77.14 86.97 76.81 86.77 76.94 86.34 76.5 85.99 76.07 85.5 75.64 84.81 75.48 84.53 75.9 84.22 75.78 z" fill="#00598C" stroke="#FFFFFF"/>
        <path d="M128.88,123.11 L 129.03 122.45 129.61 122.29 129.6 121.94 130.8 121.94 131.66 122.44 131.74 122.47 131.81 122.5 131.81 122.67 132.63 122.66 133.07 122.68 133.55 122.72 135.27 122.72 140.42 122.7 141.35 122.73 141.38 126.22 141.18 129.72 141.17 130.74 137.59 131.08 136.88 131.16 134.98 131.34 132.77 131.57 132.71 131.07 132.68 130.74 132.41 130.21 132.18 130.05 131.77 130.24 131.7 129.93 131.7 129.07 131.48 128.73 131.47 128.55 131.54 128.44 131.63 128.46 131.69 128.36 131.69 128.35 131.7 127.95 131.56 127.21 131.49 126.84 131.2 126.03 130.81 125.29 130.13 124.29 129.28 123.33 128.89 123.12 128.88 123.11 z" fill="#57A8B5" stroke="#FFFFFF"/>
        <path d="M92.81,90.65 L 93.19 90.11 93.71 90.35 94.09 89.61 94.24 88.62 94.28 88.23 94.11 87.87 95.04 87.15 95.5 87.41 95.88 88 97.09 89.17 96.95 89.58 97.92 89.97 98.19 90.36 98.24 91.47 98.8 91.43 99.22 92.06 100.47 93.32 100.59 93.98 101.47 93.46 101.92 93.65 102.78 94.57 103.14 94.64 103.14 93.98 102.8 93.48 103.46 93.91 103.89 94.57 103.55 95.24 105.49 96.98 106.46 97.62 106.78 97.63 107.29 98.83 102.87 98.81 97.95 98.77 97.46 98.26 97 97.84 96.8 96.97 96.42 96.51 96.07 96.4 95.68 95.64 95.2 94.96 94.38 94.32 94 94.17 93.48 93.54 93.36 92.6 93.05 91.65 92.81 90.65 z" fill="#3596AC" stroke="#FFFFFF"/>
        <path d="M93.71,75.07 L 93.86 75.01 93.98 75.12 94.24 75.18 94.68 74.9 94.94 74.92 95.16 74.13 95.74 73.75 95.92 72.51 96.51 72.01 96.64 70.84 96.21 70.5 96.26 70.37 96.48 70.32 96.43 70.22 96.59 70.03 96.51 69.82 96.64 69.6 96.59 69.45 96.46 69.41 96.32 69.48 96.25 69.42 95.58 68.54 95.84 68.01 96.19 68 96.82 68.02 97.66 68.1 98.26 68.15 99.65 68.26 99.83 68.21 100.58 70.43 100.59 72.64 98.97 73.23 98.48 73.18 97.53 73.41 97.11 73.12 96.92 73.07 96.03 74.82 95.26 74.83 94.73 75.54 94.2 75.59 93.7 75.12 93.71 75.07 z" fill="#006492" stroke="#FFFFFF"/>
        <path d="M78.87,35.54 L 78.51 34.26 79.01 33.58 79.65 33.43 80.03 32.35 80.73 32.33 81.45 32.35 82.41 32.29 83.11 32.24 83.94 32.31 85.96 32.3 88.43 32.25 90.18 32.26 90.18 32.26 91.72 32.28 93.83 32.31 95.24 32.34 97.12 32.38 97.04 32.9 97.11 34.84 97.13 41.43 88.45 41.44 88.25 41.1 88.41 39.66 87.74 39.49 87.17 40.26 85.87 41.22 85.26 41.19 84.54 42.22 85.16 43.14 85 43.52 84.01 43.41 83.86 42.94 83.15 42.58 82.34 42.62 82.06 42.1 80.95 41.47 80.29 39.29 78.86 39.23 79.27 38.34 78.97 37.53 78.38 36.86 78.87 35.54 z" fill="#96CCC8" stroke="#FFFFFF"/>
        <path d="M92.19,55.66 L 94.18 55.66 95.01 54.57 95.48 54.59 95.97 53.31 97.21 52.75 97.79 53.47 97.35 54.23 97.26 55.48 97.92 56.29 99.07 57.38 99.68 58.43 100.18 58.76 99.57 59.53 98.29 59.6 98.05 60.62 97.45 61.54 95.67 62.01 95.55 61.91 93.32 61.92 93.4 61.35 93.47 61.06 93.75 59.41 92.61 59.45 92.61 57.96 92.98 57.3 92.83 57.41 92.34 56.57 92.18 56.6 92.19 55.66 z" fill="#00739B" stroke="#FFFFFF"/>
        <path d="M89.21,74.17 L 90.8 74.18 90.95 74.1 90.86 72.48 92.06 72.35 91.52 71.28 91.71 70.38 92.47 70.64 93.06 70.17 94.94 70.12 95.09 72.5 95.92 72.51 95.74 73.75 95.16 74.13 94.94 74.92 94.68 74.9 94.24 75.18 93.98 75.12 93.86 75.01 93.71 75.07 93.7 75.12 93.57 75.3 92.15 75.18 91.77 75.31 91.38 75.48 90.34 75.18 90.07 74.71 89.32 74.3 89.28 74.32 89.21 74.17 z" fill="#006090" stroke="#FFFFFF"/>
        <path d="M79.85,67.67 L 81.28 67.57 83.19 67.23 83.65 66.76 85.79 66.79 86 66.91 87.39 68.74 87.23 69.47 87.59 69.91 88.08 70.31 89.68 73.77 89.21 74.17 89.28 74.32 88.53 74.67 88.39 74.6 87.9 73.89 86.46 73.63 85.05 72.42 84.29 72.69 84.28 72.68 83.87 72.65 83.75 72.27 83.61 71.68 82.94 70.79 82.26 70.4 81.58 69.82 81.43 69.49 80.67 68.39 80.07 67.94 79.85 67.67 z" fill="#00719A" stroke="#FFFFFF"/>
        <path d="M112.8,91.41 L 113.46 90.72 114.79 90.74 114.79 89.84 115.87 89.86 116.58 89.87 117.43 89.87 117.45 89 122.58 88.96 122.53 89.52 123.29 90.49 123.16 90.9 123.58 91.26 123.78 92.18 124.73 93.09 124.51 93.78 125.28 96.57 125.52 96.83 125.71 98.02 125.51 98.07 125.49 98.83 125 98.8 118.93 98.82 116.87 98.81 112.87 98.82 112.88 96.14 112.94 93.88 113.39 93.89 113.39 92.53 112.95 92.52 112.95 91.63 112.58 91.62 112.8 91.41 z" fill="#6BB3BB" stroke="#FFFFFF"/>
        <path d="M109.75,116.4 L 110.24 116.27 111.21 116.49 112.63 116.45 113.42 116.44 113.28 117.02 112.73 117 111.84 117.12 111.36 117.39 110.74 117.36 110.1 117.18 110.07 116.75 109.75 116.4 z" fill="#1A8AA7" stroke="#FFFFFF"/>
        <path d="M89.94,84.36 L 91.3 84.06 91.31 83.32 92.64 84.8 93.83 85.3 94.14 85.59 94.72 86.41 96.02 87.36 95.5 87.41 95.04 87.15 94.11 87.87 93.7 87.02 93.33 86.63 92.96 86.61 92.34 86.82 92.01 86.79 91.69 86.77 90.86 86.16 90.42 85.55 90.21 85.25 90.14 85.21 89.94 84.36 z" fill="#00588B" stroke="#FFFFFF"/>
        <path d="M98.94,84.9 L 101.11 82.7 100.94 82.14 105.86 79.68 107.59 83.58 108.63 84.4 108.18 84.57 107.18 84.61 105.13 85.3 104.59 85.85 104.19 86.8 103.65 86.8 101.48 89.01 99.64 88.01 98.88 87.07 99.03 86.71 98.78 86.49 98.94 84.9 z" fill="#00799E" stroke="#FFFFFF"/>
        <path d="M95.5,87.41 L 96.02 87.36 96.29 87.17 96.36 87.13 96.35 87.09 96.4 87.03 96.49 86.96 96.57 86.88 96.59 86.75 96.64 86.68 96.68 86.6 97.08 86.43 97.36 86.72 99.03 86.71 98.88 87.07 99.64 88.01 101.48 89.01 104.13 91.62 104.14 93.28 103.46 93.91 102.8 93.48 103.14 93.98 103.14 94.64 102.78 94.57 101.92 93.65 101.47 93.46 100.59 93.98 100.47 93.32 99.22 92.06 98.8 91.43 98.24 91.47 98.19 90.36 97.92 89.97 96.95 89.58 97.09 89.17 95.88 88 95.5 87.41 z" fill="#006D98" stroke="#FFFFFF"/>
        <path d="M117.79,116.23 L 118.49 115.71 119.05 115.29 119.59 115.3 119.83 115.29 120.05 114.98 120.05 114.6 120.33 114.27 120.17 113.73 119.46 111.96 118.29 109.01 118.18 108.73 122.86 108.71 127.42 108.68 128.3 108.69 128.4 112.99 128.47 114.08 128.21 115.32 128.08 115.76 127.99 116.03 127.94 116.18 127.67 116.78 127.47 116.79 127.18 117.23 127.34 117.52 126.22 117.51 125.83 117.52 125.75 117.96 125.32 118.32 125.07 118.53 125.03 118.75 124.79 119.13 124.6 119.55 124.46 119.46 124.04 119.63 123.64 119.84 123.42 119.95 122.94 119.86 122.81 119.78 122.63 119.67 122.28 119.63 122.02 119.24 122.3 118.95 122.15 118.15 121.76 117.29 121.27 116.71 120.58 116.59 119.95 116.65 119.41 116.66 118.91 116.97 118.51 116.64 117.76 116.51 117.79 116.23 z" fill="#52A5B4" stroke="#FFFFFF"/>
        <path d="M108.46,70.42 L 108.46 68.36 109.35 67.58 110.07 66.57 109.85 65.9 112.46 68.23 112.48 68.25 112.2 69.42 112.83 70.72 112.03 72.36 111.49 71.42 110.01 72.05 108.89 71.23 108.46 71.08 108.46 70.42 z" fill="#005E8F" stroke="#FFFFFF"/>
        <path d="M96.94,65.98 L 97.39 65.98 97.39 65.22 97.8 64.85 98.07 64.74 98.51 64.82 99.67 64.78 100.24 65.13 100.92 64.09 103.06 62.09 103.52 61.85 104.48 61.8 106.4 61.79 108.76 61.79 109.02 61.79 109.02 62.06 109.03 63.41 109.04 63.98 109.04 64.46 107.87 64.47 107.54 64.85 105.47 64.88 105.17 65.56 104.41 66.11 103.76 65.78 102.9 65.08 102.36 65.18 101.97 65.7 101.3 65.59 100.5 66.09 100.48 66.09 100.33 66.81 99.65 68.26 98.26 68.15 97.66 68.1 96.82 68.02 96.94 65.98 z" fill="#006D98" stroke="#FFFFFF"/>
        <path d="M141.18,129.72 L 141.38 126.22 141.35 122.73 146.44 122.72 151.69 122.68 153.36 122.65 153.31 122.76 152.99 122.8 152.56 122.93 152.71 123.22 152.71 123.75 152.58 124.1 152.98 124.42 152.95 124.67 152.94 125.38 152.72 125.92 153.01 126.59 153.36 126.65 153.8 126.6 154.28 126.72 154.33 126.73 154.58 127.24 154.61 127.72 154.73 127.94 154.68 128.5 154.16 129.12 153.84 129.47 153.45 129.53 153.04 129.6 152.72 129.52 152.61 129.75 150.29 129.94 146.46 130.26 141.67 130.69 141.17 130.74 141.18 129.72 z" fill="#56A7B5" stroke="#FFFFFF"/>
        <path d="M128.25,118.28 L 128.4 117.74 128.76 117.73 129.2 116.79 130.71 116.64 130.74 116.79 131.94 116.8 132.8 116.94 132.94 116.94 134.38 116.93 134.38 116.64 139.57 116.66 147.69 116.64 147.69 116.2 155 116.19 154.95 116.56 154.79 116.87 154.34 117.41 154.13 117.7 154.35 117.98 154.38 118.34 154.25 118.71 154.38 119.38 154.45 119.8 154.38 120.06 154.21 120.37 154.18 120.92 154.22 121.47 153.62 122.08 153.36 122.65 151.69 122.68 146.44 122.72 141.35 122.73 140.42 122.7 135.27 122.72 133.55 122.72 133.07 122.68 132.63 122.66 131.81 122.67 131.81 122.5 131.74 122.47 131.66 122.44 130.8 121.94 129.6 121.94 129.59 121.65 130.03 120.97 130.4 120.4 129.4 119.89 128.23 118.3 128.25 118.28 z" fill="#A6CFC7" stroke="#FFFFFF"/>
        <path d="M106.46,97.62 L 109.4 94.79 109.4 92.53 111.09 92.52 111.81 92.34 112.58 91.62 112.95 91.63 112.95 92.52 113.39 92.53 113.39 93.89 112.94 93.88 112.88 96.14 112.87 98.82 107.46 98.83 107.29 98.83 106.78 97.63 106.46 97.62 z" fill="#006D98" stroke="#FFFFFF"/>
        <path d="M90.99,81.8 L 91.37 81.52 91.89 81.31 92.07 81.46 93.18 81.56 93.75 81.24 96.91 81.27 97.46 83.06 97.03 83.36 97.52 84.74 98.48 84.39 98.94 84.9 98.78 86.49 99.03 86.71 97.36 86.72 97.08 86.43 96.68 86.6 96.64 86.68 96.59 86.75 96.57 86.88 96.49 86.96 96.4 87.03 96.35 87.09 96.36 87.13 96.29 87.17 96.02 87.36 94.72 86.41 94.14 85.59 93.83 85.3 92.64 84.8 91.31 83.32 90.98 82.98 90.99 81.8 z" fill="#006B96" stroke="#FFFFFF"/>
        <path d="M104.81,76.31 L 104.65 75.93 105.24 75.69 105.41 75.2 106.83 72.95 107.61 71.86 108.89 71.23 110.01 72.05 111.49 71.42 112.03 72.36 111.93 72.79 112.32 73.33 112.09 73.72 112.55 74.15 113.43 74.46 114.45 74.94 114.79 75.57 114.76 76.38 115.65 77.02 115.65 77.88 115.09 78.57 114.76 78.16 113.79 77.23 113.39 77.34 112.89 76.83 111.98 77.44 111.8 77.92 110.63 78.4 109.83 78.37 108.4 77.63 108.01 78.12 106.21 78.72 106.53 79.35 105.83 79.15 105.86 79.68 103.68 77.6 104.81 76.31 z" fill="#007FA2" stroke="#FFFFFF"/>
        <path d="M113.36,113.17 L 113.63 112.92 113.66 112.31 113.66 111.33 113.66 107.89 115.02 108.11 115.3 108.77 117.5 108.79 118.29 109.01 119.46 111.96 120.17 113.73 120.33 114.27 120.05 114.6 120.05 114.98 119.83 115.29 119.59 115.3 119.05 115.29 118.49 115.71 117.79 116.23 117.76 116.51 117.68 116.5 116.73 116.07 116.4 116.03 115.43 115.36 115.19 114.84 115.08 114.44 115.03 114.41 114.72 114.21 114.21 113.75 113.5 113.22 113.36 113.17 z" fill="#00779D" stroke="#FFFFFF"/>
        <path d="M120.66,122.31 L 121.56 122.11 122.5 122.89 123.19 123.47 122.87 123.99 122.46 123.78 121.72 123.72 121.57 123.28 120.91 122.64 120.66 122.31 z" fill="#52A5B4" stroke="#FFFFFF"/>
        <path d="M93.32,61.92 L 95.55 61.91 95.67 62.01 95.98 64.22 95.78 64.57 96.07 66.06 96.33 65.48 97.39 65.22 97.39 65.98 96.94 65.98 96.82 68.02 96.19 68 95.84 68.01 95.26 67.93 94.85 66.78 94.09 66.51 93.92 65.99 94.25 65.23 93.48 64.41 93.01 63.25 93.32 61.92 z" fill="#005B8D" stroke="#FFFFFF"/>
        <path d="M89.23,65.99 L 89.76 66 93.92 65.99 94.09 66.51 94.85 66.78 95.26 67.93 95.84 68.01 95.58 68.54 96.25 69.42 96.32 69.48 96.46 69.41 96.59 69.45 96.64 69.6 96.51 69.82 96.59 70.03 96.43 70.22 96.48 70.32 96.26 70.37 96.21 70.5 96.64 70.84 96.51 72.01 95.92 72.51 95.09 72.5 94.94 70.12 93.06 70.17 92.47 70.64 91.71 70.38 91.18 68.87 90.71 68.39 90.19 66.9 89.31 66.64 89.08 66.22 89.23 65.99 z" fill="#006593" stroke="#FFFFFF"/>
        <path d="M112.53,124.19 L 113.1 123.91 113.78 124.32 113.76 124.7 113.47 124.82 112.8 124.64 112.53 124.19 z" fill="#00779D" stroke="#FFFFFF"/>
        <path d="M89.81,77.83 L 90.06 77.61 89.85 76.94 90.33 76.81 91.41 77.88 92.19 77.95 92.52 78.24 92.58 78.32 92.47 78.48 92.65 78.63 92.79 78.68 92.89 78.79 93.61 78.57 96.02 77.8 96.22 77.75 96.22 78.53 96.22 80.63 96.92 81.27 96.91 81.27 93.75 81.24 93.18 81.56 92.07 81.46 91.89 81.31 91.6 81.01 91.5 80.86 91.64 80.78 91.37 80.22 91.3 79.6 91.22 79.33 91.22 79.32 90.8 79 90.5 78.7 90.48 78.4 89.98 78.17 89.81 77.83 z" fill="#005E8F" stroke="#FFFFFF"/>
        <path d="M119.16,81.47 L 126.93 81.45 128.19 82.62 131.78 85.99 132.43 86.61 133.79 87.9 138.02 91.93 138.95 92.82 141.28 95.06 142.93 96.66 143.32 97.04 144.95 98.62 144.23 98.78 139.76 98.79 131.73 98.77 128.58 98.75 126.18 98.74 125.49 98.83 125.51 98.07 125.71 98.02 125.52 96.83 125.28 96.57 124.51 93.78 124.73 93.09 123.78 92.18 123.58 91.26 123.16 90.9 123.29 90.49 122.53 89.52 122.58 88.96 122.34 88.03 122.58 87.48 121.95 85.69 120.67 84.87 120.16 84.83 119.65 82.88 119.07 82.72 119.16 81.47 z" fill="#B9CBBD" stroke="#FFFFFF"/>
        <path d="M112.03,72.36 L 112.83 70.72 112.2 69.42 112.48 68.25 114.6 70.16 115 70.52 116.01 71.43 117.72 72.97 121.42 76.36 122.02 76.91 125.37 80.01 126.93 81.45 119.16 81.47 118.54 81.34 117.99 80.55 117.12 80.18 116.28 78.63 115.09 78.57 115.65 77.88 115.65 77.02 114.76 76.38 114.79 75.57 114.45 74.94 113.43 74.46 112.55 74.15 112.09 73.72 112.32 73.33 111.93 72.79 112.03 72.36 z" fill="#2B91AA" stroke="#FFFFFF"/>
        <path d="M98.07,41.43 L 104.92 41.43 109.06 41.42 109.07 44.93 109.08 46.53 109.09 50.9 109.08 53.03 109.08 54.87 109.06 57.41 108.93 57.56 107.85 57.57 108.15 56.94 108.16 55.06 107.4 54.25 107.33 53.47 106.24 53.15 105.08 52.16 104.85 51.69 103.68 51.05 102.75 50.96 101.4 52.31 100.3 51.61 100.3 49.53 98.11 49.55 98.17 44.49 98.07 41.43 z" fill="#62AEB8" stroke="#FFFFFF"/>
        <path d="M107.46,98.83 L 112.87 98.82 116.87 98.81 118.93 98.82 125 98.8 125.49 98.83 126.18 98.74 128.58 98.75 128.42 99.64 128.72 99.94 128.61 101.13 128.59 108.69 128.3 108.69 127.42 108.68 122.86 108.71 118.18 108.73 118.29 109.01 117.5 108.79 115.3 108.77 115.02 108.11 113.66 107.89 113.41 107.89 113.41 106.1 112.68 105.99 112.74 105.05 111.8 105.11 111.81 104.21 110.63 104.2 110.63 103.31 110.05 103.31 110.05 102.41 109.77 102.41 108.34 101.52 108.35 100.62 107.46 100.62 107.46 98.83 z" fill="#AFCDC3" stroke="#FFFFFF"/>
        <path d="M98.62,62.26 L 99.76 61.1 100.63 60.98 102.83 60.32 103.66 59.52 104.32 59.57 104.89 60.39 109.03 60.41 109.02 61.79 108.76 61.79 106.4 61.79 104.48 61.8 103.52 61.85 103.06 62.09 100.92 64.09 100.24 65.13 99.67 64.78 98.51 64.82 98.62 62.26 z" fill="#006392" stroke="#FFFFFF"/>
        <path d="M100.33,59.41 L 100.73 58.31 101.88 56.82 102.52 57.55 103.44 57.9 103.66 57.58 107.85 57.57 108.93 57.56 109.06 57.41 109.04 59.39 109.03 60.41 104.89 60.39 104.32 59.57 103.66 59.52 102.83 60.32 100.63 60.98 100.33 59.41 z" fill="#006392" stroke="#FFFFFF"/>
        <path d="M96.92,81.27 L 99.14 79.02 99.9 78.54 100.85 78.35 101.47 78.58 101.42 75 103.68 77.6 105.86 79.68 105.86 79.68 100.94 82.14 101.11 82.7 98.94 84.9 98.48 84.39 97.52 84.74 97.03 83.36 97.46 83.06 96.91 81.27 96.92 81.27 z" fill="#006F99" stroke="#FFFFFF"/>
        <path d="M87.39,68.74 L 88.74 68.34 89.28 67.28 89.31 66.64 90.19 66.9 90.71 68.39 91.18 68.87 91.71 70.38 91.52 71.28 92.06 72.35 90.86 72.48 90.95 74.1 90.8 74.18 89.21 74.17 89.68 73.77 88.08 70.31 87.59 69.91 87.23 69.47 87.39 68.74 z" fill="#005F8F" stroke="#FFFFFF"/>
        <path d="M83.75,50.78 L 84.33 49.84 85.11 49.55 85.59 48.89 86.83 48.15 86.36 46.88 87.04 45.95 87.07 45.37 87.61 44.56 87.55 43.92 88.21 43.3 88.33 42.48 88.79 42.39 88.89 41.71 88.45 41.44 97.13 41.43 98.07 41.43 98.17 44.49 98.11 49.55 97.83 49.53 96.71 49.54 95.48 49.66 94.16 49.55 93.05 49.87 92.48 49.75 90 50.36 88.89 50.33 88.24 50.1 87.19 50.83 86.38 50.42 85.37 50.6 84.99 51.06 84.51 50.97 83.78 51.28 83.75 50.78 z" fill="#48A0B1" stroke="#FFFFFF"/>
        <path d="M72.88,48.89 L 73.58 47.2 74.61 45.18 75.09 43.57 75.03 42.92 74.79 42.49 74.72 41.93 75.06 41.36 75.31 40.28 75.55 38.59 75.51 38.31 77.96 38.32 77.96 39.25 78.86 39.23 80.29 39.29 80.95 41.47 80.49 42.61 80.97 43.3 80.34 44.39 79.7 44 79.17 44.23 79.7 45.33 79.83 46.32 79.83 54.38 75.86 54.39 75.77 54.26 75.5 54.17 75.35 53.55 74.91 53.14 74.52 52.98 73.94 52.4 73.24 51.75 73.07 51.56 73.16 50.79 73.05 50.32 72.69 49.63 72.88 48.89 z" fill="#409BAF" stroke="#FFFFFF"/>
        <path d="M103.65,86.8 L 104.19 86.8 104.59 85.85 105.34 87.23 105.3 87.74 106.01 88.55 107.17 88.71 108.58 88.15 108.83 88.24 109.62 87.94 110.59 87.87 111.42 86.4 111.49 86.31 111.61 86.18 111.87 86.17 111.87 85.9 111.97 85.85 112.18 86.03 112.32 85.57 112.66 85.64 112.63 85.1 113.13 84.74 113.42 85.16 113.73 84.62 114.31 84.57 114.58 84.16 114.54 83.06 114.94 82.39 117.12 80.18 117.99 80.55 118.54 81.34 119.16 81.47 119.07 82.72 119.65 82.88 120.16 84.83 120.67 84.87 121.95 85.69 122.58 87.48 122.34 88.03 122.58 88.96 117.45 89 117.43 89.87 116.58 89.87 115.87 89.86 114.79 89.84 114.79 90.74 113.46 90.72 112.8 91.41 112.58 91.62 111.81 92.34 111.09 92.52 109.4 92.53 109.4 94.79 106.46 97.62 105.49 96.98 103.55 95.24 103.89 94.57 103.46 93.91 104.14 93.28 104.13 91.62 101.48 89.01 103.65 86.8 z" fill="#8DC7C5" stroke="#FFFFFF"/>
        <path d="M84.83,56.59 L 92.18 56.6 92.34 56.57 92.83 57.41 92.98 57.3 92.61 57.96 92.61 59.45 93.75 59.41 93.47 61.06 92.49 60.74 91.44 60.73 90.98 61.05 86.47 61.07 86.5 58.94 85.26 58.95 85.2 57.56 84.83 56.59 z" fill="#006B97" stroke="#FFFFFF"/>
        <path d="M79.7,44 L 80.34 44.39 80.97 43.3 80.49 42.61 80.95 41.47 82.06 42.1 82.34 42.62 83.15 42.58 83.86 42.94 84.01 43.41 85 43.52 85.16 43.14 84.54 42.22 85.26 41.19 85.87 41.22 87.17 40.26 87.74 39.49 88.41 39.66 88.25 41.1 88.45 41.44 88.89 41.71 88.79 42.39 88.33 42.48 88.21 43.3 87.55 43.92 87.61 44.56 87.07 45.37 87.04 45.95 86.36 46.88 86.83 48.15 85.59 48.89 85.11 49.55 84.33 49.84 83.75 50.78 83.78 51.28 84.5 51.77 84.4 52.82 84.86 54.64 79.82 54.65 79.83 54.38 79.83 46.32 79.7 45.33 79.17 44.23 79.7 44 z" fill="#3194AB" stroke="#FFFFFF"/>
        <path d="M120.65,126.61 L 121.1 127.15 121.87 128 122.64 128.73 122.04 128.94 121.53 128.5 120.76 127.64 120.26 126.79 120.65 126.61 z" fill="#52A5B4" stroke="#FFFFFF"/>
        <path d="M105.83,79.15 L 106.53 79.35 106.21 78.72 108.01 78.12 108.4 77.63 109.83 78.37 110.63 78.4 111.8 77.92 111.98 77.44 112.89 76.83 113.39 77.34 113.79 77.23 114.76 78.16 112.49 80.45 112.49 81.14 111.94 81.49 111.94 81.94 111.02 81.95 108.63 84.4 107.59 83.58 105.86 79.68 105.86 79.68 105.83 79.15 z" fill="#006E98" stroke="#FFFFFF"/>
        <path d="M89.06,76.29 L 89.53 76.05 89.52 75.74 89.74 75.72 89.91 75.71 90.4 75.28 90.34 75.18 91.38 75.48 91.77 75.31 92.15 75.18 93.57 75.3 93.7 75.12 94.2 75.59 94.73 75.54 95.26 74.83 96.03 74.82 96.03 77.17 96.41 77.41 96.22 77.75 96.02 77.8 93.61 78.57 92.89 78.79 92.79 78.68 92.65 78.63 92.47 78.48 92.58 78.32 92.52 78.24 92.19 77.95 91.41 77.88 90.33 76.81 89.85 76.94 89.8 76.78 89.44 76.82 89.06 76.29 z" fill="#005E8F" stroke="#FFFFFF"/>
        <path d="M83.78,51.28 L 84.51 50.97 84.99 51.06 85.37 50.6 86.38 50.42 87.19 50.83 88.24 50.1 88.89 50.33 90 50.36 92.48 49.75 93.05 49.87 94.16 49.55 95.48 49.66 96.71 49.54 96.93 50.59 97.99 51.03 97.77 52.09 97.21 52.75 95.97 53.31 95.48 54.59 95.01 54.57 94.18 55.66 92.19 55.66 92.18 56.6 84.83 56.59 84.73 55.4 85.06 55.09 84.86 54.64 84.4 52.82 84.5 51.77 83.78 51.28 z" fill="#268FA9" stroke="#FFFFFF"/>
        <path d="M88.34,78.23 L 88.72 77.92 89.28 77.87 89.39 78.03 89.46 78.58 89.62 78.67 89.58 78.82 89.35 78.89 88.43 78.9 88.39 78.61 88.34 78.23 z" fill="#004E85" stroke="#FFFFFF"/>
        <path d="M97.04,32.9 L 97.12 32.38 97.19 32.38 98.74 32.37 100.52 32.42 101.81 32.42 103.35 32.42 104.93 32.41 107.56 32.4 109.07 32.41 109.06 33.74 109.07 36.6 109.06 41.42 104.92 41.43 98.07 41.43 97.13 41.43 97.11 34.84 97.04 32.9 z" fill="#4DA2B3" stroke="#FFFFFF"/>
        <path d="M75.86,54.39 L 79.83 54.38 79.82 54.65 84.86 54.64 85.06 55.09 84.73 55.4 84.83 56.59 85.2 57.56 85.26 58.95 85.22 59.5 83.79 59.77 83.7 60.81 84.36 62.66 83.67 63.32 83.85 64.66 83.85 64.96 84.43 65.21 84.74 66.25 85.79 66.79 83.65 66.76 83.19 67.23 81.28 67.57 79.85 67.67 79.6 67.34 79.05 66.86 78.87 66.55 78.46 66.11 78.27 65.67 78.62 64.96 78.36 63.84 78 63.11 77.73 62.27 77.51 61.31 77.6 60.39 77.99 59.24 77.86 58.5 77.78 57.82 77.47 57.4 77.29 56.22 76.83 55.89 76.44 55.24 75.86 54.39 z" fill="#3E9AAF" stroke="#FFFFFF"/>
        <path d="M103.7,107.14 L 104.97 106.95 105.47 107.02 106.57 107.84 106.3 106.82 107.51 106.58 107.68 106.12 108.38 105.72 109.22 106.3 109.65 106.28 111.16 107.15 111.76 107.16 112.89 107.92 113.41 107.89 113.66 107.89 113.66 111.33 113.66 112.31 113.63 112.92 113.36 113.17 112.88 113 112.22 112.75 111.66 112.87 111.46 113 110.82 112.8 110.41 112.8 110.1 112.87 109.29 112.51 108.64 112.34 107.89 112.22 106.63 112.25 105.34 112.48 104.84 111.72 104.52 111.52 104.26 111.37 103.92 111.4 103.73 111.13 104.09 110.01 103.99 109.62 103.89 109.54 104.03 108.32 103.53 107.86 103.7 107.14 z" fill="#1A8AA7" stroke="#FFFFFF"/>
        <path d="M113.42,116.44 L 113.66 116.44 114.3 116.47 114.31 116.98 114.08 117.04 113.28 117.02 113.42 116.44 z" fill="#00779D" stroke="#FFFFFF"/>
        <path d="M96.71,49.54 L 97.83 49.53 98.11 49.55 100.3 49.53 100.3 51.61 101.4 52.31 102.75 50.96 103.68 51.05 104.85 51.69 105.08 52.16 106.24 53.15 107.33 53.47 107.4 54.25 108.16 55.06 108.15 56.94 107.85 57.57 103.66 57.58 103.44 57.9 102.52 57.55 101.88 56.82 100.73 58.31 100.18 58.76 99.68 58.43 99.07 57.38 97.92 56.29 97.26 55.48 97.35 54.23 97.79 53.47 97.21 52.75 97.77 52.09 97.99 51.03 96.93 50.59 96.71 49.54 z" fill="#0A87A5" stroke="#FFFFFF"/>
        <path d="M97.95,98.77 L 102.87 98.81 107.29 98.83 107.46 98.83 107.46 100.62 108.35 100.62 108.34 101.52 109.77 102.41 110.05 102.41 110.05 103.31 110.63 103.31 110.63 104.2 111.81 104.21 111.8 105.11 112.74 105.05 112.68 105.99 113.41 106.1 113.41 107.89 112.89 107.92 111.76 107.16 111.16 107.15 109.65 106.28 109.22 106.3 108.38 105.72 107.68 106.12 107.51 106.58 106.3 106.82 106.57 107.84 105.47 107.02 104.97 106.95 103.7 107.14 103.83 106.55 103.87 106.09 103.82 105.63 103.49 105.33 103.17 105.09 102.82 105.25 102.08 104.81 101.66 104.36 101.8 103.89 101.95 103.21 101.76 102.5 101.18 102.26 100.78 102.19 99.87 101.06 99.44 100.4 98.57 100.08 98.22 99.61 98.07 98.89 97.95 98.77 z" fill="#3696AD" stroke="#FFFFFF"/>
        <path d="M127.18,117.23 L 127.47 116.79 127.67 116.78 127.94 116.18 127.99 116.03 128.08 115.76 128.21 115.32 128.47 114.08 128.4 112.99 128.3 108.69 128.59 108.69 128.61 101.13 128.72 99.94 128.42 99.64 128.58 98.75 131.73 98.77 139.76 98.79 144.23 98.78 144.95 98.62 144.96 98.62 146.96 100.59 147.79 101.4 148.98 102.56 149.94 103.51 151.91 105.46 153.32 106.87 153.35 107.46 153.31 108.18 153.79 108.76 154.5 109.68 154.71 110.02 155.06 111.13 155.43 111.78 155.42 112.45 155.78 112.45 156.37 112.94 157.12 113.51 157.38 113.91 157.38 113.93 157.4 114.37 157.08 114.57 156.65 115.1 156.13 115.31 155.67 115.63 155.2 115.86 155.02 116.05 155 116.19 147.69 116.2 147.69 116.64 139.57 116.66 134.38 116.64 134.38 116.93 132.94 116.94 132.8 116.94 131.94 116.8 130.74 116.79 130.71 116.64 129.2 116.79 128.76 117.73 128.4 117.74 128.25 118.28 127.34 117.52 127.18 117.23 z" fill="#B47865" stroke="#FFFFFF"/>
        <path d="M83.67,63.32 L 84.36 62.66 83.7 60.81 83.79 59.77 85.22 59.5 85.26 58.95 86.5 58.94 86.47 61.07 86.09 61.07 86.43 61.23 86.17 61.84 86.95 62.63 88.64 63.34 88.51 64.61 89.15 64.97 89.19 65.58 89.76 66 89.23 65.99 89.08 66.22 89.31 66.64 89.28 67.28 88.74 68.34 87.39 68.74 86 66.91 85.79 66.79 84.74 66.25 84.43 65.21 83.85 64.96 83.85 64.66 83.67 63.32 z" fill="#006A96" stroke="#FFFFFF"/>
        <path d="M100.58,70.43 L 102.35 69.86 103.88 70.49 104.85 70.4 106.57 70 107.3 69.14 107.9 69.05 108.25 68.3 108.46 68.36 108.46 70.42 107.36 70.51 106.33 70.89 105.57 70.8 103.99 71.7 103.85 72.22 102.38 72.84 101.69 73.48 100.85 73.44 100.59 72.64 100.58 70.43 z" fill="#005B8D" stroke="#FFFFFF"/>
        <path d="M95.67,62.01 L 97.45 61.54 98.05 60.62 98.29 59.6 99.57 59.53 100.18 58.76 100.73 58.31 100.33 59.41 100.63 60.98 99.76 61.1 98.62 62.26 98.51 64.82 98.07 64.74 97.8 64.85 97.39 65.22 96.33 65.48 96.07 66.06 95.78 64.57 95.98 64.22 95.67 62.01 z" fill="#005C8E" stroke="#FFFFFF"/>
      </g>
    </g>
  </g>
</g>
  <g class="guide ylabels" font-size="2.82" font-family="'PT Sans Caption','Helvetica Neue','Helvetica',sans-serif" fill="#6C606B" id="img-4aefe5d5-16">
    <text x="58.52" y="156.51" text-anchor="end" dy="0.35em">3.5×10⁶</text>
    <text x="58.52" y="119.14" text-anchor="end" dy="0.35em">4.0×10⁶</text>
    <text x="58.52" y="81.76" text-anchor="end" dy="0.35em">4.5×10⁶</text>
    <text x="58.52" y="44.38" text-anchor="end" dy="0.35em">5.0×10⁶</text>
    <text x="58.52" y="7" text-anchor="end" dy="0.35em">5.5×10⁶</text>
  </g>
  <g font-size="3.88" font-family="'PT Sans','Helvetica Neue','Helvetica',sans-serif" fill="#564A55" stroke="#000000" stroke-opacity="0.000" id="img-4aefe5d5-17">
    <text x="41.6" y="79.76" text-anchor="middle" dy="0.35em" transform="rotate(-90, 41.6, 81.76)">CM_Y</text>
  </g>
</g>
<defs>
  <clipPath id="img-4aefe5d5-9">
  <path d="M59.52,5 L 174.65 5 174.65 158.51 59.52 158.51" />
</clipPath>
</defs>
</svg>
